<svg width="100%" height="100%" version="1.1" xmlns="http://www.w3.org/2000/svg" id="team-7-20172018-dark"><path fill="#FFF" d="M686.025 580.018c-8.282 0-15.005 6.713-15.005 15 0 8.279 6.723 15.002 15.005 15.002s14.995-6.723 14.995-15.001c0-8.288-6.713-15.001-14.995-15.001zm0 26.783a11.772 11.772 0 0 1-11.782-11.782c0-6.51 5.264-11.774 11.782-11.774 6.51 0 11.78 5.264 11.78 11.774 0 6.512-5.27 11.782-11.78 11.782zm6.164-15.259a5.085 5.085 0 0 0-5.09-5.082h-7.228v17.122h3.213v-6.954h2.306l3.246 6.954h3.553l-3.389-7.25a5.096 5.096 0 0 0 3.389-4.79zm-5.09 1.872h-4.015v-3.747h4.015c1.032 0 1.877.839 1.877 1.875a1.878 1.878 0 0 1-1.877 1.872z"></path><path fill="#A2AAAD" d="M480.005 0C303.547 0 159.993 143.547 159.993 320c0 176.449 143.554 320 320.012 320 176.448 0 320.001-143.551 320.001-320 0-176.453-143.553-320-320.001-320z"></path><path fill="#041E42" d="M480.005 4.003C305.758 4.003 164.003 145.757 164.003 320c0 174.243 141.755 315.993 316.002 315.993 174.237 0 315.989-141.75 315.989-315.993S654.242 4.003 480.004 4.003z"></path><g fill="#A2AAAD"><path d="M480.005 34.491c-157.433 0-285.52 128.08-285.52 285.509 0 157.437 128.087 285.512 285.52 285.512 157.43 0 285.507-128.075 285.507-285.512 0-157.43-128.078-285.509-285.507-285.509zm77.768 434.013c2.385.403 4.233 2.283 5.269 5.044 0 0 4.557-1.705 7.052 4.845 0 0 4.718-1.512 6.998 4.826 0 0 4.633-1.527 6.991 4.841 0 0 4.452-1.657 7.002 4.837 0 0 4.719-1.52 6.99 4.841 0 0 4.512-1.523 7 4.83 0 0 4.687-1.52 6.994 4.834 0 0 4.526-1.598 6.97 4.79.564-.064 1.128-.253 1.68-.149 4.631.79 7.193 6.835 5.942 14.075-.067.374-.145.756-.24 1.119 7.548-7.81 14.064-14.015 22.541-8.67 7.256 4.593 8.673 14.59 3.372 22.978-6.728 10.687-15.393 5.134-19.548 1.846-8.622 6.542-30.84 32.93-71.77 7.12-53.633-33.831-16.767-92.616-23.762-101.49-1.839-2.324-6.496-5.608-4.107-9.411 1.944-3.084 7.906-4.123 13.359-.697 10.362 6.55 9.35 17.618 6.768 30.591 1.4-.893 2.934-1.282 4.499-1zm-20.123-18.216l-5.187 27.938c-16.592-10.946-36.654-24.839-52.458-36.37-15.813 11.531-35.876 25.424-52.468 36.37l-5.187-27.938c11.443-8.043 24.216-17.195 35.125-25.21-125.077-95.081-217.049-196.557-218.129-197.75-14.391-14.998-10.946-33.106-10.816-33.725.465-3.92 4.646-5.902 8.03-2.35 1.038 1.15 94.554 104.38 243.445 217.038C628.886 295.634 722.4 192.402 723.444 191.253c3.38-3.552 7.558-1.57 8.023 2.35.137.62 3.575 18.727-10.816 33.725-1.072 1.193-93.05 102.669-218.13 197.75 10.919 8.015 23.687 17.167 35.13 25.21zm-229.983 91.257c-5.305-8.388-3.892-18.385 3.368-22.978 8.477-5.345 14.99.86 22.54 8.67a16.753 16.753 0 0 1-.235-1.12c-1.248-7.239 1.303-13.284 5.93-14.074.56-.104 1.123.085 1.691.148 2.44-6.387 6.97-4.789 6.97-4.789 2.297-6.353 6.995-4.833 6.995-4.833 2.497-6.354 6.995-4.83 6.995-4.83 2.272-6.361 6.998-4.841 6.998-4.841 2.547-6.495 6.998-4.838 6.998-4.838 2.36-6.368 6.995-4.84 6.995-4.84 2.276-6.34 6.989-4.827 6.989-4.827 2.504-6.55 7.047-4.844 7.047-4.844 1.052-2.762 2.887-4.641 5.276-5.045 1.557-.282 3.103.107 4.495 1-2.586-12.973-3.594-24.042 6.775-30.591 5.45-3.426 11.412-2.388 13.36.697 2.39 3.802-2.269 7.087-4.104 9.411-7.005 8.874 29.868 67.659-23.776 101.49-40.923 25.81-63.141-.578-71.767-7.12-4.148 3.288-12.827 8.84-19.54-1.846zm202.259-298.163c0 3.717-2.75 4.89-7.94 5.384 2.804 2.353 7.917 3.702 7.917 7.446 0 4.315-5.215 7.47-12.843 11.235-.935.584-2.988 3.522-3.568 5.09 11.943 0 21.297-14.314 27.606-14.314 7.248 0 11.654 14.443 11.654 20.788 0 7.089-5.95 8.638-15.899 8.638-9.376 0-26.975 7.65-33.989 7.65-6.448 0-17.116-5.984-17.116-12.806 0-2.687 3.303-10.288 3.303-21.65 0-12.82-9.565-20.759-18.445-20.759-11.109 0-16.152 9.102-16.152 11.87 0 3.835 3.16 5.886 1.092 9.188.11.198.92.75 2.515.75 2.198 0 5.093-4.67 8.892-4.67 6.876 0 15.166 16.888 15.166 20.992 0 5.256-6.438 9.215-14.986 9.215-6.73 0-22.513-8.665-31.807-8.665-5.802.536-15.778.225-15.778-13.3 0-7.467 8.916-8.253 8.916-20.083 0-3.2-4.367-6.17-3.106-10.327 2.007-6.614-3.607-10.09-7.872-10.09-7.53 0-9.865 7.097-9.865 9.678 0 13.254 8.802 10.116 14.74 15.61 1.06 1.06 1.244 2.785.29 3.946-4.914 6.004-11.38 11.101-29.629 6.364-8.157 3.874-15.993 5.603-15.993-1.268 0-3.019 2.067-5.538 4.289-7.674-9.373 2.578-14.29 12.33-21.199 12.33-7.795 0-10.108-8.52-15.804-14.215-2.73-2.734-9.235-5.579-11.496-8.144-12.51-15.39-19.258-20.91-29.067-29.278-3.883-3.1-8.218-16.261-8.218-29.24 0-24.042 3.474-46.517 45.45-57.16 47.453-12.045 36.762-68.796 119.71-68.796 68.273 0 111.401 42.468 211.04 69.848 22.291 6.118 35.252 5.652 35.252 15.413 0 5.801-6.991 5.974-10.861 7.412 1.175.634 4.265 1.37 12.71 1.37 8.14 0 10.578 10.045-11.68 10.045-13.688 0-24.427-5.125-24.427-11.65 0-6.169 6.748-7.78 11.404-8.637-7.287-3.094-23.425-7.327-34.734-7.366 0 0 3.13 8.974 3.13 16.853 0 11.891-3.642 19.108-3.642 23.714 0 4.372 12.127-1.8 16.614-1.8 12.983 0 4.205 22.602 26.409 26.022 5.336 1.075 6.004 4.142 4.205 7.656 0 0 3.243-.415 6.795-1.179 4.722-.726 6.546 2.208 6.546 11.708 0 12.382-6.476 14.049-12.824 14.049-23.7 0-26.246-27.61-37.375-27.61-3.594 0-23.267 6.633-27.493 9.865 1.28 1.487 6.057 3.948 11.724 3.948 4.977 0 7.12 2.537 8.752 2.537 4.346 0 9.122.221 9.122 8.189 0 11.943-4.374 16.817-15.092 16.817-20.889 0-20.678-21.742-37.894-21.742-5.52 0-20.326 6.967-33.956 6.967-16.25 0-26.972-12.355-42.44-12.355-6.583 0-10.025 5.23-10.025 10.407 0 8.108 7.972 10.436 7.972 15.783zm-45.566 31.236c-2.218-7.17-9.287-20.428-17.406-20.428-4.206 0-7.875 3.751-7.875 3.751-.17-2.3-1.589-4.36-1.589-5.988.102-1.538 3.842-8.837 13.117-8.837 7.417 0 15.423 6.774 15.423 17.728 0 5.896-.849 10.394-1.67 13.774zm-59.287-25.658c-5.388-7.232-14.416-2.48-14.416-14.317 0-1.651 1.581-6.643 6.83-6.643 2.66 0 5.254 1.69 5.254 4.55 0 1.075-.65 2.354-.65 3.931 0 5.453 4.898 7.523 2.982 12.479zm74.932-210.462c106.891 0 200.075 59.901 247.725 147.9-2.177-.124-4.529.708-6.548 2.824-.331.377-10.358 11.45-28.817 30.067.066-.884.12-1.795.12-2.763 0-15.048-5.167-15.615-12.62-14.208 0 0 .215-5.506-7.46-6.961-19.934-2.423-10.77-26.074-26.905-26.074-3.729 0-8.587 2.32-13.348 3.185.908-6.189 3.403-11.204 3.403-22.063 0-5.642-1.209-10.12-2.21-13.606 6.928.547 14.983 2.258 21.446 4.111-2.845 1.722-5.093 4.354-5.093 8.646 0 8.5 11.546 14.68 27.457 14.68 28.064 0 23.405-17.008 10.346-16.144 1.405-1.372 2.524-3.09 2.524-5.714 0-11.915-14.615-12.464-37.453-18.328-65.194-18.64-103.305-40.103-138.425-54.285 11.313 3.571 27.668 7.296 47.904 12.862 50.553 13.895 75.309 28.275 78.888 15.246 3.035-11.024-29.656-21.92-71.298-33.374-68.94-18.945-71.881-12.02-72.89-8.371-1.052 3.873 1.342 6.823 6.693 9.533-19.635-7.115-39.099-11.587-62.75-11.587-83.965 0-75.438 57.54-120.45 68.897-44.06 11.176-47.749 35.82-47.749 60.101 0 13.082 4.294 27.56 9.362 31.612 18.283 14.63 23.408 23.632 28.818 29.05 3.148 3.525 9.2 5.841 11.5 8.152 5.708 5.39 8.173 15.1 17.944 15.1 5.977 0 10.363-5.175 13.912-7.85-.017 3.524 2.374 12.873 19.21 4.56 0 0 13.704 4.354 23.64-.849-.204.818-.371 1.663-.371 2.618 0 16.066 12.243 16.961 18.988 16.331 8.757 0 23.814 8.672 31.635 8.672 7.147 0 12.877-2.655 15.828-6.551 1.23 8.075 12.392 14.426 19.903 14.426 7.475 0 25.67-7.667 33.97-7.667 8.888 0 18.957-.99 18.957-11.665 0-6.569-4.526-23.816-14.693-23.816-3.149 0-5.887 1.805-9.008 4.257.427-1.017.833-2.05.833-3.24 0-3.035-1.769-4.924-3.783-6.368 2.86-1.701 3.821-4.212 3.821-6.462 0-7.041-7.976-9.278-7.976-15.784 0-2.546 1.468-7.375 6.994-7.375 14.471 0 25.358 12.363 42.44 12.363 13.41 0 29.371-6.971 33.956-6.971 15.128 0 15.71 21.745 37.895 21.745 16.246 0 18.135-11.337 18.135-19.856 0-8.535-5.227-11.897-12.127-11.223-5.343-3.454-9.608-1.855-14.13-3.416 6.869-2.976 18.23-6.61 21.258-6.868 7.529 0 13.068 27.62 37.225 27.62.484 0 .946-.027 1.389-.05-41.079 40.438-109.694 103.936-198.015 170.92-147.568-111.92-240.159-214.12-241.191-215.265-2.018-2.116-4.37-2.949-6.54-2.824 47.65-87.999 140.823-147.9 247.73-147.9zm19.583 18.53c-.06-2.342 18.416-3.575 69.247 10.398 37.201 10.23 71.259 22.075 69.181 29.631-2.354 8.583-27.578-4.27-75.158-17.355-43.712-12.026-63.119-15.475-63.27-22.674zM198.49 320c0-42.624 9.549-83.061 26.577-119.313.226 7.29 2.399 18.641 12.035 28.659 1.07 1.2 91.63 101.144 215.304 195.688a2374.961 2374.961 0 0 1-21.914 15.788c-.134-.924-.473-1.861-1.068-2.832-2.77-4.382-10.48-6.087-17.545-1.642-10.895 6.875-11.227 17.202-9.162 29.042-.34.03-.669.063-1 .107-2.81.494-5.005 2.302-6.541 4.916 0 0-3.663-.408-6.984 4.826 0 0-3.888-.352-6.995 4.844 0 0-3.68-.504-6.99 4.834 0 0-3.833-.311-6.993 4.848 0 0-3.85-.389-6.998 4.83 0 0-3.754-.393-6.999 4.849 0 0-3.803-.382-6.99 4.815 0 0-3.654-.423-6.984 4.826-.156.022-.328-.07-.484-.048-4.761.837-7.934 5.093-8.635 10.938-6.321-5.775-12.592-9.085-20.7-3.966-5.688 3.588-10.642 12.221-6.674 22.515C239.18 486.874 198.49 408.102 198.49 320zm281.515 281.505c-59.888 0-115.453-18.815-161.127-50.797 3.219-.478 6.129-2.035 8.188-3.491 8.196 6.675 32.907 31.474 73.535 5.86 33.134-20.906 33.166-50.134 29.359-72.76 15.639-10.43 36.15-24.613 50.045-34.706 13.881 10.093 34.393 24.275 50.04 34.706-3.806 22.626-3.774 51.854 29.355 72.76 40.624 25.614 65.339.815 73.538-5.86 2.046 1.456 4.954 3.013 8.192 3.491-45.686 31.982-101.25 50.797-161.125 50.797zm177.242-62.981c3.975-10.312-.977-18.927-6.672-22.515-8.11-5.119-14.39-1.809-20.706 3.966-.697-5.845-3.874-10.1-8.626-10.938-.169-.022-.322.07-.486.048-3.336-5.249-6.983-4.826-6.983-4.826-3.191-5.197-7.006-4.815-7.006-4.815-3.234-5.241-6.987-4.849-6.987-4.849-3.153-5.219-7.002-4.83-7.002-4.83-3.153-5.16-6.985-4.848-6.985-4.848-3.31-5.338-7.008-4.834-7.008-4.834-3.09-5.196-6.981-4.844-6.981-4.844-3.318-5.234-6.984-4.826-6.984-4.826-1.533-2.614-3.731-4.422-6.537-4.915a22.797 22.797 0 0 0-1.005-.108c2.069-11.84 1.74-22.166-9.165-29.042-7.06-4.445-14.763-2.74-17.542 1.642-.589.97-.93 1.909-1.064 2.832a2398.599 2398.599 0 0 1-21.918-15.787c123.67-94.545 214.238-194.488 215.322-195.69 9.619-10.016 11.778-21.368 12.025-28.658 17.025 36.252 26.566 76.689 26.566 119.313 0 88.094-40.691 166.856-104.256 218.524z"></path><path d="M549.306 491.13c-1.772 16.16 1.05 33.03 22.776 46.723 20.573 12.985 33.756 7.91 43.957-.534-2.217-.515-3.95-2.339-4.94-4.982 0 0-4.557 1.713-7.053-4.83 0 0-4.727 1.498-6.995-4.833 0 0-4.628 1.534-6.985-4.841 0 0-4.452 1.65-7.012-4.838 0 0-4.724 1.535-6.998-4.84 0 0-4.51 1.53-6.986-4.838 0 0-4.698 1.527-6.998-4.833 0 0-4.539 1.593-6.972-4.79-.571.078-1.131.26-1.69.156-1.661-.281-3.055-1.249-4.104-2.72zm2.595 5.474c.328.097.66.175.997.252.156.015.317-.077.493-.048 3.325 5.257 6.974 4.819 6.974 4.819 3.18 5.197 6.991 4.837 6.991 4.837 3.255 5.216 7.002 4.82 7.002 4.82 3.145 5.233 6.984 4.851 6.984 4.851 3.18 5.145 7.006 4.834 7.006 4.834 3.313 5.327 6.998 4.833 6.998 4.833 3.11 5.197 6.99 4.853 6.99 4.853 3.316 5.233 6.979 4.833 6.979 4.833.443.753.958 1.442 1.525 2.05-9.133 6.042-20.569 8.2-37.151-2.254-18.118-11.435-22.298-25.035-21.788-38.68zM387.918 537.853c21.72-13.692 24.535-30.562 22.776-46.723-1.045 1.471-2.445 2.439-4.103 2.72-.56.104-1.127-.078-1.69-.155-2.453 6.383-6.984 4.789-6.984 4.789-2.296 6.36-6.982 4.833-6.982 4.833-2.489 6.369-6.994 4.838-6.994 4.838-2.282 6.375-6.991 4.84-6.991 4.84-2.558 6.488-7.014 4.838-7.014 4.838-2.359 6.376-6.987 4.84-6.987 4.84-2.276 6.332-7.002 4.835-7.002 4.835-2.487 6.542-7.046 4.83-7.046 4.83-.994 2.642-2.718 4.466-4.936 4.981 10.197 8.445 23.37 13.519 43.953.534zm-37.236-2.365s3.67.4 6.982-4.833c0 0 3.873.344 6.987-4.852 0 0 3.688.493 7.002-4.834 0 0 3.83.311 6.998-4.834 0 0 3.842.382 6.984-4.852 0 0 3.75.397 7.002-4.819 0 0 3.814.36 7.002-4.837 0 0 3.642.438 6.97-4.819.169-.03.328.063.49.049.344-.078.669-.156 1-.252.506 13.644-3.668 27.244-21.792 38.68-16.574 10.452-28.025 8.295-37.143 2.253a12.082 12.082 0 0 0 1.518-2.05zM513.366 333.463c69.129-25.575 113.943-49.55 109.692-61.05-4.315-11.675-36.443 4.97-120.498 36.066-40.485 14.976-42.846 18.712-40.12 26.088 2.17 5.853 9.503 14.216 50.926-1.104zm-9.753-22.14c72.302-26.749 113.823-45.358 116.596-37.85 3.37 9.102-55.047 37.6-107.9 57.143-39.056 14.46-45.515 6.965-47.018 2.895-2.128-5.742 4.57-9.7 38.322-22.189z"></path></g><g fill="#FFF"><path d="M728.463 194.041c-.458-3.128-2.773-.762-2.773-.762s-93.803 104.247-245.685 218.815C328.105 297.526 234.299 193.28 234.299 193.28s-2.304-2.366-2.754.762c0 0-3.403 17.229 10.055 31.252 0 0 93.106 103.336 220.922 199.834a1956.38 1956.38 0 0 1-36.827 26.54l3.994 21.466c17.185-11.335 33.995-23.097 50.316-35.01 16.311 11.913 33.112 23.675 50.306 35.01l3.99-21.466a1944.029 1944.029 0 0 1-36.823-26.54c127.816-96.498 220.915-199.834 220.915-199.834 13.469-14.023 10.07-31.252 10.07-31.252z"></path><path d="M285.643 209.946c19.14 15.289 24.898 25.08 29.322 29.493 3.74 3.748 7.449 4.1 11.502 8.151 6.044 6.048 7.89 13.32 13.652 13.32 5.931 0 12.436-12.916 25.212-12.916 8.544 0-5.262 5.735-5.262 11.3 0 4.765 10.477-1.75 12.753-1.75 3.831 0 18.653 6.653 27.391-5.15-3.946-3.942-15.62-2.326-15.62-17.751 0-4.252 3.616-12.718 12.894-12.718 7.463 0 13.137 6.58 10.762 14.045-.735 2.346 3.246 5.111 3.246 9.411 0 12.952-8.919 14.407-8.919 20.084 0 11.425 8.094 10.55 12.553 10.276 10.438 0 26.535 8.665 32.004 8.665 6.681 0 11.954-2.899 11.954-6.192 0-3.306-7.788-17.96-12.134-17.96-2.461 0-5.124 4.667-8.892 4.667-4.182 0-6.58-2.61-5.066-5.219.842-1.471-1.57-3.868-1.57-7.749 0-4.726 6.523-14.908 19.181-14.908 10.524 0 21.484 9.118 21.484 23.8 0 12.198-3.313 19.246-3.313 21.648 0 4.519 8.586 9.784 14.087 9.784 5.495 0 26.014-7.667 32.622-7.667 6.609 0 14.237.487 14.237-5.6 0-6.097-4.192-17.75-8.625-17.75-4.42 0-14.576 14.313-27.603 14.313-1.536 0-3.277-.317-3.277-2.504 0-2.194 3.481-7.162 5.288-8.235 1.8-1.06 11.358-5.17 11.358-8.621 0-1.952-8.737-4.39-8.737-8.239 0-3.951 8.762-.782 8.762-4.592 0-3.435-7.963-6.626-7.963-15.784 0-6.607 4.533-13.44 13.053-13.44 16.552 0 26.903 12.356 42.44 12.356 13.152 0 27.63-6.97 33.956-6.97 19.253 0 18.77 21.741 37.894 21.741 8.9 0 12.064-3.364 12.064-13.781 0-5.7-2.765-5.156-6.094-5.156-3.346 0-3.796-2.534-8.752-2.534-7.248 0-15.24-3.753-15.24-7.43 0-3.798 27.054-12.447 31.001-12.447 13.864 0 15.166 27.605 37.383 27.605 5.621 0 9.791-1.212 9.791-11.016 0-9.79-1.566-8.907-3.36-8.659-1.781.25-10.766 2.765-10.766-.052 0-2.824 4.248-5.632-.873-6.474-23.616-3.912-16.73-25.986-25.923-25.986-4.393 0-19.642 8.27-19.642-1.236 0-5.247 3.626-12.405 3.626-23.714 0-12.495-7.124-19.896-.242-19.896 15.021 0 41.314 7.65 41.314 11.313 0 2.634-14.789 1.114-14.789 7.734 0 3.896 8.485 8.618 21.388 8.618 12.896 0 18.104-3.983 11.68-3.983-6.427 0-16.304-.183-16.304-4.635 0-4.468 11.434-2.489 11.434-7.178 0-6.924-11.68-6.404-33.059-12.496-106.387-30.258-143.4-69.736-210.211-69.736-82.19 0-69.05 56.035-118.961 68.697-39.522 10.03-43.16 30.188-43.16 54.23 0 13.507 4.565 24.868 7.069 26.873zm37.76 20.847c-4.392 0-3.269-3.067-3.269-3.067 5.7-7.738 2.766-26.103 9.877-26.103 3.994 0-1.722 4.087-1.722 8.83 0 5.354 7.88 3.782 7.88 10.045 0 3.998-6.447 10.295-12.765 10.295zm17.01 26.113s-3.287-2.356-3.287-4.09c0-3.902 6.636-5.046 6.636-3.82 0 3.32-3.35 7.91-3.35 7.91zm5.331-71.1c0 2.732-5.573 9.249-9.083 9.249-2.663 0-6.954-10.422-6.954-11.33 0-.899 1.244-2.62 5.154-2.62 3.92 0 10.883 1.971 10.883 4.701zm-32.006-41.34c15.773 0 23.94 9.3 23.94 19.497 0 10.191-8.575 17.588-18.04 17.588-6.044 0-7.857-5.082-7.857-7.632 0-3.509 5.22-6.611 5.22-10.75 0-5.176-6.298-8.735-12.578-8.735-10.679 0-17.885 9.162-17.885 4.65 0-5.393 10.798-14.617 27.2-14.617zM504.664 314.163c-27.026 10.007-38.05 14.17-36.528 18.306.841 2.28 6.403 8.882 43.12-4.685 36.584-13.542 108.597-46.538 106.106-53.26-1.229-3.332-52.137 17.236-112.698 39.64zM563.668 76.78c44.598 12.26 70.297 23.588 71.43 19.477 1.122-4.107-34.342-16.907-67.065-25.901-32.727-8.998-66.716-13.457-65.625-12.423 3.442 3.25 16.644 6.58 61.26 18.847z"></path></g><g fill="#FFB81C"><path d="M480.005 8.012C307.69 8.012 168.013 147.697 168.013 320c0 172.32 139.678 311.986 311.992 311.986C652.302 631.986 791.98 492.32 791.98 320c0-172.303-139.678-311.988-311.975-311.988zm0 601.515c-159.902 0-289.53-129.625-289.53-289.527 0-159.895 129.628-289.518 289.53-289.518 159.892 0 289.517 129.623 289.517 289.518 0 159.902-129.625 289.527-289.517 289.527z"></path><path d="M553.923 490.863c1.142.204 2.282-.32 3.325-1.346.892 7.87 5.402 6.75 7.002 4.845.895 7.862 5.391 6.735 6.995 4.826.891 7.87 5.399 6.743 6.99 4.848.889 7.859 5.39 6.74 6.999 4.838.891 7.869 5.399 6.735 6.998 4.833.892 7.855 5.396 6.747 7.006 4.838.884 7.869 5.379 6.75 6.991 4.84.884 7.862 5.382 6.736 6.995 4.827.278 3.35 1.642 5.845 3.653 6.197 2.82.478 5.871-3.458 6.794-8.81.916-5.35-.62-10.083-3.462-10.568-1.121-.197-2.276.31-3.332 1.338-.888-7.87-5.386-6.736-6.999-4.838-.88-7.862-5.374-6.742-6.994-4.833-.877-7.87-5.379-6.743-6.988-4.841-.898-7.866-5.397-6.74-6.992-4.83-.894-7.87-5.4-6.75-7.004-4.841-.888-7.873-5.379-6.754-7.002-4.845-.875-7.855-5.371-6.743-6.985-4.826-.892-7.88-5.396-6.754-6.991-4.845-.29-3.34-1.656-5.842-3.657-6.194-2.825-.478-5.874 3.466-6.787 8.815-.933 5.36.62 10.086 3.445 10.572zM343.124 534.41c2.007-.352 3.367-2.847 3.653-6.198 1.605 1.909 6.11 3.036 6.99-4.827 1.617 1.91 6.115 3.029 6.996-4.84 1.608 1.909 6.11 3.017 7.005-4.838 1.605 1.902 6.107 3.036 6.995-4.833 1.605 1.901 6.114 3.02 6.99-4.837 1.613 1.894 6.107 3.02 6.999-4.85 1.603 1.91 6.097 3.037 6.995-4.825 1.599 1.905 6.106 3.024 6.998-4.845 1.053 1.027 2.198 1.55 3.336 1.346 2.817-.486 4.37-5.212 3.447-10.572-.923-5.348-3.972-9.293-6.787-8.814-2.01.352-3.373 2.854-3.662 6.194-1.6-1.91-6.107-3.036-6.995 4.844-1.61-1.916-6.105-3.028-6.994 4.827-1.61-1.91-6.115-3.03-6.999 4.844-1.599-1.909-6.1-3.028-6.998 4.841-1.596-1.909-6.101-3.036-6.994 4.83-1.604-1.901-6.098-3.028-6.99 4.841-1.612-1.909-6.11-3.028-6.994 4.834-1.609-1.898-6.103-3.032-7.002 4.837-1.042-1.027-2.204-1.535-3.33-1.338-2.829.485-4.377 5.219-3.454 10.568.92 5.352 3.963 9.289 6.795 8.81z"></path><path d="M647.354 521.14c-17.615-11.095-29.499 49.166-76.899 19.278-52.287-32.975-.999-83.431-25.577-98.948-4.209-2.643-8.284-1.62-9.168-.24-.905 1.437 1.79 3.224 3.927 5.904 9.126 11.51-29.652 67.608 22.993 100.813 45.022 28.39 66.96-10.242 70.665-7.903 3.02 1.89 10.356 9.59 16.488-.112 5.47-8.692 1.807-16.116-2.43-18.793zM420.363 447.134c2.137-2.68 4.835-4.467 3.93-5.905-.883-1.379-4.959-2.402-9.175.241-24.574 15.517 26.711 65.973-25.577 98.948-47.403 29.888-59.287-30.373-76.894-19.278-4.233 2.676-7.903 10.1-2.426 18.793 6.117 9.7 13.46 2.001 16.48.11 3.705-2.338 25.64 36.294 70.652 7.904 52.662-33.206 13.884-89.303 23.01-100.813z"></path></g><path fill="#C8102E" d="M328.478 218.687c-1.08 0-2.113 1.786-2.113 2.437 0 .68 1.694 3.008 2.95 3.008.72 0 1.636-.313 1.636-.982 0-2.582-.076-4.463-2.473-4.463z"></path></svg>