<svg width="100%" height="100%" version="1.1" xmlns="http://www.w3.org/2000/svg" id="team-25-20172018-dark"><path fill="#FFF" d="M585.721 615.5v11.824h-2.957V615.5h-3.422v-2.938h9.802v2.938h-3.423zm16.023 11.824v-8.712l-2.49 5.428h-2.612l-2.49-5.428v8.712h-2.956v-14.761h2.956l3.797 7.883 3.795-7.884h2.956v14.762h-2.956z"></path><path fill="#006341" d="M614.283 388.965c3.416-5.869 6.528-11.81 9.258-17.736l245.915-131.7H610.698c-19.399-20.331-47.452-32.713-81.941-36.208L508.255 0 386.097 202.282h-65.753L298.08 239.53H90.544l140.107 112.874-86.983 145.581h63.83L121.716 640l265.186-142.03a549.563 549.563 0 0 0 23.562-.678l160.97 129.704-17.27-171.498c24.06-16.693 43.775-38.534 60.118-66.533z"></path><path fill="#010101" d="M613.166 361.568l202.791-108.61h-211.25c-19.008-22.671-49.34-35.4-88.171-37.062L498.935 41.4 393.678 215.698h-65.725l-22.248 37.26h-177.1l119.563 96.312-80.838 135.27h63.957l-72.782 120.524L383.523 484.54a533.835 533.835 0 0 0 31.35-.927l139.993 112.775-14.865-147.61c25.38-16.04 45.917-37.856 62.678-66.575 4.002-6.858 7.531-13.782 10.487-20.635z"></path><g fill="#8D9093"><path d="M595.7 292.278s-2.038-6.647-5.002-12.474l-41.214 20.133c2.68 7.001 6.52 23.734-3.713 48.604-11.675 28.324-46.434 78.42-141.238 78.42H277.332l-62.664 30.725h112.28l-14.384 3.89-80.498 73.626 144.725-77.516h6.038c14.568 0 28.083-.555 40.657-1.633l25.465-3.073c4.929-.8 9.682-1.7 14.292-2.682 47.311-10.104 77.82-30.204 100.06-57.911 5.918-7.383 11.272-15.295 16.18-23.718 6.909-11.86 11.782-23.197 14.809-33.903 4.434-15.735 4.815-30.083 1.407-42.488zM302.705 310.32l-97.958-30.509-.007-.007 78.447 63.2zM452.254 242.556h39.977l-11.938-118.34zM604.7 305.842a71.34 71.34 0 0 1 2.631 5.757c.164.403.298.82.453 1.223a73.68 73.68 0 0 1 1.62 4.631c.17.58.325 1.154.502 1.734a94.322 94.322 0 0 1 1.16 4.688c.106.523.233 1.033.34 1.563.423 2.128.763 4.3 1.046 6.555l.007-.006 62.691-33.903 33.783-18.28L604.7 305.842zM513.15 452.73c-2.865.307-5.714.54-8.544.73-.205.013-.417.028-.622.036-2.744.19-5.48.318-8.168.414-.234.017-.46.023-.693.028-2.723.094-5.395.15-8.012.17h-.347c-2.688.017-5.324.009-7.87-.028v.008l42.819 81.114-8.563-82.471z"></path><path d="M486.99 271.374H370.42l-.227-.114-92.86 155.7 62.84-30.692 35.855-58.547 10.976-17.919-8.12-6.535-16.222-13.075-.007-.007h97.259c1.846 0 3.62.021 5.367.071.141 0 .276.007.402.013 1.55.042 3.07.106 4.548.191.474.029.92.064 1.407.1 1.096.07 2.179.141 3.24.24.607.057 1.194.134 1.795.19.856.1 1.725.199 2.567.298.665.092 1.309.198 1.96.296.72.107 1.428.22 2.107.347.693.12 1.344.254 2.002.396.615.128 1.209.255 1.789.39.686.161 1.344.346 1.98.523.509.141 1.032.282 1.513.43.672.213 1.308.424 1.93.652.431.155.863.311 1.273.473.637.255 1.252.503 1.853.778l1.069.502a39.549 39.549 0 0 1 2.622 1.471c.553.353 1.09.708 1.613 1.089.248.177.48.362.715.544.523.411 1.01.828 1.484 1.273.191.177.361.362.546.546.473.48.933.961 1.342 1.477.142.163.262.333.39.502.43.553.84 1.118 1.21 1.726.07.12.148.261.219.389.388.665.755 1.337 1.067 2.044.029.057.036.12.071.177.339.784.637 1.598.89 2.454l.007-.007 40.593-19.823c-11.124-25.712-42.727-28.563-62.493-28.563z"></path></g><g fill="#FFF"><path d="M423.486 456.062l98.227 79.14-42.82-81.113c-12.686-.179-23.387-.922-29.942-1.109l-25.466 3.073M269.54 473.183l-37.474 62.02 80.498-73.627M340.172 396.268l-62.84 30.692h127.201c94.804 0 129.564-50.095 141.238-78.419 10.233-24.87 6.393-41.603 3.713-48.604L508.89 319.76c.234.792.447 1.583.616 2.44 3.593 18.874-11.838 45.854-37.962 61.134-20.642 12.072-45.478 12.934-66.934 12.934h-64.44"></path><path d="M370.192 271.26l.227.114h116.572c19.766 0 51.37 2.85 62.493 28.563l41.214-20.133c2.964 5.828 5.001 12.474 5.001 12.474 3.62 4.427 6.576 8.918 9.002 13.564l104.232-26.038H590.698c-12.673-23.274-41.447-37.248-82.881-37.248h-55.563l28.039-118.34v-.007l-71.475 118.347H343.2l-22.262 37.248h-116.19v.007l97.958 30.508-19.518 32.685-68.519 114.682 62.664-30.726 92.86-155.7z"></path></g></svg>
