<svg width="100%" height="100%" version="1.1" xmlns="http://www.w3.org/2000/svg" id="team-18-20172018-dark"><path fill="#FFB81C" d="M575.96 548.173v11.824h-2.956v-11.824h-3.423v-2.938h9.802v2.938h-3.422zm16.023 11.824v-8.712l-2.49 5.427h-2.611l-2.49-5.427v8.712h-2.956v-14.762h2.955l3.797 7.884 3.795-7.884h2.957v14.762h-2.957zM871.345 268.578a10.196 10.196 0 0 0-5.022-5.335l-43.592-21.054-13.444-10.336-19.58-24.287-6.447-28.953a10.218 10.218 0 0 0-4.928-6.669l-30.633-17.408-19.269-19.356a10.217 10.217 0 0 0-3.174-2.164L605.305 80.853a10.248 10.248 0 0 0-6.074-.655L435.77 112.847c-44.504-3.475-83.506 2.11-85.155 2.343-10.03 1.667-10.083 12.499-6.596 15.981L99.354 180.052a10.223 10.223 0 0 0-6.125 3.829L67.337 217.92c-4.6 6.051-1.134 15.29 6.828 16.326 1.792.234 178.755 24.463 178.755 131.809 0 39.525-27.13 78.39-27.408 78.781-3.922 5.563-1.54 14.502 6.53 15.96L332 478.842c7.573 6.054 33.009 23.924 70.019 23.924 43.827 0 56.235-16.578 59.08-30.166 21.727-9.247 49.041-31.155 49.041-48.838 0-11.007-9.903-18.403-19.159-18.403-1.052 0-2 .381-3.008.549 0 0-4.668-8.63-15.954-8.63-4.824 0-10.071 2.419-14.16 4.158 10.019-11.507 26.578-25.234 53.063-33.997 40.852-13.55 94.104-25.03 120.779-30.401C591.153 454.868 452.298 516.76 450.835 517.39c-8.264 3.594-6.77 14.062-3.366 16.235l-15.189 6.795c-10.794 4.76-6.196 20.484 4.99 19.535 146.551-12.461 254.326-63.766 329.379-156.505h30.192c1.75 0 3.458-.452 4.987-1.279 29.528-16.504 49.357-15.826 49.55-15.814 4.065.173 7.927-2.058 9.71-5.69 14.634-29.748 30.394-45.512 30.544-45.653 2.178-2.189 4.279-6.292 2.3-11.162l-22.587-55.275z"></path><path fill="#041E42" d="M817.333 250.934l-15.24-11.718-21.85-27.091-6.96-31.293-31.851-18.1-20.235-20.338L601.234 90.22l-164.747 32.903c-44.505-3.677-84.385 2.183-84.385 2.183l13.849 11.914-264.591 52.85-25.888 34.041s187.67 24.211 187.67 141.943c0 43.407-29.289 84.68-29.289 84.68l102.57 18.507s25.514 23.288 65.596 23.288c46.633 0 49.633-19.54 49.633-27.153 20.502-6.625 48.272-29.154 48.272-41.616 0-4.994-5.199-8.174-8.94-8.174-3.101 0-7.295 2.453-10.709 3.925 1.951-4.352-.846-12.009-8.259-12.009-6.21 0-16.72 8.805-37.097 10.699 0 0 15.593-41.537 72.785-60.481 57.789-19.14 138.97-34.034 138.97-34.034-34.386 134.825-191.76 203.086-191.76 203.086l58.069-13.073c-26.917 14.21-76.584 36.076-76.584 36.076 146.384-12.459 252.915-62.845 327.679-159.305l5.086 2.75h27.679c33.041-18.42 55.086-17.073 55.086-17.073 15.7-31.937 32.534-48.426 32.534-48.426l-22.58-55.272-44.55-21.515z"></path><g fill="#FFF"><path d="M213.826 249.525a230.795 230.795 0 0 1 16.289 10.806 717.661 717.661 0 0 1 16.832-5.388c9.89-37.82 30.152-62.91 30.152-62.91-41.994 15.697-59.798 49.976-63.273 57.493M388.014 163.21s16.789 28.571 46.705 28.571l31.076-2.144 25.528-26.675 34.862-5.364c-12.92-7.83-27.494-13.468-42.355-17.474l-29.146 40.703 18.523-43.292a268.838 268.838 0 0 0-16.148-2.996l-25.115 34.996 15.54-36.314a327.77 327.77 0 0 0-19.027-1.75l-19.21 26.78 11.623-27.177c-27.122-1.14-46.926 1.057-46.926 1.057l6.674 5.758 7.397 25.321zM427.285 431.415c3.668 16.578 14.75 21.262 15.813 27.462 0 0 28.8-5.923 47.921-34.386-37.245 18.742-63.734 6.924-63.734 6.924M764.326 362.702c0-16.24-26.876-31.813-39.537-31.813-52.163 0-51.447 110.804-235.345 204.688 156.62-22.629 274.882-129.163 274.882-172.875"></path><path d="M400.237 201.052l-.439 4.642c-11.642 2.354-29.903 9.844-47.327 23.513l86.708-12.307 7.435-17.401c-46.108 6.765-66.89-32.465-66.89-32.465l-3.529-11.977-267.604 59.88c28.872 1.996 60.703 11.179 89.699 25.964 6.914-23.099 24.063-41.011 24.063-41.011l146.994-32.897s5.818 18.9 30.89 34.06z"></path><path d="M796.307 290.837l22.873-8.061s27.099 17.154 39.215-4.837l-41.402-19.487c-11.585 6.706-22.948 10.216-33.462 11.73v.003c-31.049 4.455-54.685-8.585-54.685-8.585-25.745 0-43.324 4.14-58.412 11.669h-.004c-12.298 6.14-22.94 14.532-34.987 24.796l36.159-39.78 5.612-33.044-103.25-11.744c6.605 23.459 23.075 36.277 23.075 36.277l-19.431 21.37-22.904 25.198c-8.545-2.586-17.565-4.036-26.914-4.25-.548-12.744 4.455-27.244 15.669-41.158-14.845 11.193-23.811 25.549-25.685 41.457-6.53.503-12.9 1.646-19.042 3.342-3.214-10.596-2.86-23.645 2.032-37.831-8.646 13.181-12.207 27.148-10.422 40.538a100.795 100.795 0 0 0-17.575 8.66c-5.404-8.226-8.713-19.197-8.959-32.275-3.122 13.398-2.255 25.896 2.476 36.64-19.579 14.59-28.403 32.256-28.403 32.256-62.206-11.211-99.858 40.836-101.181 77.362-3.946-25.346 4.162-70.17 54.258-91.502l16.627-38.863a25.807 25.807 0 0 1 4.028-6.596l.009-.002c3.912-4.676 9.616-7.943 17.868-10.085 40.102-10.411 81.075-33.024 102.724-61.62l-58.37 1.725c-26.277 19.83-37.445 46.766-37.445 46.766l-17.796 4.162 20.58-48.168-86.71 12.308c-24.768 19.42-47.857 51.32-47.857 98.723 0 23.675 7.826 43.055 7.886 43.203l.001.007s-9.817-13.348-15.615-36.087l-.001.002a133.858 133.858 0 0 1-4.164-33.187c0-23.328 6.721-45.509 14.304-63.11v-.003c9.812-22.78 21.066-37.896 21.066-37.896s-32.088 13.001-54.14 46.266l-.004.001c-6.856 10.343-12.738 22.646-16.385 37.12 15.896 16.825 27.722 36.106 33.05 57.183 2.038 8.044 3.13 16.363 3.13 24.91 0 40.726-17.024 66.349-17.024 66.349l56.978 11.559s21.543 31.356 67.808 31.356c14.632 0 33.86-1.62 33.86-10.955 0-7.05-17.315-16.617-17.315-37.041 0-33.148 41.643-67.56 86.328-82.284 52.216-17.2 131.984-37.233 172.112-37.233 113.815 0 110.062 75.137 110.062 75.137l5.523-.256c25.332-14.24 47.76-16.952 54.3-17.448 1.249-.105 1.917-.115 1.917-.115s11.232-20.963 24.26-36.165c0 0-16.907-35.457-76.246-38.407z"></path><path d="M473.84 214.14l58.37-1.728c9.797-12.938 15.633-27.098 15.633-41.912 0-25.549-13.086-40.513-13.086-40.513l63.325-14.042 19.694 9.663s-46.533 17.878-46.533 68.323c0 7.173 1.06 13.689 2.721 19.565l103.25 11.742s11.364 27.6 42.67 27.6c15.149 0 26.73-8.397 26.73-8.397 33.938 25.652 65.027 11.493 65.027 11.493l-11.636-9.655-11.113 5.91 6.909-10.365-4.247-4.827-15.008 7.742 9.396-14.25-3.261-3.764-12.67 5.577 7.26-12.365-5.106-7.843c-4.762 20.895-23.395 23.397-39.408 22.138l-.832-9.241a22.535 22.535 0 0 1-11.985 3.435c-12.499 0-22.623-10.131-22.623-22.613 0-7.157-35.255-38.684-35.255-38.684l45.622 14.087c38.228 11.814 36.56 30.778 36.993 41.063 6.44 2.838 20.938 4.917 27.488-10.185l-4.824-25.105-30.368-14.726-20.857-19.516L599.3 105.524 484.32 131.03c27.087 6.523 49.51 20.665 49.51 20.665s8.611 19.808-2.605 41.86c-24.094 1.013-42.996 9.732-57.385 20.585zm286.238-16.745l-5.679 21.968c0-16.627-9.84-26.166-38.94-43.294l44.619 21.326z"></path></g><g fill="#FFB81C"><path d="M819.18 282.776s-15.65-7.12-35.648-12.59c-31.05 4.454-54.686-8.586-54.686-8.586-25.745 0-43.324 4.14-58.412 11.669 166.09 14.604 186.911 51.427 175.935 92.255 1.253-.105 1.924-.115 1.924-.115s11.232-20.963 24.26-36.165c0 0-16.907-35.457-76.246-38.407l22.874-8.061zM307.027 238.759a977.538 977.538 0 0 0-33.078 8.368c-6.856 10.343-12.738 22.646-16.386 37.12 15.897 16.825 27.723 36.106 33.05 57.183a118.251 118.251 0 0 1 6.275-6.365 133.915 133.915 0 0 1-4.165-33.196c0-23.328 6.721-45.509 14.304-63.11M677.214 225.241c-35.166-6.376-69.765-10.07-103.25-11.743 6.605 23.458 23.075 36.276 23.075 36.276l-19.431 21.37c35.084-.662 71.719.82 71.719.82l-13.884 26.101 36.159-39.78 5.612-33.044zM436.399 260.905l-17.796 4.162 20.58-48.167c-31.332 3.05-60.463 7.411-86.71 12.308-24.768 19.42-47.857 51.32-47.857 98.723 0 23.766 7.888 43.21 7.888 43.21-6.434-27.527 8.613-54.474 8.613-54.474s34.634-22.124 90.505-32.547c3.912-4.676 9.616-7.944 17.868-10.085 40.102-10.411 81.075-33.025 102.723-61.62-20.01-.04-39.516.574-58.369 1.725-26.277 19.83-37.445 46.765-37.445 46.765M243.583 270.951a167.208 167.208 0 0 1 3.364-16.008 753.588 753.588 0 0 0-16.83 5.383 211.697 211.697 0 0 1 13.466 10.625M723.056 221.448c4.756 0 8.27-2.238 8.27-2.238a55.7 55.7 0 0 0-1.099-4.804c-1.16.73-2.815 1.46-4.77 1.46-5.144 0-8.321-3.952-8.321-8.311 0-3.705 2.542-7.054 6.173-8-4.55-6.433-9.1-9.148-9.1-9.148s-7.94 4.44-7.94 14.23c0 9.796 8.224 16.81 16.787 16.81"></path></g></svg>
