<svg id="team-55-light" viewBox="0 0 346.97 435.66" xmlns="http://www.w3.org/2000/svg"><path fill="#001425" d="M114.52 424.92c84.88 7.42 138.72 31.36 164.92 80.91 89.72-14.54 172.71-72.09 172.71-146.26 0-98.82-119.73-114.35-122.92-143.14 50.36 18.25 105.8-1 132.25-63.79-78.23-5.78-135.5-34.33-160.25-82.47-96 17.09-172.71 79.18-172.71 146.26 0 98 125.92 123.91 140 144.7-68.7-26.06-127.97 3.64-154 63.79z" transform="translate(-114.52 -70.17)"></path><path fill="#96d8d8" d="M263.42 211.36c-10.74-10.91-15.22-19.45-15.22-30.73 0-12.9 6.22-19.21 6.22-26.45 0-6.21-3.9-11.08-11.37-12.56 4.44-4.78 10.45-7.66 16-7.66 32 0 41.48 70.77 108.29 68.23 23.82-2.28 46.32-13.86 60.46-34.16-58.35-7.57-111.61-32.37-137.64-74.51-27 4.91-140.22 44-137.35 125.64C155.83 304.32 281.76 328 317 364.55c27.77 28.83 8.21 57.89-9.7 68.46-27.66-71.94-118.55-77.01-154.74-25.13 58.35 7.57 111.62 32.37 137.64 74.52 64.36-13.51 95.41-69.94 83.6-110.65-19.56-67.37-146.56-79.22-180.24-142.33-18-35.5-3.2-73.41 29.71-95.47-12.91 16.65-19.1 35.84-18.82 53.8 2.92 3.18 4.17 10.64 4.19 10.79.43 2.61 1.19 8.11-.17 11.48a60 60 0 005.53 10.84c4.41 1.1 9.36 6.85 9.46 7 4.85 5.58 5.6 9.09 5.73 10.43 3 2.67 6.2 5.25 9.6 7.76 2.84-.34 7.15 1 11.55 3.83 5.06 3.32 7.58 6.59 8.3 9.06q5.28 3.08 10.83 6.05c2.83-.77 7.48.13 12.16 2.52s8.15 5.7 9.16 8.46l11.19 5.56c2.83-.82 7.53 0 12.25 2.4s8 5.59 9.08 8.33c3.82 2 7.61 4 11.34 6 3.48-.7 9 1.41 12 3.2 4.46 2.67 7.52 6.13 8.43 8.93q5.66 3.67 10.92 7.57c2.95-.13 7.3 1.56 11.36 5 4.37 3.81 6.62 8 6.71 10.91a95.73 95.73 0 018.29 10.13c3.58.9 7.19 5 9.2 9.19 2.78 6.07 2.42 10.34 1.6 12.55 4.83 15.07 6.13 34-1.64 55.88-.08.23-.18.5-.29.78 16.25-17.7 27.24-39.48 26.33-65.64-2.99-85.16-128.92-108.83-164.14-145.4z" transform="translate(-114.52 -70.17)"></path><path fill="#c8102e" d="M311.74 220.3c-14.39-16.55-23.58-45.89-39.44-57.36-7.12 25.27 7.7 52.9 39.44 57.36z" transform="translate(-114.52 -70.17)"></path><path fill="#639fb6" d="M300.35 457.75a190.42 190.42 0 01-10.15 24.65c-26-42.15-79.29-66.95-137.64-74.52 60.29-30.23 122.71 1.57 147.79 49.87zM427.84 168c-60.29 30.23-122.71-1.57-147.79-49.86a190.42 190.42 0 0110.15-24.62c-25.49 4.64-140.2 43.29-137.35 125.64C155.83 304.32 281.76 328 317 364.55c27.77 28.83 8.21 57.89-9.7 68.46a229.58 229.58 0 01-6.94 24.74c13.12-2.29 52.88-23.34 53.14-63.85.36-55.83-71.8-70.62-126.49-104.51-45-27.89-53.76-55.56-56.05-73.08-5.37-41.21 23.71-78.84 66-96.59A86.28 86.28 0 00223.27 134c-12.91 16.65-19.1 35.84-18.82 53.8 2.92 3.18 4.17 10.64 4.19 10.79.43 2.61 1.19 8.11-.17 11.48a60 60 0 005.53 10.79c4.41 1.1 9.36 6.85 9.46 7 4.85 5.58 5.6 9.09 5.73 10.43 3 2.67 6.2 5.25 9.6 7.76 2.84-.34 7.15 1 11.55 3.83 5.06 3.32 7.58 6.59 8.3 9.06q5.28 3.08 10.83 6.05c2.83-.77 7.48.13 12.16 2.52s8.15 5.7 9.16 8.46l11.19 5.56c2.83-.82 7.53 0 12.25 2.4s8 5.59 9.08 8.33c3.82 2 7.61 4 11.34 6 3.48-.7 9 1.41 12 3.2 4.46 2.67 7.52 6.13 8.43 8.93q5.66 3.67 10.92 7.57c2.95-.13 7.3 1.56 11.36 5 4.37 3.81 6.62 8 6.71 10.91a95.73 95.73 0 018.29 10.13c3.58.9 7.19 5 9.2 9.19 2.78 6.07 2.42 10.34 1.6 12.55 4.83 15.07 6.13 34-1.64 55.88 20.78-35.2 18.78-70.15-4.44-99.7-48.53-61.76-170.63-69.14-170.17-139.92.11-16.83 7.13-30.23 16.14-40.39 4.44-4.78 10.45-7.66 16-7.66 32 0 41.48 70.77 108.29 68.23 23.82-2.28 46.32-13.86 60.46-34.16z" transform="translate(-114.52 -70.17)"></path><path fill="#96d8d8" d="M386.44 487.09v-9.19H383V476h9v1.92h-3.34v9.19zm6.93 0V476h3.52l2 7.65 2-7.65h3.51v11.11h-2.14v-8.86l-2.41 8.86h-2l-2.39-8.86v8.86z" transform="translate(-114.52 -70.17)"></path></svg>