<svg width="100%" height="100%" version="1.1" xmlns="http://www.w3.org/2000/svg" id="team-23-20172018-light"><path fill="#00205B" d="M726.057 540.938c-8.282 0-15.005 6.713-15.005 15 0 8.278 6.723 15.002 15.005 15.002s14.995-6.723 14.995-15.001c0-8.288-6.713-15.001-14.995-15.001zm0 26.783a11.772 11.772 0 0 1-11.782-11.782c0-6.51 5.264-11.775 11.782-11.775 6.51 0 11.78 5.265 11.78 11.775 0 6.512-5.27 11.782-11.78 11.782zm6.164-15.26a5.085 5.085 0 0 0-5.09-5.082h-7.228v17.123h3.213v-6.954h2.306l3.246 6.954h3.553l-3.389-7.251a5.096 5.096 0 0 0 3.389-4.79zm-5.09 1.872h-4.015v-3.747h4.015c1.032 0 1.877.84 1.877 1.876a1.878 1.878 0 0 1-1.877 1.871z"></path><path fill="#97999B" d="M474.132 456.399l106.5-53.128c72.93 20.465 94.54 48.128 94.54 48.128l41.73-47.2c2.268-2.402 9.15-10.95 9.15-26.44 0-16.745-17.484-29.727-29.738-38.506-20.759-54.53-135.684-70.29-144.184-89.27-2.918-6.551-19.693-63.243-19.693-63.243-9.992-29.366-39.548-29.366-50.676-29.366-11.183 0-35.138 3.784-35.138 3.784 0 40.883-5.55 90.736-11.333 99.836 0 0-20.76 10.88-45.107 19.678l-58.12-39.208 15.255 52.772C249.23 348.146 225.35 442.085 225.35 442.085S250.543 640 498.651 640c131.179 0 206.916-63.43 206.916-63.43l-42.26-94.492s-64.564 33.572-147.026 33.572c-76.039 0-105.772-35.464-116.631-56.112 64.389 1.919 74.482-3.139 74.482-3.139z"></path><g fill="#00205B"><path d="M329.971 143.718L309.197 74.5l47.106 61.321 14.983-4.493L336.97 16.972l-16.614 4.985 20.35 67.81L294 29.863l-14.961 4.491 34.318 114.35zM385.018 117.243c.955 6.982 5.21 10.337 12.01 9.407l36.866-5.044c6.96-.95 10.304-5.35 9.35-12.31l-4.003-29.28-17.654 2.41 3.42 24.932-22.917 3.147-12.037-87.945 22.917-3.141 3.204 23.378 17.645-2.41-3.795-27.715c-.962-6.96-5.365-10.322-12.314-9.356L380.843 8.36c-6.812.921-9.992 5.3-9.044 12.289l13.22 96.594zM470.45 119.368l38.752.707c6.89.129 10.853-3.697 10.982-10.752l1.791-97.465c.12-7.04-3.69-11.017-10.586-11.14L472.646.004c-6.88-.128-10.7 3.706-10.824 10.753l-1.792 97.488c-.126 7.038 3.548 10.996 10.42 11.124zm9.097-103.928l24.537.46-1.631 88.745-24.529-.45 1.623-88.755zM547.077 123.796l37.374 6.681c6.925 1.23 11.468-1.917 12.702-8.841l19.06-106.774-17.541-3.134-18.29 102.46-23.701-4.22 18.288-102.46-17.54-3.14-19.054 106.78c-1.23 6.91 1.789 11.424 8.702 12.648zM704.705 115.204l24.272 11.525 6.631-13.956-24.27-11.54 14.96-31.468 28.227 13.392 6.779-14.25-44.327-21.054-51.226 107.84 44.738 21.26 6.775-14.256-28.65-13.614zM826.694 109.073l-39.516-26.067-65.776 99.628 14.872 9.814 29.444-44.602 4.767 3.141-13.598 55.067 15.52 10.237.336-.508 13.015-55.454 5.08 3.355c5.844 3.662 11.034 2.597 14.9-3.27l23.932-36.267c3.871-5.86 2.9-11.183-2.976-15.074zm-35.105 40.432l-18.786-12.39 20.795-31.532 18.8 12.412-20.81 31.51zM697.108 39.806l.104-.308-16.94-5.493-39.419 76.32 13.105-84.87-17.09-5.543-.092.294-15.119 120.293 17.003 5.516zM242.822 181.296l15.94-7.676-6.524-21.797 20.144-9.693 12.958 18.728 15.945-7.654-.063-.13L228.87 55.53l-16.911 8.126 30.803 117.505.06.136zm20.679-51.892l-15.784 7.59-15.46-52.386 31.244 44.796zM181.328 79.207l-14.976 9.672 34.258 78.752-57.5-63.759-15.097 9.745.164.256 83.7 87.71 15.027-9.7-45.407-112.396z"></path></g><path fill="#00205B" d="M334.693 419.522l3.683 7.99-22.133 8-19.06 12.511 38.732 7.158-7.99 27.67 16.597-4.912 15.984 40.581 19.065-2.454 6.363 28.484s35.9 24.91 96.737 30.339c80.345 7.155 152.266-20.258 152.266-20.258s-85.76 33.659-163.75 25.368c-59.54-6.311-98.38-30.527-98.38-30.527l-.49-25.702-23.486.285-11.07-39.357-20.906 9.837 9.225-35.24-40.178-4.928 8.202-24.593 9.564-19.173-12.841.315 53.695-39.958-23.36-9.23 38.122-7.366-13.256-26.776 23.488 13.385 9.347-29.217c-28.269 9.843-89.012 41.004-124.189 132.84 4.251 21.06 41.05 166.857 243.977 166.857 87.592 0 151.573-33.199 171.228-44.795l-20.97-46.912c-19.405 7.503-70.138 24.45-132.628 24.45-123.3 0-154.304-84.454-154.304-116.23 0-7.052.46-12.97 1.073-17.834l-28.357 9.392z"></path><path fill="#00205B" d="M686.879 346.19c-20.262-54.766-132.044-64.745-144.402-90.59-4.957-10.337-11.303-35.103-20.584-65.277-7.425-21.804-29.228-21.804-40.132-21.804-10.435 0-23.996 2.146-23.996 2.146 0 22.32-4.202 87.095-14.586 98.318-2.539 3.213-21.586 10.902-42.328 18.893l6.203 4.179-6.323 6.337-11.932 11.974-13.116 40.984-17.059-8.886 6.084 15.174-30.481 5.029 17.244 5.944-49.628 38.13 13.402 1.042-17.675 31.955c25.506-11.531 33.253-13.771 33.253-13.771l-7.316-7.574 51.403-20.68s-3.893 10.307-3.893 30.25c0 2.87.444 7.074 1.442 12.032 6.336 31.062 36.645 95.15 143.822 95.15 77.495 0 137.302-27.098 137.302-27.098l27.77 62.115s-72.74 50.36-182.702 50.36c-224.803 0-253.338-176.79-253.338-176.79 31.013-82.903 83.187-119.257 116.366-134.61l-10.387-1.158-.89-3.07c-87.763 48.43-113.688 137.993-113.688 137.993s26.654 185.984 261.937 185.984c120.355 0 193.153-55.797 193.153-55.797l-34.018-76.107s-63.591 29.822-141.505 29.822c-116.04 0-133.224-79.175-133.224-79.175s66.096 3.958 87.209-1.717l109.21-54.55c74.003 20.887 95.345 43.47 95.345 43.47l33.86-38.137s6.236-5.801 6.236-18.92c0-12.275-18.327-24.573-28.038-31.57z"></path><path fill="#041C2C" d="M679.947 351.515c-18.634-53.674-121.267-57.445-144.345-91.158-6.405-9.343-17.024-69.283-27.67-77.48-11.738-9.022-41.819-4.915-41.819-4.915 0 8.283-2.039 81.837-17.217 97.152-10.295 8.642-27.553 12.405-48.165 23.277l-11.932 11.975-13.116 40.983-17.059-8.885 6.084 15.174-30.481 5.029 17.244 5.944-49.628 38.13 13.402 1.042-17.676 31.955c25.506-11.532 33.254-13.772 33.254-13.772l-7.316-7.574 51.403-20.68s-3.893 10.308-3.893 30.25c0 2.87.444 7.075 1.442 12.032 2.204-4.204 42.672-78.837 129.312-83.924l-36.28 28.036-71.94 55.59s59.257 2.525 73.786-1.633c45.793-21.317 82.462-41.224 111.223-55.632 27.583-13.807 47.914-22.534 61.996-22.534 17.408 0 41.53 16.81 62.11 31.004 0 0 1.256-1.094 2.375-3.318.912-1.805 1.75-4.35 1.75-7.69 0-11.026-14.536-18.499-26.844-28.378z"></path><g fill="#FFF"><path d="M500.239 258.825c-4.248-5.35-9.227-58.722-9.227-58.722s-.858 54.495-4 59.337c-3.14 4.836-18.744 13.829-18.744 13.829s17.306-5.638 25.824-6.153c6.244-.371 26.127 3.698 26.127 3.698s-15.728-6.645-19.98-11.989zM372.459 439.994c2.16-2.188 46.527-46.36 93.033-55.888l36.28-28.036c-86.641 5.087-127.108 79.72-129.313 83.924zM706.79 379.892c0-11.025-14.535-18.498-26.842-28.377-48.62-5.467-61.919-17.183-61.919-24.644 0-2.941 2.487-3.63 4.832-3.63 11.056 0 25.578 7.815 33.894 16.714-4.825-12.733-34.025-27.729-52.947-27.729-3.558 0-8.82 1.117-8.82 6.833 0 11.951 18.012 27.138 64.357 30.901 24.84 5.876 50.626 19.758 45.696 37.623.912-1.805 1.75-4.35 1.75-7.69zM615.619 379.792l18.034 6.402c3.343-1.451 6.924-3.182 7.236-3.633.232-.51.218-.902-.537-1.568-.55-.493-8.616-3.513-13.645-5.344l-11.088 4.143zM630.817 374.085c4.803 1.922 11.474 4.584 11.992 4.678.766.15 2.012.208 2.788 0 .57-.153 4.535-2.14 7.43-3.63-2.824-1.386-8.455-3.983-12.224-3.983-3.644 0-9.986 2.935-9.986 2.935zM648.655 380.298c-.143.416-.026.653.6 1.124.687.51 10.046 5.337 10.791 5.45.744.088 1.388.101 2.129-.097.514-.117 3.744-2.21 5.98-3.72l-12.483-6.698c-3.252 1.588-6.714 3.477-7.017 3.941zM657.556 390.23c.215-.445.309-.773.187-1.202-.612-.695-9.894-5.516-10.892-5.652-1.044-.16-1.664-.16-2.58.28-.807.37-5.54 3.002-7.22 3.953l14.529 6.604c2.725-1.695 5.694-3.627 5.976-3.984zM675.337 395.33c.343.077 1.284-.137 2.296-.517.504-.191 2.639-1.931 4.095-3.162l-11.173-7.139c-2.686 1.711-5.519 3.643-5.827 4.023-.012.107.05.37.633 1.2l9.976 5.595zM679.975 396.476c-.328.649-.375.892-.22 1.077.353.387 6.166 4.244 10.125 6.847l4.527-4.5-10.322-6.687c-1.906 1.357-3.923 2.918-4.11 3.262zM673.57 398.378c.214-.36.089-.86-.327-1.282-.568-.523-9.528-5.373-10.2-5.5-.734-.143-2.117.055-2.832.27-.408.117-3.02 1.931-5.46 3.7l13.697 6.38c2.378-1.53 4.9-3.263 5.122-3.568zM675.948 400.18c-.369.13-2.947 2.08-4.878 3.62l12.397 7.661 4.627-5.064c-3.766-2.598-9.238-6.33-9.71-6.519-.44-.137-1.807.081-2.436.302z"></path><path d="M578.56 382.431c66.82 17.772 95.307 40.912 95.307 40.912l7.118-8.006c-3.338-2.467-27.964-19.449-76.194-35.26 14.355-5.677 31.748-12.388 36.449-12.388 10.658 0 32.565 13.833 56.061 29.25l5.365-6.038c-20.58-14.193-44.702-31.003-62.11-31.003-14.081 0-34.412 8.726-61.996 22.533z"></path></g><g fill="#97999B"><path d="M421.387 343.415l-27.875 15.583 55.42 7.454-27.545-23.037zM385.432 387.015l4.853-34.377-64.348 43.305 59.495-8.928zM439.68 291.76l-46.525 26.032 12.097 28.909 34.428-54.94z"></path></g><g fill="#00205B"><path d="M385.15 360.372l-43.562 29.526 39.463-6.149zM439.11 361.894l-21.212-12.382-14.964 7.99zM404.211 337.22l25.426-34.436-29.464 16.604zM397.805 294.515l-56.606-39.094 16.217 47.678 28.761 7.076z"></path></g></svg>
