<?xml version="1.0" encoding="UTF-8" standalone="no"?>
<!-- Created with Inkscape (http://www.inkscape.org/) -->

<svg
   xmlns:dc="http://purl.org/dc/elements/1.1/"
   xmlns:cc="http://creativecommons.org/ns#"
   xmlns:rdf="http://www.w3.org/1999/02/22-rdf-syntax-ns#"
   xmlns:svg="http://www.w3.org/2000/svg"
   xmlns="http://www.w3.org/2000/svg"
   xmlns:sodipodi="http://sodipodi.sourceforge.net/DTD/sodipodi-0.dtd"
   xmlns:inkscape="http://www.inkscape.org/namespaces/inkscape"
   width="50"
   height="50"
   viewBox="0 0 13.229166 13.229167"
   version="1.1"
   id="svg8"
   inkscape:version="0.92.2 (5c3e80d, 2017-08-06)"
   sodipodi:docname="alt.svg">
  <defs
     id="defs2" />
  <sodipodi:namedview
     id="base"
     pagecolor="#ffffff"
     bordercolor="#666666"
     borderopacity="1.0"
     inkscape:pageopacity="0.0"
     inkscape:pageshadow="2"
     inkscape:zoom="10.24"
     inkscape:cx="20.878675"
     inkscape:cy="27.126705"
     inkscape:document-units="mm"
     inkscape:current-layer="layer1"
     showgrid="false"
     fit-margin-top="0"
     fit-margin-left="0"
     fit-margin-right="0"
     fit-margin-bottom="0"
     inkscape:window-width="1680"
     inkscape:window-height="987"
     inkscape:window-x="2792"
     inkscape:window-y="32"
     inkscape:window-maximized="1"
     units="px" />
  <metadata
     id="metadata5">
    <rdf:RDF>
      <cc:Work
         rdf:about="">
        <dc:format>image/svg+xml</dc:format>
        <dc:type
           rdf:resource="http://purl.org/dc/dcmitype/StillImage" />
        <dc:title></dc:title>
      </cc:Work>
    </rdf:RDF>
  </metadata>
  <g
     inkscape:label="Layer 1"
     inkscape:groupmode="layer"
     id="layer1"
     transform="translate(-178.36582,-147.00303)">
    <path
       style="fill:#231f20;stroke-width:0.61165643"
       inkscape:connector-curvature="0"
       d="m 191.01788,156.36394 c -2.34348,5.16265 -9.67436,5.16785 -12.02517,0.009 l -6.3e-4,6.3e-4 c -1.11313,-2.37082 -0.19445,-5.01191 -0.19445,-5.01191 v 0 c 2.11551,-5.78038 10.29206,-5.77959 12.4099,0 h 6.2e-4 c 0,0 0.82764,2.15236 -0.19017,5.00275 z"
       id="path31283"
       sodipodi:nodetypes="cccccccc" />
    <path
       style="fill:#ffffff;stroke-width:0.61165643"
       inkscape:connector-curvature="0"
       d="m 185.04556,147.58765 a 6.0448422,6.0448422 0 1 0 6.00278,6.08595 6.044567,6.044567 0 0 0 -6.00278,-6.08595"
       id="path31285" />
    <path
       style="fill:#231f20;stroke-width:0.61165643"
       inkscape:connector-curvature="0"
       d="m 188.43732,151.19018 2.22763,2.00009 c 0.0134,0.15829 0.0214,0.3187 0.0169,0.48079 a 5.6796953,5.6796953 0 1 1 -11.35912,-0.0784 c 6.4e-4,-0.16507 0.009,-0.32888 0.0254,-0.49056 l 2.25457,-1.91202 0.97562,0.81658 2.44049,-2.63198 2.44111,2.63198 z m -5.90618,3.71704 0.54987,-0.95479 1.21967,0.30592 -2.65827,-2.5011 z m 4.59049,1.41538 0.46486,-1.88455 2.04415,0.964 -4.56417,-5.29022 z"
       id="path31287" />
    <path
       style="fill:#231f20;stroke-width:0.61165643"
       inkscape:connector-curvature="0"
       d="m 188.43732,151.19018 2.22763,2.00009 c 0.0134,0.15829 0.0214,0.3187 0.0169,0.48079 a 5.6796953,5.6796953 0 1 1 -11.35912,-0.0784 c 6.4e-4,-0.16507 0.009,-0.32888 0.0254,-0.49056 l 2.25457,-1.91202 0.97562,0.81658 2.44049,-2.63198 2.44111,2.63198 z m -5.90618,3.71704 0.54987,-0.95479 1.21967,0.30592 -2.65827,-2.5011 z m 4.59049,1.41538 0.46486,-1.88455 2.04415,0.964 -4.56417,-5.29022 z"
       id="path31289" />
    <path
       style="fill:#231f20;stroke-width:0.61165643"
       inkscape:connector-curvature="0"
       d="m 188.43732,151.19018 2.22763,2.00009 c 0.0134,0.15829 0.0214,0.3187 0.0169,0.48079 a 5.6796953,5.6796953 0 1 1 -11.35912,-0.0784 c 6.4e-4,-0.16507 0.009,-0.32888 0.0254,-0.49056 l 2.25457,-1.91202 0.97562,0.81658 2.44049,-2.63198 2.44111,2.63198 z m -5.90618,3.71704 0.54987,-0.95479 1.21967,0.30592 -2.65827,-2.5011 z m 4.59049,1.41538 0.46486,-1.88455 2.04415,0.964 -4.56417,-5.29022 z"
       id="path31291" />
  </g>
</svg>
