<?xml version="1.0" encoding="UTF-8" standalone="no"?>
<!-- Created with Inkscape (http://www.inkscape.org/) -->

<svg
   xmlns:dc="http://purl.org/dc/elements/1.1/"
   xmlns:cc="http://creativecommons.org/ns#"
   xmlns:rdf="http://www.w3.org/1999/02/22-rdf-syntax-ns#"
   xmlns:svg="http://www.w3.org/2000/svg"
   xmlns="http://www.w3.org/2000/svg"
   xmlns:sodipodi="http://sodipodi.sourceforge.net/DTD/sodipodi-0.dtd"
   xmlns:inkscape="http://www.inkscape.org/namespaces/inkscape"
   width="50"
   height="50"
   viewBox="0 0 13.229166 13.229167"
   version="1.1"
   id="svg8"
   inkscape:version="0.92.2 (5c3e80d, 2017-08-06)"
   sodipodi:docname="att.svg">
  <defs
     id="defs2" />
  <sodipodi:namedview
     id="base"
     pagecolor="#ffffff"
     bordercolor="#666666"
     borderopacity="1.0"
     inkscape:pageopacity="0.0"
     inkscape:pageshadow="2"
     inkscape:zoom="10.24"
     inkscape:cx="17.754348"
     inkscape:cy="20.810681"
     inkscape:document-units="mm"
     inkscape:current-layer="layer1"
     showgrid="false"
     fit-margin-top="0"
     fit-margin-left="0"
     fit-margin-right="0"
     fit-margin-bottom="0"
     inkscape:window-width="1680"
     inkscape:window-height="987"
     inkscape:window-x="2792"
     inkscape:window-y="32"
     inkscape:window-maximized="1"
     units="px" />
  <metadata
     id="metadata5">
    <rdf:RDF>
      <cc:Work
         rdf:about="">
        <dc:format>image/svg+xml</dc:format>
        <dc:type
           rdf:resource="http://purl.org/dc/dcmitype/StillImage" />
        <dc:title></dc:title>
      </cc:Work>
    </rdf:RDF>
  </metadata>
  <g
     inkscape:label="Layer 1"
     inkscape:groupmode="layer"
     id="layer1"
     transform="translate(-178.36582,-147.00303)">
    <path
       style="fill:#00a8e0;stroke-width:0.03209278"
       inkscape:connector-curvature="0"
       d="m 180.94987,158.83015 c 1.11872,0.86599 2.52291,1.38632 4.04639,1.38632 1.66718,0 3.18706,-0.61897 4.34703,-1.63503 0.0141,-0.0125 0.007,-0.0206 -0.007,-0.0125 -0.52052,0.34762 -2.00404,1.10646 -4.34024,1.10646 -2.03025,0 -3.31328,-0.453 -4.03784,-0.85743 -0.0138,-0.007 -0.019,0.004 -0.008,0.0121 m 4.4943,0.33717 c 1.62383,0 3.40823,-0.44266 4.47544,-1.31889 0.29204,-0.23873 0.57022,-0.55648 0.81936,-0.98351 0.14342,-0.2457 0.2837,-0.53761 0.39795,-0.82456 0.005,-0.014 -0.004,-0.0208 -0.014,-0.005 -0.99244,1.46048 -3.86632,2.37144 -6.83375,2.37144 -2.09748,0 -4.35435,-0.67074 -5.23793,-1.95147 -0.009,-0.0119 -0.0174,-0.007 -0.0121,0.007 0.82312,1.74952 3.32026,2.70524 6.40511,2.70524 m -1.77418,-2.90234 c -3.37725,0 -4.9697,-1.57294 -5.25856,-2.64635 -0.004,-0.0155 -0.0138,-0.0122 -0.0138,0.001 0,0.36136 0.0362,0.82771 0.0984,1.13724 0.0297,0.15067 0.15231,0.38713 0.3321,0.57561 0.81778,0.85242 2.85663,2.04685 6.38762,2.04685 4.8108,0 5.91078,-1.60252 6.1354,-2.12952 0.16062,-0.37691 0.24384,-1.058 0.24384,-1.63015 0,-0.13845 -0.004,-0.24904 -0.009,-0.35761 0,-0.0176 -0.0103,-0.019 -0.0137,-0.002 -0.24041,1.28952 -4.3507,3.00399 -7.90256,3.00399 m -4.63622,-5.4742 c -0.19352,0.38406 -0.40803,1.03197 -0.4718,1.36731 -0.0279,0.14367 -0.016,0.21269 0.0343,0.31991 0.40478,0.85882 2.45226,2.23298 7.22825,2.23298 2.9137,0 5.17714,-0.71583 5.54383,-2.0221 0.0675,-0.24048 0.0711,-0.49437 -0.0156,-0.83648 -0.0969,-0.38228 -0.27844,-0.82808 -0.43207,-1.14112 -0.005,-0.0103 -0.014,-0.009 -0.0122,0.004 0.0571,1.7133 -4.72082,2.81751 -7.13153,2.81751 -2.61123,0 -4.78972,-1.04038 -4.78972,-2.35406 0,-0.12623 0.0261,-0.25248 0.0587,-0.38387 0.003,-0.012 -0.007,-0.014 -0.0122,-0.004 m 10.3202,-2.10359 c 0.0277,0.0435 0.0416,0.0898 0.0416,0.15226 0,0.73287 -2.24299,2.02935 -5.81355,2.02935 -2.62351,0 -3.1147,-0.97325 -3.1147,-1.59218 0,-0.22126 0.0848,-0.44764 0.27174,-0.67755 0.0103,-0.0137 0.001,-0.019 -0.0103,-0.009 -0.34082,0.28883 -0.65399,0.61384 -0.9287,0.96468 -0.13126,0.16592 -0.21275,0.3129 -0.21275,0.40096 0,1.28266 3.21622,2.21264 6.22348,2.21264 3.20427,0 4.63432,-1.04603 4.63432,-1.9653 0,-0.32853 -0.12789,-0.52032 -0.45504,-0.89214 -0.21236,-0.24189 -0.41323,-0.43883 -0.62585,-0.63271 -0.0103,-0.008 -0.0174,-0.001 -0.0103,0.009 m -0.98233,-0.73271 c -0.98891,-0.59275 -2.13728,-0.92998 -3.37533,-0.92998 -1.24667,0 -2.42964,0.34901 -3.42212,0.95745 -0.29769,0.18322 -0.46524,0.33005 -0.46524,0.51878 0,0.55637 1.30024,1.15458 3.60703,1.15458 2.28286,0 4.05348,-0.65525 4.05348,-1.28596 0,-0.15055 -0.13158,-0.25588 -0.39782,-0.41487"
       id="path9" />
  </g>
</svg>
