<?xml version="1.0" encoding="UTF-8" standalone="no"?>
<!-- Created with Inkscape (http://www.inkscape.org/) -->

<svg
   xmlns:dc="http://purl.org/dc/elements/1.1/"
   xmlns:cc="http://creativecommons.org/ns#"
   xmlns:rdf="http://www.w3.org/1999/02/22-rdf-syntax-ns#"
   xmlns:svg="http://www.w3.org/2000/svg"
   xmlns="http://www.w3.org/2000/svg"
   xmlns:sodipodi="http://sodipodi.sourceforge.net/DTD/sodipodi-0.dtd"
   xmlns:inkscape="http://www.inkscape.org/namespaces/inkscape"
   width="50"
   height="50"
   viewBox="0 0 13.229166 13.229167"
   version="1.1"
   id="svg8"
   inkscape:version="0.92.2 (5c3e80d, 2017-08-06)"
   sodipodi:docname="cbc.svg">
  <defs
     id="defs2">
    <inkscape:perspective
       inkscape:vp_z="177.006 : 86.377998 : 1"
       sodipodi:type="inkscape:persp3d"
       inkscape:vp_x="0 : 86.377998 : 1"
       inkscape:vp_y="0 : 1000 : 0"
       inkscape:persp3d-origin="88.502998 : 57.585332 : 1"
       id="perspective194" />
  </defs>
  <sodipodi:namedview
     id="base"
     pagecolor="#ffffff"
     bordercolor="#666666"
     borderopacity="1.0"
     inkscape:pageopacity="0.0"
     inkscape:pageshadow="2"
     inkscape:zoom="10.24"
     inkscape:cx="26.600243"
     inkscape:cy="34.217393"
     inkscape:document-units="mm"
     inkscape:current-layer="layer1"
     showgrid="false"
     fit-margin-top="0"
     fit-margin-left="0"
     fit-margin-right="0"
     fit-margin-bottom="0"
     inkscape:window-width="1680"
     inkscape:window-height="987"
     inkscape:window-x="2792"
     inkscape:window-y="32"
     inkscape:window-maximized="1"
     units="px" />
  <metadata
     id="metadata5">
    <rdf:RDF>
      <cc:Work
         rdf:about="">
        <dc:format>image/svg+xml</dc:format>
        <dc:type
           rdf:resource="http://purl.org/dc/dcmitype/StillImage" />
        <dc:title></dc:title>
      </cc:Work>
    </rdf:RDF>
  </metadata>
  <g
     inkscape:label="Layer 1"
     inkscape:groupmode="layer"
     id="layer1"
     transform="translate(-178.36582,-147.00303)">
    <g
       id="g31436"
       transform="matrix(0.08198223,0,0,0.08198223,177.72477,146.59886)">
      <path
         d="m 163.75,85.437 c 0,40.906 -33.978,74.067 -75.891,74.067 -41.91,0 -75.889,-33.161 -75.889,-74.067 0,-40.906 33.979,-74.067 75.889,-74.067 41.913,0 75.891,33.161 75.891,74.067 z"
         id="path7"
         inkscape:connector-curvature="0"
         style="fill:#ffffff" />
      <path
         d="m 168.875,87.317 c 0,42.976 -35.698,77.816 -79.729,77.816 -44.033,0 -79.73,-34.842 -79.73,-77.816 0,-42.978 35.698,-77.815 79.73,-77.815 44.031,0 79.729,34.839 79.729,77.815 z M 89.146,19.754 c -38.23,0 -69.227,30.249 -69.227,67.563 0,37.313 30.996,67.563 69.227,67.563 38.229,0 69.226,-30.25 69.226,-67.563 C 158.37,50.003 127.375,19.754 89.146,19.754 Z"
         id="path11"
         inkscape:connector-curvature="0"
         style="fill:#bcbec0" />
      <path
         d="m 165.04,87.308 c 0,40.905 -33.979,74.065 -75.891,74.065 -41.914,0 -75.891,-33.16 -75.891,-74.065 0,-40.904 33.978,-74.067 75.891,-74.067 41.913,-10e-4 75.891,33.163 75.891,74.067 z M 89.149,22.998 c -36.391,0 -65.892,28.793 -65.892,64.31 0,35.518 29.5,64.31 65.892,64.31 36.389,0 65.892,-28.792 65.892,-64.31 0,-35.516 -29.503,-64.31 -65.892,-64.31 z"
         id="path13"
         inkscape:connector-curvature="0"
         style="fill:#bcbec0" />
      <path
         d="m 89.146,98.237 c 6.181,0 11.188,-4.889 11.188,-10.92 0,-6.031 -5.007,-10.919 -11.188,-10.919 -6.18,0 -11.189,4.888 -11.189,10.919 -10e-4,6.034 5.008,10.92 11.189,10.92 z"
         id="path15"
         inkscape:connector-curvature="0"
         style="fill:#bcbec0" />
      <path
         d="m 76.226,98.235 c -6.179,0 -11.189,-4.887 -11.189,-10.918 0,-6.031 5.01,-10.923 11.189,-10.923 z"
         id="path17"
         inkscape:connector-curvature="0"
         style="fill:#bcbec0" />
      <path
         d="m 102.062,110.287 0.004,-10.365 10.619,0.005 c 0,5.728 -4.752,10.36 -10.623,10.36 z"
         id="path19"
         inkscape:connector-curvature="0"
         style="fill:#bcbec0" />
      <path
         d="M 76.226,64.341 V 74.715 L 65.592,74.718 C 65.591,68.987 70.354,64.341 76.226,64.341 Z"
         id="path21"
         inkscape:connector-curvature="0"
         style="fill:#bcbec0" />
      <path
         d="M 76.226,110.287 V 99.922 l -10.631,0.005 c -0.001,5.728 4.759,10.36 10.631,10.36 z"
         id="path23"
         inkscape:connector-curvature="0"
         style="fill:#bcbec0" />
      <path
         d="m 114.987,96.701 -0.006,-18.768 c 3.276,1.906 5.471,5.39 5.471,9.384 0,3.993 -2.193,7.478 -5.465,9.384 z"
         id="path25"
         inkscape:connector-curvature="0"
         style="fill:#bcbec0" />
      <path
         d="m 79.53,62.095 19.229,0.002 c -1.949,-3.195 -5.525,-5.333 -9.613,-5.333 -4.089,0 -7.663,2.136 -9.616,5.331 z"
         id="path27"
         inkscape:connector-curvature="0"
         style="fill:#bcbec0" />
      <path
         d="m 98.612,112.538 -19.228,-0.003 c 1.956,3.194 5.526,5.339 9.613,5.339 4.092,0 7.667,-2.145 9.615,-5.336 z"
         id="path29"
         inkscape:connector-curvature="0"
         style="fill:#bcbec0" />
      <path
         d="m 100.33,99.925 c 0,6.032 -5.005,10.922 -11.187,10.922 -6.179,0 -11.189,-4.89 -11.189,-10.922 z"
         id="path31"
         inkscape:connector-curvature="0"
         style="fill:#bcbec0" />
      <path
         d="m 102.065,98.235 c 6.181,0 11.188,-4.887 11.188,-10.918 0,-6.031 -5.009,-10.923 -11.188,-10.923 z"
         id="path33"
         inkscape:connector-curvature="0"
         style="fill:#bcbec0" />
      <path
         d="m 100.33,74.729 c 0,-6.032 -5.005,-10.92 -11.187,-10.92 -6.179,0 -11.189,4.889 -11.189,10.92 z"
         id="path35"
         inkscape:connector-curvature="0"
         style="fill:#bcbec0" />
      <path
         d="m 63.304,96.701 0.005,-18.768 c -3.277,1.906 -5.469,5.39 -5.469,9.384 -0.001,3.993 2.192,7.478 5.464,9.384 z"
         id="path37"
         inkscape:connector-curvature="0"
         style="fill:#bcbec0" />
      <path
         d="m 112.685,74.718 -10.619,-0.003 -0.004,-10.363 c 5.871,0 10.623,4.638 10.623,10.366 z"
         id="path39"
         inkscape:connector-curvature="0"
         style="fill:#bcbec0" />
      <path
         d="m 36.965,104.117 c -0.041,0.006 -0.151,-0.019 -0.208,0.024 -0.149,-0.076 -0.33,0.051 -0.463,-0.049 -0.016,-0.359 0.031,-0.722 0.046,-1.035 0.009,-0.08 -0.009,-0.201 -0.023,-0.295 0.023,-0.039 0.023,-0.074 0,-0.113 0.043,-0.529 0.019,-1.067 0.023,-1.558 0.042,-0.407 0.02,-0.766 0.024,-1.194 l -0.047,-0.021 c -1.225,0.204 -2.45,0.403 -3.674,0.608 -0.081,0 -0.212,0 -0.323,0 0.07,-0.633 0.504,-1.112 0.647,-1.715 l -0.022,-0.068 c -0.312,-0.305 -0.693,-0.582 -0.948,-0.879 -0.671,-0.549 -1.254,-1.174 -1.988,-1.717 -0.255,-0.354 -0.624,-0.592 -0.9,-0.9 -0.066,0.027 -0.078,-0.044 -0.069,-0.091 v -0.091 l 0.091,0.047 c 0.313,-0.104 0.651,-0.197 0.879,-0.452 -0.146,-0.999 -0.435,-1.94 -0.649,-2.911 l 0.025,-0.021 c 0.781,0.199 1.536,0.5 2.381,0.473 0.29,-0.342 0.387,-0.77 0.6,-1.148 0.45,0.463 0.862,1.002 1.295,1.467 0.195,0.197 0.379,0.455 0.623,0.633 0.062,0 0.157,0.009 0.161,-0.067 -0.058,-0.999 -0.329,-1.908 -0.483,-2.866 -0.077,-0.52 -0.222,-1.05 -0.254,-1.557 l -0.092,-0.313 c 0.501,0.328 0.983,0.574 1.523,0.809 0.132,0.048 0.219,-0.074 0.276,-0.158 0.616,-0.893 1.019,-1.866 1.526,-2.794 0.435,0.917 0.874,1.875 1.414,2.772 l 0.162,0.201 c 0.606,-0.101 1.097,-0.474 1.617,-0.787 l 0.021,0.023 c -0.265,1.464 -0.565,2.912 -0.9,4.348 -0.015,0.141 -0.074,0.35 0.048,0.454 l 0.158,-0.044 c 0.649,-0.626 1.273,-1.402 1.852,-2.1 0.211,0.398 0.312,0.854 0.6,1.219 0.694,0.029 1.324,-0.208 1.989,-0.316 0.138,-0.039 0.264,-0.104 0.413,-0.11 -0.248,0.923 -0.432,1.88 -0.644,2.819 -0.013,0.334 0.392,0.361 0.6,0.521 0.103,0.015 0.225,0.13 0.324,0.021 l 0.021,0.111 c -1.292,1.165 -2.734,2.331 -4.044,3.543 0.185,0.555 0.393,1.096 0.623,1.625 0,0.051 0.014,0.105 -0.045,0.137 -0.318,-0.104 -0.648,-0.17 -0.995,-0.205 -0.974,-0.199 -1.985,-0.326 -2.957,-0.541 -0.086,1.414 -0.029,2.822 -0.047,4.24 -0.042,0.075 -0.136,0.075 -0.187,0.021 z"
         id="path41"
         inkscape:connector-curvature="0"
         style="fill:#bcbec0" />
      <path
         d="m 141.315,103.705 c -0.041,0.013 -0.149,-0.013 -0.205,0.026 -0.149,-0.072 -0.332,0.054 -0.465,-0.043 -0.017,-0.362 0.027,-0.724 0.047,-1.039 0.009,-0.08 -0.008,-0.197 -0.023,-0.295 0.023,-0.037 0.023,-0.072 0,-0.112 0.041,-0.527 0.018,-1.065 0.023,-1.556 0.039,-0.414 0.018,-0.768 0.021,-1.196 l -0.046,-0.021 c -1.224,0.202 -2.451,0.402 -3.674,0.608 -0.081,0 -0.214,0 -0.324,0 0.069,-0.633 0.501,-1.11 0.647,-1.717 l -0.022,-0.067 c -0.312,-0.303 -0.694,-0.581 -0.948,-0.879 -0.672,-0.549 -1.255,-1.173 -1.988,-1.715 -0.254,-0.354 -0.623,-0.593 -0.9,-0.902 -0.063,0.028 -0.077,-0.047 -0.07,-0.091 v -0.088 l 0.094,0.042 c 0.313,-0.099 0.651,-0.195 0.879,-0.451 -0.146,-0.998 -0.432,-1.94 -0.65,-2.911 l 0.027,-0.02 c 0.781,0.195 1.537,0.498 2.381,0.473 0.291,-0.342 0.385,-0.771 0.599,-1.148 0.451,0.461 0.862,0.998 1.296,1.467 0.196,0.195 0.381,0.457 0.622,0.631 0.063,0 0.159,0.011 0.163,-0.067 -0.056,-0.997 -0.329,-1.907 -0.482,-2.864 -0.078,-0.518 -0.222,-1.051 -0.254,-1.559 l -0.094,-0.314 c 0.501,0.33 0.98,0.576 1.522,0.812 0.131,0.048 0.22,-0.073 0.276,-0.157 0.614,-0.891 1.021,-1.866 1.526,-2.796 0.435,0.918 0.875,1.878 1.411,2.772 l 0.16,0.207 c 0.605,-0.103 1.099,-0.476 1.621,-0.793 l 0.021,0.022 c -0.265,1.47 -0.566,2.917 -0.9,4.354 -0.02,0.135 -0.075,0.346 0.045,0.451 l 0.16,-0.047 c 0.647,-0.621 1.273,-1.4 1.851,-2.098 0.214,0.404 0.312,0.854 0.603,1.219 0.692,0.031 1.324,-0.205 1.987,-0.318 0.138,-0.032 0.269,-0.104 0.417,-0.111 -0.248,0.929 -0.434,1.883 -0.646,2.82 -0.012,0.334 0.394,0.365 0.602,0.52 0.104,0.02 0.225,0.13 0.324,0.023 l 0.021,0.115 c -1.294,1.158 -2.732,2.326 -4.046,3.539 0.185,0.553 0.394,1.096 0.622,1.622 0,0.056 0.016,0.11 -0.046,0.14 -0.317,-0.102 -0.646,-0.17 -0.992,-0.205 -0.977,-0.194 -1.985,-0.327 -2.957,-0.539 -0.09,1.414 -0.026,2.826 -0.048,4.242 -0.043,0.076 -0.134,0.076 -0.188,0.014 z"
         id="path43"
         inkscape:connector-curvature="0"
         style="fill:#bcbec0" />
      <polygon
         points="55.099,77.841 52.933,84.147 29.065,76.333 31.232,70.033 39.777,72.828 40.809,69.831 32.261,67.034 34.428,60.731 58.294,68.544 56.13,74.847 46.443,71.678 45.413,74.675 "
         id="polygon45"
         style="fill:#bcbec0" />
      <path
         d="m 56.093,53.319 c -1.015,-1.168 -4.247,-5.034 -2.286,-6.656 1.959,-1.625 5.343,2.113 6.358,3.28 1.017,1.167 4.247,5.031 2.288,6.656 -1.96,1.622 -5.344,-2.115 -6.36,-3.28 z m -5.292,4.387 c 3.977,4.569 10.489,7.977 15.757,3.61 5.268,-4.365 2.878,-11.19 -1.099,-15.761 -3.975,-4.57 -10.489,-7.979 -15.758,-3.613 -5.269,4.366 -2.876,11.193 1.1,15.764 z"
         id="path47"
         inkscape:connector-curvature="0"
         style="fill:#bcbec0" />
      <path
         d="m 85.495,35.111 c -1.135,-0.71 -2.021,-1.07 -3.398,-0.803 -3.472,0.675 -3.561,4.578 -3.02,7.232 0.573,2.813 2.154,6.227 5.493,5.577 1.507,-0.291 2.339,-1.05 3.226,-2.22 l 0.98,6.821 c -1.227,0.836 -2.379,1.358 -3.853,1.645 -5.467,1.06 -10.945,-2.096 -12.625,-10.342 -2.2,-10.803 5.026,-14.099 8.266,-14.727 1.178,-0.23 2.359,-0.292 3.523,-0.086 z"
         id="path49"
         inkscape:connector-curvature="0"
         style="fill:#bcbec0" />
      <polygon
         points="116.244,33.688 107.384,43.388 109.24,57.295 102.269,55.137 101.722,43.141 101.751,43.151 101.688,43.129 98.194,53.877 91.703,51.867 99.313,28.446 105.806,30.458 102.565,40.427 102.537,40.418 102.565,40.427 102.483,40.47 102.503,40.406 102.599,40.437 109.403,31.57 "
         id="polygon51"
         style="fill:#bcbec0" />
      <polygon
         points="128.425,50.267 125.929,52.667 129.604,56.312 125.371,60.381 121.69,56.735 118.958,59.365 123.056,63.428 118.817,67.497 109.942,58.697 127.883,41.458 136.76,50.259 132.526,54.33 "
         id="polygon53"
         style="fill:#bcbec0" />
      <polygon
         points="139.503,71.8 147.634,71.715 149.763,78.27 134.171,77.07 123.985,80.22 121.933,73.882 132.116,70.733 144.058,60.686 146.192,67.27 139.483,71.739 "
         id="polygon55"
         style="fill:#bcbec0" />
      <path
         d="m 54.971,100.261 3.739,5.159 -9.232,12.88 0.091,0.016 c 2.219,-1.85 4.273,-3.865 6.645,-5.5 l 5.233,-3.617 3.78,5.216 -20.554,14.187 -3.779,-5.213 8.927,-12.231 -0.094,-0.015 c -1.839,1.469 -3.573,3.024 -5.509,4.36 l -6.024,4.159 -3.78,-5.217 z"
         id="path57"
         inkscape:connector-curvature="0"
         style="fill:#bcbec0" />
      <polygon
         points="62.232,140.579 56.304,137.299 68.709,115.922 74.638,119.198 "
         id="polygon59"
         style="fill:#bcbec0" />
      <path
         d="m 95.608,132.917 -0.034,1.043 c -0.408,6.045 -2.116,13.479 -9.977,12.973 -7.397,-0.475 -9.368,-6.972 -8.948,-13.179 0.41,-6.08 3.232,-12.66 10.595,-12.187 4.063,0.263 6.925,2.961 8.149,6.603 l -6.722,1.948 c 0,-0.979 -0.563,-2.553 -1.763,-2.631 -3.133,-0.198 -3.245,5.441 -3.37,7.298 -0.021,1.764 -0.443,6.046 2.189,6.215 1.798,0.116 2.505,-1.931 2.569,-3.362 l -2.5,-0.162 0.349,-5.168 z"
         id="path61"
         inkscape:connector-curvature="0"
         style="fill:#bcbec0" />
      <polygon
         points="115.79,140.647 109.754,143.726 98.106,121.942 104.146,118.865 108.313,126.668 111.187,125.202 107.019,117.403 113.056,114.329 124.698,136.11 118.663,139.188 113.935,130.349 111.063,131.81 "
         id="polygon63"
         style="fill:#bcbec0" />
      <polygon
         points="141.935,117.755 138.069,123.229 122.396,112.694 120.272,115.701 115.217,112.303 123.413,100.678 128.474,104.08 126.256,107.219 "
         id="polygon65"
         style="fill:#bcbec0" />
      <path
         d="m 83.739,84.113 c -0.664,0.138 -1.066,-0.246 -1.229,-0.993 -0.056,-0.248 0.061,-4.984 0.521,-5.081 l 1.402,-0.422 c 0.33,-0.066 0.336,-0.044 0.371,0.108 0.022,0.099 -0.009,0.208 -0.015,0.314 l -0.456,2.931 c -0.086,0.564 -0.212,1.346 -0.141,1.671 0.033,0.149 0.076,0.347 0.409,0.279 0.382,-0.079 1.049,-1.054 1.255,-1.093 0.127,-0.026 0.22,0.031 0.247,0.154 0.056,0.251 -1.29,1.91 -2.364,2.132 z m 0.658,-8.257 c -0.716,0.146 -1.181,-0.277 -1.312,-0.875 -0.147,-0.672 0.173,-1.417 0.859,-1.559 0.717,-0.146 1.219,0.321 1.354,0.943 0.162,0.751 -0.238,1.353 -0.901,1.491 z"
         stroke-miterlimit="2.6131"
         id="path67"
         inkscape:connector-curvature="0"
         style="fill:#bcbec0;stroke:#bcbec0;stroke-width:6.72870016;stroke-linejoin:round;stroke-miterlimit:2.61310005" />
      <path
         d="m 86.507,83.357 c -0.331,0.069 -0.369,0.024 -0.398,-0.125 -0.021,-0.101 0.013,-0.185 0.016,-0.29 l 0.135,-2.191 c 0.021,-0.523 0.096,-1.035 0.14,-1.562 l 0.113,-1.326 c 0.027,-0.239 -0.003,-0.494 0.376,-0.598 l 1.3,-0.399 c 0.23,-0.051 0.285,-0.035 0.292,-0.009 0.031,0.149 -0.046,0.294 -0.062,0.455 l -0.248,1.793 c -0.059,0.352 -0.09,0.694 -0.116,1.064 0.755,-1.923 1.445,-3.526 3.025,-3.853 0.767,-0.16 1.468,0.242 1.646,1.065 0.111,0.496 -0.021,0.993 -0.074,1.498 l -0.215,1.816 c -0.021,0.161 -0.039,0.318 -0.004,0.468 0.021,0.101 0.125,0.211 0.227,0.188 0.482,-0.101 1.208,-1.188 1.517,-1.253 0.074,-0.016 0.199,0.066 0.218,0.165 0.058,0.248 -1.127,1.901 -2.432,2.169 -0.895,0.187 -1.238,-0.288 -1.372,-0.912 -0.092,-0.421 -0.026,-1.348 0.066,-2.018 l 0.157,-1.231 c 0.022,-0.262 0.074,-0.639 0.041,-0.789 -0.041,-0.2 -0.228,-0.316 -0.404,-0.279 -0.971,0.2 -2.151,3.465 -2.44,5.451 -0.086,0.226 -0.198,0.433 -0.507,0.496 z"
         stroke-miterlimit="2.6131"
         id="path69"
         inkscape:connector-curvature="0"
         style="fill:#bcbec0;stroke:#bcbec0;stroke-width:6.72870016;stroke-linejoin:round;stroke-miterlimit:2.61310005" />
      <path
         d="m 61.353,105.454 c -1.966,0.402 -8.36,1.729 -10.152,-6.498 -1.776,-8.157 6.653,-21.06 15.584,-22.914 1.251,-0.259 2.923,0.053 3.38,2.146 0.758,3.485 -5.369,9.129 -6.546,9.374 -0.144,0.028 -0.305,-0.19 -0.335,-0.332 l 0.074,-2.055 c -0.159,-0.736 6.466,-3.749 5.584,-7.793 -0.152,-0.696 -1.236,-0.874 -2.271,-0.659 -5.967,1.237 -14.074,13.562 -12.2,22.174 1.026,4.705 3.906,5.932 7.336,5.22 4.895,-1.015 7.611,-4.312 7.969,-4.386 0.178,-0.039 0.36,0.106 0.404,0.314 0.079,0.351 -4.325,4.472 -8.827,5.409 z"
         stroke-miterlimit="2.6131"
         id="path71"
         inkscape:connector-curvature="0"
         style="fill:#bcbec0;stroke:#bcbec0;stroke-width:6.72870016;stroke-linejoin:round;stroke-miterlimit:2.61310005" />
      <path
         d="m 73.937,101.854 c -1.464,0.306 -2.506,-0.537 -2.778,-1.789 -0.556,-2.547 1.826,-6.867 5.077,-7.541 0.965,-0.202 1.488,-0.202 1.548,0.078 0.076,0.351 -0.118,0.828 -0.333,0.873 -0.287,0.059 -0.397,-0.283 -1.112,-0.134 -1.822,0.377 -3.031,3.91 -2.592,5.931 0.137,0.627 0.56,1.193 1.346,1.031 0.821,-0.172 1.56,-1.416 2.312,-4.307 L 78.238,92.8 c 0.053,-0.267 0.137,-0.575 0.529,-0.657 l 1.478,-0.414 c 0.323,-0.068 0.445,-0.021 0.48,0.152 0.024,0.104 0.047,0.211 0.033,0.322 l -0.529,4.593 c -0.085,0.64 -0.171,1.272 -0.042,1.867 0.062,0.278 0.35,0.401 0.634,0.341 0.645,-0.133 1.479,-1.617 1.764,-1.677 0.178,-0.035 0.346,0.038 0.386,0.214 0.042,0.208 -1.824,2.782 -3.146,3.057 -0.965,0.198 -1.613,-0.211 -1.857,-1.326 -0.206,-0.942 -0.001,-1.897 0.088,-2.861 -0.695,1.966 -1.475,4.897 -4.119,5.443 z"
         stroke-miterlimit="2.6131"
         id="path73"
         inkscape:connector-curvature="0"
         style="fill:#bcbec0;stroke:#bcbec0;stroke-width:6.72870016;stroke-linejoin:round;stroke-miterlimit:2.61310005" />
      <path
         d="m 83.435,99.521 c -0.464,0.099 -0.516,0.035 -0.562,-0.174 -0.031,-0.141 0.019,-0.259 0.025,-0.404 l 0.189,-3.065 c 0.027,-0.731 0.132,-1.446 0.195,-2.19 l 0.158,-1.854 c 0.038,-0.336 -0.002,-0.69 0.528,-0.838 l 1.817,-0.558 c 0.323,-0.068 0.4,-0.049 0.409,-0.014 0.045,0.208 -0.06,0.412 -0.083,0.637 l -0.351,2.514 c -0.08,0.49 -0.125,0.976 -0.16,1.49 1.056,-2.695 2.022,-4.938 4.237,-5.396 1.073,-0.221 2.055,0.341 2.307,1.491 0.15,0.696 -0.033,1.39 -0.106,2.098 L 91.734,95.8 c -0.026,0.225 -0.051,0.446 -0.006,0.66 0.028,0.139 0.172,0.289 0.316,0.259 0.68,-0.141 1.691,-1.661 2.121,-1.753 0.105,-0.021 0.279,0.088 0.313,0.229 0.074,0.351 -1.586,2.662 -3.41,3.039 -1.25,0.262 -1.729,-0.405 -1.918,-1.276 -0.131,-0.595 -0.039,-1.888 0.093,-2.827 l 0.22,-1.721 c 0.034,-0.368 0.105,-0.898 0.063,-1.105 -0.063,-0.277 -0.322,-0.443 -0.571,-0.393 -1.357,0.283 -3.013,4.854 -3.416,7.631 -0.118,0.318 -0.279,0.605 -0.707,0.695 z"
         stroke-miterlimit="2.6131"
         id="path75"
         inkscape:connector-curvature="0"
         style="fill:#bcbec0;stroke:#bcbec0;stroke-width:6.72870016;stroke-linejoin:round;stroke-miterlimit:2.61310005" />
      <path
         d="m 96.799,97.114 c -1.462,0.304 -2.504,-0.538 -2.78,-1.793 -0.552,-2.547 1.828,-6.866 5.082,-7.54 0.963,-0.2 1.484,-0.2 1.545,0.079 0.078,0.349 -0.119,0.828 -0.332,0.871 -0.282,0.058 -0.398,-0.282 -1.111,-0.135 -1.822,0.379 -3.032,3.909 -2.592,5.932 0.136,0.628 0.561,1.195 1.347,1.035 0.821,-0.174 1.558,-1.418 2.312,-4.309 l 0.834,-3.197 c 0.053,-0.266 0.138,-0.576 0.528,-0.656 l 1.478,-0.418 c 0.32,-0.065 0.445,-0.017 0.483,0.156 0.021,0.106 0.046,0.209 0.029,0.321 l -0.528,4.593 c -0.083,0.637 -0.17,1.276 -0.042,1.866 0.063,0.279 0.351,0.402 0.636,0.343 0.646,-0.134 1.478,-1.617 1.762,-1.678 0.179,-0.037 0.346,0.037 0.384,0.213 0.048,0.211 -1.819,2.782 -3.142,3.059 -0.969,0.199 -1.617,-0.213 -1.86,-1.328 -0.205,-0.941 0,-1.896 0.088,-2.862 -0.694,1.967 -1.478,4.899 -4.121,5.448 z"
         stroke-miterlimit="2.6131"
         id="path77"
         inkscape:connector-curvature="0"
         style="fill:#bcbec0;stroke:#bcbec0;stroke-width:6.72870016;stroke-linejoin:round;stroke-miterlimit:2.61310005" />
      <path
         d="m 110.953,85.977 c 0.608,-0.125 1.399,0.075 1.515,0.598 0.172,0.803 -1.73,6.117 -3.268,6.436 -0.68,0.141 -1.178,-0.083 -1.383,-1.025 -0.448,-2.057 1.245,-5.616 3.136,-6.009 z m 1.591,3.022 c -0.188,1.861 -0.393,3 -0.216,3.8 0.144,0.661 0.827,0.888 1.754,0.692 0.61,-0.129 1.51,-0.786 2.188,-1.618 l 0.656,-0.756 c 0.146,-0.179 0.342,-0.327 0.293,-0.538 -0.029,-0.137 -0.133,-0.262 -0.273,-0.23 -0.146,0.028 -0.35,0.287 -0.495,0.467 l -0.537,0.621 c -0.363,0.403 -0.688,0.616 -1.116,0.705 -0.217,0.043 -0.333,-0.149 -0.396,-0.465 -0.055,-0.246 0,-1.021 0.08,-1.513 l 2.67,-21.508 c 0.035,-0.189 0.088,-0.453 0.065,-0.56 -0.024,-0.104 -0.082,-0.2 -0.188,-0.18 -0.106,0.021 -0.215,0.043 -0.278,0.094 l -2.198,1.223 c -0.164,0.108 -0.246,0.413 -0.222,0.703 l -1.628,15.316 c -0.592,0.045 -1.182,0.061 -1.754,0.18 -3.749,0.78 -6.292,4.547 -5.702,7.268 0.353,1.605 1.462,2.249 2.749,1.98 2.287,-0.473 3.285,-3.083 4.548,-5.681 z"
         stroke-miterlimit="2.6131"
         id="path79"
         inkscape:connector-curvature="0"
         style="fill:#bcbec0;stroke:#bcbec0;stroke-width:6.72870016;stroke-linejoin:round;stroke-miterlimit:2.61310005" />
      <path
         d="m 119.665,92.369 c -1.466,0.305 -2.507,-0.536 -2.782,-1.792 -0.553,-2.543 1.827,-6.864 5.08,-7.541 0.966,-0.198 1.486,-0.195 1.545,0.082 0.078,0.347 -0.114,0.827 -0.329,0.872 -0.285,0.058 -0.397,-0.283 -1.111,-0.136 -1.822,0.379 -3.035,3.909 -2.592,5.931 0.137,0.629 0.557,1.198 1.346,1.034 0.82,-0.17 1.557,-1.418 2.312,-4.306 l 0.832,-3.2 c 0.054,-0.263 0.14,-0.571 0.53,-0.654 l 1.477,-0.417 c 0.324,-0.066 0.442,-0.018 0.484,0.158 0.021,0.103 0.046,0.207 0.029,0.318 l -0.529,4.594 c -0.084,0.637 -0.172,1.273 -0.042,1.867 0.06,0.281 0.353,0.401 0.635,0.342 0.644,-0.133 1.479,-1.617 1.765,-1.677 0.181,-0.036 0.346,0.038 0.381,0.212 0.048,0.211 -1.816,2.783 -3.144,3.059 -0.966,0.199 -1.612,-0.215 -1.854,-1.329 -0.206,-0.94 0,-1.894 0.085,-2.861 -0.693,1.967 -1.473,4.897 -4.118,5.444 z"
         stroke-miterlimit="2.6131"
         id="path81"
         inkscape:connector-curvature="0"
         style="fill:#bcbec0;stroke:#bcbec0;stroke-width:6.72870016;stroke-linejoin:round;stroke-miterlimit:2.61310005" />
      <path
         d="m 167.589,85.438 c 0,42.973 -35.697,77.813 -79.729,77.813 -44.032,0 -79.73,-34.84 -79.73,-77.813 0,-42.976 35.697,-77.817 79.729,-77.817 44.033,0 79.73,34.841 79.73,77.817 z M 87.859,17.875 c -38.23,0 -69.226,30.249 -69.226,67.564 0,37.313 30.996,67.563 69.226,67.563 38.232,0 69.227,-30.25 69.227,-67.563 0,-37.316 -30.994,-67.564 -69.227,-67.564 z"
         id="path83"
         inkscape:connector-curvature="0"
         style="fill:#d39f29" />
      <path
         d="m 163.757,85.428 c 0,40.906 -33.979,74.067 -75.892,74.067 -41.913,0 -75.89,-33.161 -75.89,-74.067 0,-40.904 33.977,-74.067 75.89,-74.067 41.913,0 75.892,33.163 75.892,74.067 z M 87.865,21.12 c -36.39,0 -65.892,28.792 -65.892,64.308 0,35.519 29.502,64.311 65.892,64.311 36.388,0 65.892,-28.792 65.892,-64.311 0,-35.516 -29.504,-64.308 -65.892,-64.308 z"
         id="path85"
         inkscape:connector-curvature="0"
         style="fill:#004585" />
      <path
         d="m 87.859,96.356 c 6.18,0 11.188,-4.89 11.188,-10.919 0,-6.029 -5.008,-10.92 -11.188,-10.92 -6.176,0 -11.187,4.891 -11.187,10.92 0,6.031 5.012,10.919 11.187,10.919 z"
         id="path87"
         inkscape:connector-curvature="0"
         style="fill:#e3383f" />
      <path
         d="m 74.941,96.356 c -6.181,0 -11.19,-4.89 -11.19,-10.919 0,-6.029 5.01,-10.925 11.19,-10.925 z"
         id="path89"
         inkscape:connector-curvature="0"
         style="fill:#e3383f" />
      <path
         d="m 100.776,108.403 0.002,-10.359 10.621,0.005 c 0,5.727 -4.753,10.354 -10.623,10.354 z"
         id="path91"
         inkscape:connector-curvature="0"
         style="fill:#e3383f" />
      <path
         d="M 74.941,62.461 V 72.835 H 64.309 c 0,-5.725 4.762,-10.374 10.632,-10.374 z"
         id="path93"
         inkscape:connector-curvature="0"
         style="fill:#e3383f" />
      <path
         d="M 74.941,108.403 V 98.044 L 64.31,98.049 c 0,5.727 4.759,10.354 10.631,10.354 z"
         id="path95"
         inkscape:connector-curvature="0"
         style="fill:#e3383f" />
      <path
         d="m 113.702,94.821 -0.004,-18.769 c 3.277,1.906 5.468,5.391 5.468,9.383 0,3.993 -2.19,7.481 -5.464,9.386 z"
         id="path97"
         inkscape:connector-curvature="0"
         style="fill:#6f7073" />
      <path
         d="m 78.244,60.215 19.229,0.003 c -1.951,-3.195 -5.522,-5.337 -9.615,-5.337 -4.085,0 -7.659,2.14 -9.614,5.334 z"
         id="path99"
         inkscape:connector-curvature="0"
         style="fill:#e3383f" />
      <path
         d="m 97.33,110.658 -19.226,-0.003 c 1.951,3.195 5.522,5.339 9.612,5.339 4.086,0 7.663,-2.141 9.614,-5.336 z"
         id="path101"
         inkscape:connector-curvature="0"
         style="fill:#e3383f" />
      <path
         d="m 99.047,98.047 c 0,6.028 -5.008,10.92 -11.188,10.92 -6.176,0 -11.191,-4.892 -11.191,-10.92 z"
         id="path103"
         inkscape:connector-curvature="0"
         style="fill:#e3383f" />
      <path
         d="m 100.781,96.356 c 6.181,0 11.188,-4.89 11.188,-10.919 0,-6.029 -5.008,-10.925 -11.188,-10.925 z"
         id="path105"
         inkscape:connector-curvature="0"
         style="fill:#e3383f" />
      <path
         d="m 99.047,72.848 c 0,-6.03 -5.008,-10.918 -11.188,-10.918 -6.176,0 -11.191,4.888 -11.191,10.918 z"
         id="path107"
         inkscape:connector-curvature="0"
         style="fill:#e3383f" />
      <path
         d="m 62.018,94.821 0.004,-18.769 c -3.274,1.906 -5.467,5.391 -5.467,9.383 0,3.993 2.191,7.481 5.463,9.386 z"
         id="path109"
         inkscape:connector-curvature="0"
         style="fill:#e3383f" />
      <path
         d="M 111.399,72.841 100.778,72.835 100.776,62.47 c 5.87,0 10.623,4.64 10.623,10.371 z"
         id="path111"
         inkscape:connector-curvature="0"
         style="fill:#e3383f" />
      <path
         d="m 35.683,102.237 c -0.042,0.006 -0.151,-0.016 -0.211,0.022 -0.147,-0.073 -0.329,0.052 -0.461,-0.046 -0.018,-0.359 0.027,-0.722 0.045,-1.038 0.008,-0.077 -0.008,-0.198 -0.021,-0.293 0.021,-0.039 0.021,-0.073 0,-0.114 0.042,-0.527 0.017,-1.064 0.021,-1.557 0.04,-0.41 0.021,-0.768 0.024,-1.195 l -0.045,-0.019 c -1.226,0.2 -2.451,0.401 -3.677,0.608 -0.081,0 -0.211,0 -0.323,0 0.072,-0.637 0.503,-1.113 0.647,-1.719 l -0.025,-0.07 C 31.348,96.515 30.965,96.24 30.713,95.939 30.041,95.394 29.459,94.769 28.724,94.226 28.468,93.87 28.099,93.629 27.823,93.324 27.76,93.349 27.747,93.28 27.754,93.234 v -0.092 l 0.091,0.045 c 0.313,-0.102 0.653,-0.194 0.879,-0.449 -0.144,-1 -0.433,-1.941 -0.649,-2.91 l 0.024,-0.023 c 0.779,0.197 1.537,0.5 2.382,0.475 0.288,-0.346 0.386,-0.772 0.6,-1.15 0.448,0.464 0.861,0.999 1.296,1.467 0.193,0.197 0.379,0.454 0.623,0.631 0.061,0 0.157,0.012 0.16,-0.067 -0.058,-0.998 -0.33,-1.906 -0.484,-2.864 -0.077,-0.521 -0.221,-1.049 -0.256,-1.557 l -0.091,-0.315 c 0.501,0.332 0.983,0.577 1.524,0.81 0.132,0.048 0.219,-0.071 0.277,-0.157 0.614,-0.89 1.019,-1.864 1.527,-2.793 0.433,0.918 0.872,1.875 1.411,2.772 l 0.161,0.202 c 0.607,-0.101 1.097,-0.474 1.619,-0.79 l 0.021,0.026 c -0.264,1.467 -0.566,2.915 -0.899,4.35 -0.018,0.136 -0.076,0.349 0.044,0.452 l 0.161,-0.044 c 0.648,-0.628 1.272,-1.401 1.851,-2.101 0.213,0.402 0.312,0.854 0.601,1.223 0.694,0.025 1.325,-0.212 1.989,-0.321 0.138,-0.036 0.265,-0.104 0.416,-0.11 -0.249,0.924 -0.434,1.882 -0.646,2.82 -0.012,0.332 0.392,0.359 0.599,0.521 0.105,0.013 0.227,0.125 0.328,0.021 l 0.019,0.112 c -1.292,1.161 -2.732,2.329 -4.045,3.54 0.187,0.555 0.393,1.098 0.624,1.626 0,0.051 0.011,0.104 -0.046,0.138 -0.318,-0.104 -0.646,-0.173 -0.994,-0.205 -0.976,-0.199 -1.985,-0.33 -2.957,-0.543 -0.086,1.414 -0.029,2.823 -0.048,4.242 -0.04,0.077 -0.135,0.077 -0.183,0.021 z"
         id="path113"
         inkscape:connector-curvature="0"
         style="fill:#e3383f" />
      <path
         d="m 140.035,101.829 c -0.041,0.005 -0.152,-0.02 -0.214,0.023 -0.146,-0.072 -0.327,0.053 -0.461,-0.045 -0.017,-0.363 0.029,-0.723 0.048,-1.039 0.007,-0.076 -0.011,-0.196 -0.022,-0.295 0.022,-0.039 0.022,-0.07 0,-0.113 0.043,-0.525 0.02,-1.064 0.022,-1.555 0.041,-0.412 0.021,-0.766 0.022,-1.195 l -0.046,-0.022 c -1.225,0.202 -2.45,0.404 -3.678,0.611 -0.079,0 -0.212,0 -0.322,0 0.071,-0.634 0.505,-1.114 0.647,-1.718 l -0.024,-0.068 c -0.309,-0.307 -0.69,-0.579 -0.944,-0.878 -0.67,-0.552 -1.256,-1.173 -1.99,-1.718 -0.252,-0.354 -0.623,-0.59 -0.898,-0.899 -0.066,0.026 -0.074,-0.047 -0.068,-0.09 v -0.091 l 0.09,0.044 c 0.316,-0.099 0.652,-0.195 0.878,-0.447 -0.144,-1.002 -0.431,-1.94 -0.646,-2.914 l 0.021,-0.021 c 0.779,0.197 1.537,0.5 2.385,0.472 0.285,-0.343 0.382,-0.769 0.6,-1.147 0.446,0.463 0.86,1 1.295,1.463 0.193,0.198 0.379,0.457 0.625,0.633 0.062,0 0.153,0.01 0.158,-0.067 -0.057,-0.998 -0.328,-1.905 -0.484,-2.862 -0.075,-0.519 -0.219,-1.052 -0.256,-1.56 l -0.09,-0.316 c 0.502,0.332 0.981,0.578 1.525,0.813 0.132,0.046 0.221,-0.072 0.277,-0.156 0.613,-0.894 1.018,-1.869 1.524,-2.8 0.433,0.92 0.871,1.88 1.411,2.776 l 0.16,0.202 c 0.607,-0.101 1.098,-0.475 1.617,-0.788 l 0.021,0.022 c -0.264,1.467 -0.563,2.914 -0.897,4.354 -0.018,0.135 -0.075,0.344 0.046,0.449 l 0.161,-0.043 c 0.648,-0.628 1.271,-1.402 1.848,-2.099 0.217,0.403 0.313,0.854 0.605,1.218 0.69,0.029 1.319,-0.208 1.986,-0.314 0.137,-0.039 0.266,-0.106 0.413,-0.112 -0.247,0.924 -0.435,1.877 -0.646,2.817 -0.014,0.336 0.394,0.363 0.6,0.52 0.104,0.018 0.227,0.131 0.325,0.025 l 0.022,0.112 c -1.295,1.16 -2.733,2.328 -4.048,3.542 0.187,0.553 0.394,1.094 0.625,1.621 0,0.053 0.013,0.108 -0.043,0.139 -0.319,-0.103 -0.649,-0.168 -0.999,-0.205 -0.974,-0.194 -1.986,-0.325 -2.955,-0.539 -0.084,1.414 -0.029,2.824 -0.049,4.242 -0.031,0.073 -0.131,0.073 -0.177,0.018 z"
         id="path115"
         inkscape:connector-curvature="0"
         style="fill:#e3383f" />
      <polygon
         points="53.815,75.964 51.651,82.269 27.782,74.453 29.948,68.151 38.494,70.948 39.525,67.954 30.978,65.155 33.142,58.851 57.011,66.664 54.847,72.966 45.159,69.798 44.129,72.791 "
         id="polygon117"
         style="fill:#004585" />
      <path
         d="m 54.809,51.436 c -1.016,-1.166 -4.245,-5.031 -2.286,-6.653 1.959,-1.625 5.342,2.113 6.357,3.279 1.017,1.168 4.247,5.032 2.287,6.656 -1.96,1.624 -5.341,-2.114 -6.358,-3.282 z m -5.293,4.388 c 3.976,4.572 10.489,7.979 15.758,3.613 5.268,-4.367 2.878,-11.192 -1.098,-15.761 -3.978,-4.57 -10.49,-7.978 -15.759,-3.614 -5.268,4.367 -2.876,11.192 1.099,15.762 z"
         id="path119"
         inkscape:connector-curvature="0"
         style="fill:#004585" />
      <path
         d="m 84.209,33.231 c -1.133,-0.709 -2.02,-1.07 -3.399,-0.803 -3.47,0.674 -3.559,4.578 -3.019,7.231 0.574,2.813 2.155,6.226 5.495,5.578 1.506,-0.291 2.338,-1.052 3.224,-2.221 l 0.982,6.82 c -1.226,0.838 -2.378,1.359 -3.854,1.646 -5.468,1.061 -10.944,-2.096 -12.626,-10.34 -2.2,-10.803 5.024,-14.1 8.267,-14.728 1.18,-0.229 2.357,-0.293 3.524,-0.087 z"
         id="path121"
         inkscape:connector-curvature="0"
         style="fill:#004585" />
      <polygon
         points="114.962,31.808 106.101,41.508 107.954,55.415 100.983,53.259 100.435,41.259 100.468,41.27 100.403,41.249 96.909,51.997 90.416,49.986 98.028,26.567 104.522,28.576 101.283,38.547 101.25,38.538 101.283,38.547 101.196,38.591 101.217,38.527 101.313,38.556 108.118,29.689 "
         id="polygon123"
         style="fill:#004585" />
      <polygon
         points="127.142,48.385 124.642,50.787 128.319,54.432 124.084,58.502 120.408,54.855 117.671,57.485 121.771,61.548 117.535,65.617 108.657,56.817 126.599,39.58 135.474,48.381 131.239,52.451 "
         id="polygon125"
         style="fill:#004585" />
      <polygon
         points="138.218,69.921 146.353,69.835 148.478,76.388 132.89,75.193 122.704,78.339 120.646,72.003 130.832,68.854 142.772,58.806 144.91,65.393 138.198,69.86 "
         id="polygon127"
         style="fill:#004585" />
      <path
         d="m 53.686,98.379 3.74,5.163 -9.232,12.878 0.092,0.013 c 2.218,-1.847 4.272,-3.863 6.644,-5.5 l 5.234,-3.611 3.779,5.212 -20.554,14.188 -3.779,-5.214 8.929,-12.231 -0.094,-0.019 c -1.838,1.474 -3.572,3.032 -5.508,4.364 l -6.025,4.161 -3.778,-5.218 z"
         id="path129"
         inkscape:connector-curvature="0"
         style="fill:#004585" />
      <polygon
         points="60.947,138.694 55.021,135.419 67.426,114.041 73.353,117.317 "
         id="polygon131"
         style="fill:#004585" />
      <path
         d="m 94.326,131.037 -0.038,1.043 c -0.41,6.045 -2.115,13.479 -9.978,12.974 -7.394,-0.475 -9.365,-6.972 -8.946,-13.18 0.411,-6.081 3.231,-12.661 10.594,-12.188 4.063,0.264 6.927,2.963 8.15,6.6 l -6.72,1.951 c -0.003,-0.979 -0.566,-2.551 -1.766,-2.627 -3.13,-0.2 -3.245,5.438 -3.37,7.293 -0.016,1.762 -0.44,6.047 2.191,6.215 1.8,0.115 2.505,-1.928 2.57,-3.359 l -2.499,-0.162 0.35,-5.173 z"
         id="path133"
         inkscape:connector-curvature="0"
         style="fill:#004585" />
      <polygon
         points="114.505,138.769 108.467,141.845 96.821,120.063 102.862,116.987 107.028,124.786 109.901,123.325 105.729,115.524 111.771,112.447 123.418,134.231 117.378,137.31 112.649,128.465 109.78,129.929 "
         id="polygon135"
         style="fill:#004585" />
      <polygon
         points="140.647,115.873 136.786,121.349 121.112,110.815 118.992,113.822 113.931,110.421 122.128,98.8 127.188,102.202 124.972,105.34 "
         id="polygon137"
         style="fill:#004585" />
      <path
         d="m 82.454,82.232 c -0.662,0.139 -1.067,-0.246 -1.227,-0.992 -0.056,-0.25 0.06,-4.987 0.519,-5.083 l 1.404,-0.419 c 0.331,-0.068 0.337,-0.044 0.369,0.105 0.022,0.101 -0.009,0.209 -0.01,0.314 l -0.455,2.934 c -0.091,0.564 -0.214,1.346 -0.145,1.671 0.033,0.149 0.076,0.349 0.409,0.278 0.383,-0.079 1.049,-1.051 1.254,-1.093 0.128,-0.027 0.222,0.03 0.247,0.156 0.055,0.248 -1.292,1.91 -2.365,2.129 z m 0.657,-8.255 c -0.714,0.146 -1.181,-0.277 -1.309,-0.875 -0.147,-0.672 0.17,-1.417 0.859,-1.559 0.714,-0.147 1.217,0.323 1.353,0.942 0.164,0.749 -0.238,1.353 -0.903,1.492 z"
         stroke-miterlimit="2.6131"
         id="path139"
         inkscape:connector-curvature="0"
         style="stroke:#243a76;stroke-width:6.72870016;stroke-linejoin:round;stroke-miterlimit:2.61310005" />
      <path
         d="m 85.224,81.478 c -0.33,0.068 -0.366,0.024 -0.398,-0.125 -0.022,-0.101 0.013,-0.185 0.016,-0.292 l 0.136,-2.189 c 0.021,-0.522 0.096,-1.031 0.139,-1.563 l 0.112,-1.324 c 0.029,-0.242 -0.002,-0.494 0.376,-0.6 l 1.301,-0.399 c 0.229,-0.048 0.285,-0.033 0.29,-0.007 0.035,0.15 -0.041,0.292 -0.059,0.455 l -0.25,1.796 c -0.057,0.349 -0.087,0.694 -0.113,1.063 0.752,-1.926 1.443,-3.526 3.027,-3.854 0.765,-0.16 1.464,0.241 1.646,1.065 0.107,0.497 -0.025,0.993 -0.074,1.496 l -0.219,1.818 c -0.019,0.158 -0.038,0.318 -0.006,0.468 0.021,0.101 0.129,0.21 0.229,0.188 0.484,-0.101 1.208,-1.188 1.514,-1.253 0.08,-0.016 0.201,0.065 0.225,0.164 0.053,0.249 -1.133,1.899 -2.432,2.172 -0.896,0.184 -1.24,-0.291 -1.375,-0.914 -0.093,-0.423 -0.027,-1.35 0.063,-2.018 l 0.16,-1.232 c 0.022,-0.264 0.073,-0.639 0.043,-0.791 -0.046,-0.197 -0.229,-0.316 -0.407,-0.276 -0.97,0.2 -2.15,3.463 -2.438,5.452 -0.083,0.224 -0.201,0.429 -0.507,0.492 z"
         stroke-miterlimit="2.6131"
         id="path141"
         inkscape:connector-curvature="0"
         style="stroke:#243a76;stroke-width:6.72870016;stroke-linejoin:round;stroke-miterlimit:2.61310005" />
      <path
         d="m 60.067,103.572 c -1.962,0.405 -8.359,1.733 -10.151,-6.495 -1.775,-8.159 6.652,-21.061 15.585,-22.914 1.25,-0.259 2.923,0.053 3.38,2.146 0.758,3.485 -5.37,9.128 -6.549,9.374 C 62.19,85.711 62.029,85.49 62,85.351 l 0.074,-2.057 c -0.158,-0.734 6.466,-3.747 5.585,-7.792 -0.153,-0.698 -1.236,-0.872 -2.272,-0.659 -5.966,1.236 -14.075,13.563 -12.198,22.174 1.025,4.705 3.905,5.934 7.336,5.221 4.894,-1.019 7.61,-4.312 7.967,-4.387 0.18,-0.037 0.362,0.105 0.407,0.317 0.076,0.351 -4.329,4.472 -8.832,5.404 z"
         stroke-miterlimit="2.6131"
         id="path143"
         inkscape:connector-curvature="0"
         style="stroke:#243a76;stroke-width:6.72870016;stroke-linejoin:round;stroke-miterlimit:2.61310005" />
      <path
         d="m 72.653,99.976 c -1.465,0.306 -2.507,-0.535 -2.78,-1.789 -0.557,-2.547 1.829,-6.867 5.078,-7.541 0.964,-0.199 1.488,-0.199 1.549,0.08 0.076,0.347 -0.119,0.827 -0.335,0.871 -0.284,0.057 -0.396,-0.283 -1.11,-0.135 -1.822,0.378 -3.032,3.908 -2.592,5.93 0.136,0.627 0.56,1.196 1.347,1.033 0.822,-0.171 1.557,-1.417 2.311,-4.306 l 0.833,-3.198 c 0.055,-0.265 0.136,-0.574 0.53,-0.654 l 1.478,-0.416 c 0.322,-0.068 0.444,-0.021 0.482,0.153 0.021,0.104 0.044,0.208 0.031,0.32 l -0.532,4.595 c -0.084,0.637 -0.169,1.273 -0.041,1.865 0.062,0.279 0.35,0.402 0.637,0.343 0.641,-0.133 1.476,-1.619 1.763,-1.678 0.178,-0.034 0.344,0.038 0.383,0.213 0.044,0.209 -1.821,2.782 -3.143,3.058 -0.967,0.199 -1.615,-0.211 -1.858,-1.328 -0.204,-0.939 -0.002,-1.896 0.086,-2.858 -0.693,1.965 -1.473,4.895 -4.117,5.442 z"
         stroke-miterlimit="2.6131"
         id="path145"
         inkscape:connector-curvature="0"
         style="stroke:#243a76;stroke-width:6.72870016;stroke-linejoin:round;stroke-miterlimit:2.61310005" />
      <path
         d="m 82.15,97.642 c -0.463,0.096 -0.515,0.035 -0.562,-0.174 -0.029,-0.141 0.02,-0.257 0.026,-0.406 l 0.19,-3.063 c 0.026,-0.735 0.133,-1.452 0.193,-2.192 l 0.157,-1.854 c 0.041,-0.336 0,-0.692 0.528,-0.839 l 1.82,-0.557 c 0.322,-0.068 0.399,-0.052 0.409,-0.014 0.045,0.208 -0.062,0.413 -0.085,0.637 l -0.35,2.514 c -0.081,0.49 -0.124,0.977 -0.162,1.492 1.057,-2.697 2.024,-4.939 4.241,-5.397 1.07,-0.224 2.051,0.338 2.301,1.489 0.152,0.699 -0.035,1.393 -0.103,2.099 l -0.306,2.541 c -0.027,0.224 -0.051,0.446 -0.006,0.655 0.029,0.142 0.175,0.295 0.315,0.264 0.683,-0.139 1.692,-1.664 2.123,-1.751 0.106,-0.022 0.277,0.087 0.308,0.228 0.078,0.35 -1.584,2.658 -3.404,3.037 -1.251,0.262 -1.732,-0.404 -1.921,-1.275 -0.13,-0.592 -0.037,-1.887 0.092,-2.826 l 0.223,-1.723 c 0.031,-0.368 0.104,-0.895 0.059,-1.104 -0.061,-0.28 -0.32,-0.44 -0.57,-0.392 -1.356,0.281 -3.015,4.854 -3.416,7.633 -0.118,0.314 -0.279,0.604 -0.708,0.693 z"
         stroke-miterlimit="2.6131"
         id="path147"
         inkscape:connector-curvature="0"
         style="stroke:#243a76;stroke-width:6.72870016;stroke-linejoin:round;stroke-miterlimit:2.61310005" />
      <path
         d="m 95.517,95.233 c -1.465,0.304 -2.51,-0.537 -2.781,-1.793 -0.555,-2.547 1.83,-6.866 5.08,-7.542 0.965,-0.2 1.488,-0.198 1.549,0.082 0.076,0.347 -0.119,0.825 -0.332,0.872 -0.288,0.057 -0.397,-0.284 -1.113,-0.136 -1.82,0.38 -3.031,3.908 -2.591,5.931 0.136,0.629 0.56,1.197 1.346,1.035 0.819,-0.17 1.556,-1.416 2.31,-4.304 l 0.836,-3.202 c 0.055,-0.264 0.136,-0.571 0.527,-0.655 l 1.478,-0.417 c 0.321,-0.066 0.444,-0.018 0.481,0.158 0.024,0.104 0.045,0.207 0.034,0.321 l -0.53,4.591 c -0.088,0.637 -0.172,1.273 -0.041,1.867 0.062,0.279 0.35,0.4 0.633,0.342 0.646,-0.136 1.481,-1.617 1.766,-1.677 0.177,-0.038 0.341,0.039 0.383,0.21 0.045,0.211 -1.822,2.785 -3.146,3.059 -0.963,0.201 -1.613,-0.211 -1.855,-1.328 -0.204,-0.941 -0.002,-1.896 0.087,-2.857 -0.7,1.965 -1.478,4.893 -4.121,5.443 z"
         stroke-miterlimit="2.6131"
         id="path149"
         inkscape:connector-curvature="0"
         style="stroke:#243a76;stroke-width:6.72870016;stroke-linejoin:round;stroke-miterlimit:2.61310005" />
      <path
         d="m 109.671,84.097 c 0.605,-0.125 1.396,0.075 1.51,0.597 0.178,0.801 -1.729,6.118 -3.267,6.436 -0.677,0.143 -1.175,-0.082 -1.38,-1.025 -0.447,-2.058 1.242,-5.615 3.137,-6.008 z m 1.59,3.024 c -0.189,1.858 -0.392,2.995 -0.218,3.796 0.144,0.663 0.828,0.889 1.756,0.693 0.608,-0.127 1.511,-0.787 2.187,-1.617 l 0.658,-0.758 c 0.146,-0.176 0.34,-0.324 0.297,-0.533 -0.035,-0.141 -0.137,-0.266 -0.279,-0.234 -0.143,0.028 -0.346,0.292 -0.494,0.467 l -0.537,0.619 c -0.357,0.406 -0.688,0.619 -1.115,0.707 -0.214,0.045 -0.33,-0.148 -0.4,-0.465 -0.055,-0.242 0.002,-1.018 0.082,-1.512 l 2.67,-21.508 c 0.035,-0.188 0.089,-0.454 0.066,-0.559 -0.021,-0.104 -0.08,-0.203 -0.188,-0.181 -0.108,0.022 -0.214,0.046 -0.277,0.094 l -2.199,1.221 c -0.162,0.11 -0.244,0.417 -0.218,0.703 l -1.635,15.318 c -0.585,0.046 -1.181,0.062 -1.751,0.18 -3.752,0.779 -6.291,4.547 -5.698,7.268 0.349,1.605 1.462,2.25 2.744,1.981 2.286,-0.474 3.285,-3.087 4.549,-5.68 z"
         stroke-miterlimit="2.6131"
         id="path151"
         inkscape:connector-curvature="0"
         style="stroke:#243a76;stroke-width:6.72870016;stroke-linejoin:round;stroke-miterlimit:2.61310005" />
      <path
         d="m 118.377,90.489 c -1.461,0.305 -2.504,-0.536 -2.776,-1.792 -0.556,-2.545 1.83,-6.866 5.078,-7.541 0.965,-0.2 1.487,-0.197 1.549,0.082 0.076,0.347 -0.119,0.825 -0.332,0.869 -0.287,0.062 -0.397,-0.281 -1.111,-0.134 -1.823,0.377 -3.032,3.908 -2.594,5.933 0.139,0.628 0.561,1.196 1.347,1.03 0.819,-0.17 1.558,-1.414 2.312,-4.305 l 0.834,-3.197 c 0.053,-0.266 0.135,-0.576 0.53,-0.659 l 1.478,-0.415 c 0.318,-0.066 0.444,-0.018 0.479,0.156 0.025,0.103 0.048,0.208 0.036,0.32 l -0.531,4.592 c -0.088,0.639 -0.171,1.273 -0.042,1.869 0.061,0.279 0.348,0.401 0.635,0.342 0.646,-0.134 1.476,-1.618 1.764,-1.68 0.179,-0.035 0.343,0.037 0.383,0.215 0.046,0.208 -1.822,2.782 -3.143,3.055 -0.967,0.203 -1.617,-0.211 -1.858,-1.328 -0.205,-0.938 0,-1.893 0.088,-2.859 -0.699,1.969 -1.481,4.9 -4.126,5.447 z"
         stroke-miterlimit="2.6131"
         id="path153"
         inkscape:connector-curvature="0"
         style="stroke:#243a76;stroke-width:6.72870016;stroke-linejoin:round;stroke-miterlimit:2.61310005" />
      <path
         d="m 82.454,82.232 c -0.662,0.139 -1.067,-0.246 -1.227,-0.992 -0.056,-0.25 0.06,-4.987 0.519,-5.083 l 1.404,-0.419 c 0.331,-0.068 0.337,-0.044 0.369,0.105 0.022,0.101 -0.009,0.209 -0.01,0.314 l -0.455,2.934 c -0.091,0.564 -0.214,1.346 -0.145,1.671 0.033,0.149 0.076,0.349 0.409,0.278 0.383,-0.079 1.049,-1.051 1.254,-1.093 0.128,-0.027 0.222,0.03 0.247,0.156 0.055,0.248 -1.292,1.91 -2.365,2.129 z m 0.657,-8.255 c -0.714,0.146 -1.181,-0.277 -1.309,-0.875 -0.147,-0.672 0.17,-1.417 0.859,-1.559 0.714,-0.147 1.217,0.323 1.353,0.942 0.164,0.749 -0.238,1.353 -0.903,1.492 z"
         stroke-miterlimit="2.6131"
         id="path155"
         inkscape:connector-curvature="0"
         style="fill:#afb1b4;stroke:#d39f29;stroke-width:2.80360007;stroke-linejoin:round;stroke-miterlimit:2.61310005" />
      <path
         d="m 85.224,81.478 c -0.33,0.068 -0.366,0.024 -0.398,-0.125 -0.022,-0.101 0.013,-0.185 0.016,-0.292 l 0.136,-2.189 c 0.021,-0.522 0.096,-1.031 0.139,-1.563 l 0.112,-1.324 c 0.029,-0.242 -0.002,-0.494 0.376,-0.6 l 1.301,-0.399 c 0.229,-0.048 0.285,-0.033 0.29,-0.007 0.035,0.15 -0.041,0.292 -0.059,0.455 l -0.25,1.796 c -0.057,0.349 -0.087,0.694 -0.113,1.063 0.752,-1.926 1.443,-3.526 3.027,-3.854 0.765,-0.16 1.464,0.241 1.646,1.065 0.107,0.497 -0.025,0.993 -0.074,1.496 l -0.219,1.818 c -0.019,0.158 -0.038,0.318 -0.006,0.468 0.021,0.101 0.129,0.21 0.229,0.188 0.484,-0.101 1.208,-1.188 1.514,-1.253 0.08,-0.016 0.201,0.065 0.225,0.164 0.053,0.249 -1.133,1.899 -2.432,2.172 -0.896,0.184 -1.24,-0.291 -1.375,-0.914 -0.093,-0.423 -0.027,-1.35 0.063,-2.018 l 0.16,-1.232 c 0.022,-0.264 0.073,-0.639 0.043,-0.791 -0.046,-0.197 -0.229,-0.316 -0.407,-0.276 -0.97,0.2 -2.15,3.463 -2.438,5.452 -0.083,0.224 -0.201,0.429 -0.507,0.492 z"
         stroke-miterlimit="2.6131"
         id="path157"
         inkscape:connector-curvature="0"
         style="fill:#afb1b4;stroke:#d39f29;stroke-width:2.80360007;stroke-linejoin:round;stroke-miterlimit:2.61310005" />
      <path
         d="m 60.067,103.572 c -1.962,0.405 -8.359,1.733 -10.151,-6.495 -1.775,-8.159 6.652,-21.061 15.585,-22.914 1.25,-0.259 2.923,0.053 3.38,2.146 0.758,3.485 -5.37,9.128 -6.549,9.374 C 62.19,85.712 62.029,85.49 62,85.352 l 0.074,-2.057 c -0.158,-0.734 6.466,-3.747 5.585,-7.792 -0.153,-0.698 -1.236,-0.872 -2.272,-0.659 -5.966,1.236 -14.075,13.563 -12.198,22.175 1.025,4.705 3.905,5.933 7.336,5.219 4.894,-1.018 7.61,-4.311 7.967,-4.385 0.18,-0.037 0.362,0.104 0.407,0.316 0.076,0.35 -4.329,4.471 -8.832,5.403 z"
         stroke-miterlimit="2.6131"
         id="path159"
         inkscape:connector-curvature="0"
         style="fill:#afb1b4;stroke:#d39f29;stroke-width:2.80360007;stroke-linejoin:round;stroke-miterlimit:2.61310005" />
      <path
         d="m 72.653,99.976 c -1.465,0.306 -2.507,-0.535 -2.78,-1.789 -0.557,-2.547 1.829,-6.867 5.078,-7.541 0.964,-0.199 1.488,-0.199 1.549,0.08 0.076,0.347 -0.119,0.827 -0.335,0.871 -0.284,0.057 -0.396,-0.283 -1.11,-0.135 -1.822,0.378 -3.032,3.908 -2.592,5.93 0.136,0.627 0.56,1.196 1.347,1.033 0.822,-0.171 1.557,-1.417 2.311,-4.306 l 0.833,-3.198 c 0.055,-0.265 0.136,-0.574 0.53,-0.654 l 1.478,-0.416 c 0.322,-0.068 0.444,-0.021 0.482,0.153 0.021,0.104 0.044,0.208 0.031,0.32 l -0.532,4.595 c -0.084,0.637 -0.169,1.273 -0.041,1.865 0.062,0.279 0.35,0.402 0.637,0.343 0.641,-0.133 1.476,-1.619 1.763,-1.678 0.178,-0.034 0.344,0.038 0.383,0.213 0.044,0.209 -1.821,2.782 -3.143,3.058 -0.967,0.199 -1.615,-0.211 -1.858,-1.328 -0.204,-0.939 -0.002,-1.896 0.086,-2.858 -0.693,1.965 -1.473,4.895 -4.117,5.442 z"
         stroke-miterlimit="2.6131"
         id="path161"
         inkscape:connector-curvature="0"
         style="fill:#afb1b4;stroke:#d39f29;stroke-width:2.80360007;stroke-linejoin:round;stroke-miterlimit:2.61310005" />
      <path
         d="m 82.15,97.642 c -0.463,0.096 -0.515,0.035 -0.562,-0.174 -0.029,-0.141 0.02,-0.257 0.026,-0.406 l 0.19,-3.063 c 0.026,-0.735 0.133,-1.452 0.193,-2.192 l 0.157,-1.854 c 0.041,-0.336 0,-0.692 0.528,-0.839 l 1.82,-0.557 c 0.322,-0.068 0.399,-0.052 0.409,-0.014 0.045,0.208 -0.062,0.413 -0.085,0.637 l -0.35,2.514 c -0.081,0.49 -0.124,0.977 -0.162,1.492 1.057,-2.697 2.024,-4.939 4.241,-5.397 1.07,-0.224 2.051,0.338 2.301,1.489 0.152,0.699 -0.035,1.393 -0.103,2.099 l -0.306,2.541 c -0.027,0.224 -0.051,0.446 -0.006,0.655 0.029,0.142 0.175,0.295 0.315,0.264 0.683,-0.139 1.692,-1.664 2.123,-1.751 0.106,-0.022 0.277,0.087 0.308,0.228 0.078,0.35 -1.584,2.658 -3.404,3.037 -1.251,0.262 -1.732,-0.404 -1.921,-1.275 -0.13,-0.592 -0.037,-1.887 0.092,-2.826 l 0.223,-1.723 c 0.031,-0.368 0.104,-0.895 0.059,-1.104 -0.061,-0.28 -0.32,-0.44 -0.57,-0.392 -1.356,0.281 -3.015,4.854 -3.416,7.633 -0.118,0.314 -0.279,0.604 -0.708,0.693 z"
         stroke-miterlimit="2.6131"
         id="path163"
         inkscape:connector-curvature="0"
         style="fill:#afb1b4;stroke:#d39f29;stroke-width:2.80360007;stroke-linejoin:round;stroke-miterlimit:2.61310005" />
      <path
         d="m 95.517,95.233 c -1.465,0.304 -2.51,-0.537 -2.781,-1.793 -0.555,-2.547 1.83,-6.866 5.08,-7.542 0.965,-0.2 1.488,-0.197 1.549,0.082 0.076,0.347 -0.119,0.825 -0.332,0.872 -0.288,0.057 -0.397,-0.284 -1.113,-0.136 -1.82,0.38 -3.031,3.908 -2.591,5.931 0.136,0.629 0.56,1.197 1.346,1.035 0.819,-0.17 1.556,-1.416 2.31,-4.304 l 0.836,-3.202 c 0.055,-0.264 0.136,-0.571 0.527,-0.655 l 1.478,-0.417 c 0.321,-0.065 0.444,-0.018 0.481,0.158 0.024,0.104 0.045,0.207 0.034,0.321 l -0.53,4.591 c -0.088,0.637 -0.172,1.273 -0.041,1.867 0.062,0.279 0.35,0.4 0.633,0.342 0.646,-0.136 1.481,-1.617 1.766,-1.677 0.177,-0.038 0.341,0.039 0.383,0.21 0.045,0.211 -1.822,2.785 -3.146,3.059 -0.963,0.201 -1.613,-0.211 -1.855,-1.328 -0.204,-0.941 -0.002,-1.896 0.087,-2.857 -0.7,1.965 -1.478,4.893 -4.121,5.443 z"
         stroke-miterlimit="2.6131"
         id="path165"
         inkscape:connector-curvature="0"
         style="fill:#afb1b4;stroke:#d39f29;stroke-width:2.80360007;stroke-linejoin:round;stroke-miterlimit:2.61310005" />
      <path
         d="m 109.671,84.097 c 0.605,-0.125 1.396,0.074 1.51,0.598 0.178,0.801 -1.729,6.117 -3.267,6.435 -0.677,0.143 -1.175,-0.082 -1.38,-1.025 -0.447,-2.058 1.242,-5.615 3.137,-6.008 z m 1.59,3.024 c -0.189,1.858 -0.392,2.995 -0.218,3.796 0.144,0.663 0.828,0.889 1.756,0.693 0.608,-0.127 1.511,-0.787 2.187,-1.617 l 0.658,-0.758 c 0.146,-0.176 0.34,-0.324 0.297,-0.533 -0.035,-0.141 -0.137,-0.266 -0.279,-0.234 -0.143,0.028 -0.346,0.292 -0.494,0.467 l -0.537,0.619 c -0.357,0.406 -0.688,0.619 -1.115,0.707 -0.214,0.045 -0.33,-0.148 -0.4,-0.465 -0.055,-0.242 0.002,-1.018 0.082,-1.512 l 2.67,-21.508 c 0.035,-0.188 0.089,-0.454 0.066,-0.559 -0.021,-0.104 -0.08,-0.203 -0.188,-0.181 -0.108,0.022 -0.214,0.046 -0.277,0.094 l -2.199,1.221 c -0.162,0.11 -0.244,0.417 -0.218,0.703 l -1.635,15.318 c -0.585,0.046 -1.181,0.062 -1.751,0.18 -3.752,0.78 -6.291,4.547 -5.698,7.268 0.349,1.605 1.462,2.25 2.744,1.981 2.286,-0.474 3.285,-3.087 4.549,-5.68 z"
         stroke-miterlimit="2.6131"
         id="path167"
         inkscape:connector-curvature="0"
         style="fill:#afb1b4;stroke:#d39f29;stroke-width:2.80360007;stroke-linejoin:round;stroke-miterlimit:2.61310005" />
      <path
         d="m 118.377,90.489 c -1.461,0.305 -2.504,-0.536 -2.776,-1.792 -0.556,-2.545 1.83,-6.866 5.078,-7.541 0.965,-0.2 1.487,-0.197 1.549,0.082 0.076,0.347 -0.119,0.825 -0.332,0.869 -0.287,0.062 -0.397,-0.281 -1.111,-0.134 -1.823,0.377 -3.032,3.908 -2.594,5.933 0.139,0.628 0.561,1.196 1.347,1.03 0.819,-0.17 1.558,-1.414 2.312,-4.305 l 0.834,-3.197 c 0.053,-0.266 0.135,-0.576 0.53,-0.659 l 1.478,-0.415 c 0.318,-0.066 0.444,-0.018 0.479,0.156 0.025,0.103 0.048,0.208 0.036,0.32 l -0.531,4.592 c -0.088,0.639 -0.171,1.273 -0.042,1.869 0.061,0.279 0.348,0.401 0.635,0.342 0.646,-0.134 1.476,-1.618 1.764,-1.68 0.179,-0.035 0.343,0.038 0.383,0.215 0.046,0.208 -1.822,2.782 -3.143,3.055 -0.967,0.203 -1.617,-0.211 -1.858,-1.328 -0.205,-0.938 0,-1.893 0.088,-2.86 -0.699,1.97 -1.481,4.901 -4.126,5.448 z"
         stroke-miterlimit="2.6131"
         id="path169"
         inkscape:connector-curvature="0"
         style="fill:#afb1b4;stroke:#d39f29;stroke-width:2.80360007;stroke-linejoin:round;stroke-miterlimit:2.61310005" />
      <path
         d="m 108.719,91.513 c 1.755,0 3.179,-1.342 3.179,-2.992 0,-1.651 -1.424,-2.99 -3.179,-2.99 -1.754,0 -3.177,1.339 -3.177,2.99 0,1.65 1.423,2.992 3.177,2.992 z"
         stroke-miterlimit="2.6131"
         id="path171"
         inkscape:connector-curvature="0"
         style="fill:#d39f29;stroke:#d39f29;stroke-width:2.80360007;stroke-linejoin:round;stroke-miterlimit:2.61310005" />
      <path
         d="m 60.067,103.572 c -1.962,0.405 -8.359,1.733 -10.151,-6.495 -1.775,-8.159 6.652,-21.062 15.585,-22.914 1.25,-0.259 2.923,0.053 3.38,2.146 0.758,3.485 -5.37,9.128 -6.549,9.374 C 62.19,85.712 62.029,85.49 62,85.352 l 0.074,-2.057 c -0.158,-0.734 6.466,-3.747 5.585,-7.792 -0.153,-0.698 -1.236,-0.871 -2.272,-0.659 -5.966,1.237 -14.075,13.563 -12.198,22.175 1.025,4.705 3.905,5.933 7.336,5.219 4.894,-1.018 7.61,-4.311 7.967,-4.385 0.18,-0.037 0.362,0.104 0.407,0.316 0.076,0.35 -4.329,4.471 -8.832,5.403 z"
         id="path173"
         inkscape:connector-curvature="0"
         style="fill:#ffffff" />
      <path
         d="m 72.653,99.976 c -1.465,0.306 -2.507,-0.535 -2.78,-1.789 -0.557,-2.547 1.829,-6.867 5.078,-7.541 0.964,-0.199 1.488,-0.199 1.549,0.08 0.076,0.347 -0.119,0.827 -0.335,0.871 -0.284,0.057 -0.396,-0.283 -1.11,-0.135 -1.822,0.378 -3.032,3.908 -2.592,5.93 0.136,0.627 0.56,1.196 1.347,1.033 0.822,-0.171 1.557,-1.417 2.311,-4.306 l 0.833,-3.198 c 0.055,-0.265 0.136,-0.574 0.53,-0.654 l 1.478,-0.416 c 0.322,-0.068 0.444,-0.021 0.482,0.153 0.021,0.104 0.044,0.208 0.031,0.32 l -0.532,4.595 c -0.084,0.637 -0.169,1.273 -0.041,1.865 0.062,0.279 0.35,0.402 0.637,0.343 0.641,-0.133 1.476,-1.619 1.763,-1.678 0.178,-0.034 0.344,0.038 0.383,0.213 0.044,0.209 -1.821,2.782 -3.143,3.058 -0.967,0.199 -1.615,-0.211 -1.858,-1.328 -0.204,-0.939 -0.002,-1.896 0.086,-2.858 -0.693,1.965 -1.473,4.895 -4.117,5.442 z"
         id="path175"
         inkscape:connector-curvature="0"
         style="fill:#ffffff" />
      <path
         d="m 82.15,97.642 c -0.463,0.096 -0.515,0.035 -0.562,-0.174 -0.029,-0.141 0.02,-0.257 0.026,-0.406 l 0.19,-3.063 c 0.026,-0.735 0.133,-1.452 0.193,-2.192 l 0.157,-1.854 c 0.041,-0.336 0,-0.692 0.528,-0.839 l 1.82,-0.557 c 0.322,-0.068 0.399,-0.052 0.409,-0.014 0.045,0.208 -0.062,0.413 -0.085,0.637 l -0.35,2.514 c -0.081,0.49 -0.124,0.977 -0.162,1.492 1.057,-2.697 2.024,-4.939 4.241,-5.397 1.07,-0.224 2.051,0.338 2.301,1.489 0.152,0.699 -0.035,1.393 -0.103,2.099 l -0.306,2.541 c -0.027,0.224 -0.051,0.446 -0.006,0.655 0.029,0.142 0.175,0.295 0.315,0.264 0.683,-0.139 1.692,-1.664 2.123,-1.751 0.106,-0.022 0.277,0.087 0.308,0.228 0.078,0.35 -1.584,2.658 -3.404,3.037 -1.251,0.262 -1.732,-0.404 -1.921,-1.275 -0.13,-0.592 -0.037,-1.887 0.092,-2.826 l 0.223,-1.723 c 0.031,-0.368 0.104,-0.895 0.059,-1.104 -0.061,-0.28 -0.32,-0.44 -0.57,-0.392 -1.356,0.281 -3.015,4.854 -3.416,7.633 -0.118,0.314 -0.279,0.604 -0.708,0.693 z"
         id="path177"
         inkscape:connector-curvature="0"
         style="fill:#ffffff" />
      <path
         d="m 95.517,95.233 c -1.465,0.304 -2.51,-0.537 -2.781,-1.793 -0.555,-2.547 1.83,-6.866 5.08,-7.542 0.965,-0.2 1.488,-0.197 1.549,0.082 0.076,0.347 -0.119,0.825 -0.332,0.872 -0.288,0.057 -0.397,-0.284 -1.113,-0.136 -1.82,0.38 -3.031,3.908 -2.591,5.931 0.136,0.629 0.56,1.197 1.346,1.035 0.819,-0.17 1.556,-1.416 2.31,-4.304 l 0.836,-3.202 c 0.055,-0.264 0.136,-0.571 0.527,-0.655 l 1.478,-0.417 c 0.321,-0.065 0.444,-0.018 0.481,0.158 0.024,0.104 0.045,0.207 0.034,0.321 l -0.53,4.591 c -0.088,0.637 -0.172,1.273 -0.041,1.867 0.062,0.279 0.35,0.4 0.633,0.342 0.646,-0.136 1.481,-1.617 1.766,-1.677 0.177,-0.038 0.341,0.039 0.383,0.21 0.045,0.211 -1.822,2.785 -3.146,3.059 -0.963,0.201 -1.613,-0.211 -1.855,-1.328 -0.204,-0.941 -0.002,-1.896 0.087,-2.857 -0.7,1.965 -1.478,4.893 -4.121,5.443 z"
         id="path179"
         inkscape:connector-curvature="0"
         style="fill:#ffffff" />
      <path
         d="m 109.671,84.097 c 0.605,-0.125 1.396,0.074 1.51,0.598 0.178,0.801 -1.729,6.117 -3.267,6.435 -0.677,0.143 -1.175,-0.082 -1.38,-1.025 -0.447,-2.058 1.242,-5.615 3.137,-6.008 z m 1.59,3.024 c -0.189,1.858 -0.392,2.995 -0.218,3.796 0.144,0.663 0.828,0.889 1.756,0.693 0.608,-0.127 1.511,-0.787 2.187,-1.617 l 0.658,-0.758 c 0.146,-0.176 0.34,-0.324 0.297,-0.533 -0.035,-0.141 -0.137,-0.266 -0.279,-0.234 -0.143,0.028 -0.346,0.292 -0.494,0.467 l -0.537,0.619 c -0.357,0.406 -0.688,0.619 -1.115,0.707 -0.214,0.045 -0.33,-0.148 -0.4,-0.465 -0.055,-0.242 0.002,-1.018 0.082,-1.512 l 2.67,-21.508 c 0.035,-0.188 0.089,-0.454 0.066,-0.559 -0.021,-0.104 -0.08,-0.203 -0.188,-0.181 -0.108,0.022 -0.214,0.046 -0.277,0.094 l -2.199,1.221 c -0.162,0.11 -0.244,0.417 -0.218,0.703 l -1.635,15.318 c -0.585,0.046 -1.181,0.062 -1.751,0.18 -3.752,0.78 -6.291,4.547 -5.698,7.268 0.349,1.605 1.462,2.25 2.744,1.981 2.286,-0.474 3.285,-3.087 4.549,-5.68 z"
         id="path181"
         inkscape:connector-curvature="0"
         style="fill:#ffffff" />
      <path
         d="m 118.377,90.489 c -1.461,0.305 -2.504,-0.536 -2.776,-1.792 -0.556,-2.545 1.83,-6.866 5.078,-7.54 0.965,-0.2 1.487,-0.198 1.549,0.081 0.076,0.347 -0.119,0.826 -0.332,0.87 -0.287,0.062 -0.397,-0.281 -1.111,-0.134 -1.823,0.377 -3.032,3.908 -2.594,5.933 0.139,0.628 0.561,1.197 1.347,1.029 0.819,-0.168 1.558,-1.414 2.312,-4.304 l 0.834,-3.198 c 0.053,-0.266 0.135,-0.575 0.53,-0.658 l 1.478,-0.415 c 0.318,-0.067 0.444,-0.018 0.479,0.156 0.025,0.103 0.048,0.208 0.036,0.32 l -0.531,4.591 c -0.088,0.639 -0.171,1.273 -0.042,1.869 0.061,0.279 0.348,0.401 0.635,0.342 0.646,-0.134 1.476,-1.618 1.764,-1.68 0.179,-0.035 0.343,0.038 0.383,0.215 0.046,0.208 -1.822,2.782 -3.143,3.055 -0.967,0.203 -1.617,-0.211 -1.858,-1.328 -0.205,-0.938 0,-1.893 0.088,-2.86 -0.699,1.97 -1.481,4.901 -4.126,5.448 z"
         id="path183"
         inkscape:connector-curvature="0"
         style="fill:#ffffff" />
      <path
         d="m 82.454,82.232 c -0.662,0.139 -1.067,-0.246 -1.227,-0.992 -0.056,-0.25 0.06,-4.987 0.519,-5.083 l 1.404,-0.419 c 0.331,-0.068 0.337,-0.044 0.369,0.105 0.022,0.102 -0.009,0.209 -0.01,0.314 l -0.455,2.934 c -0.091,0.564 -0.214,1.346 -0.145,1.671 0.033,0.148 0.076,0.349 0.409,0.278 0.383,-0.079 1.049,-1.051 1.254,-1.092 0.128,-0.027 0.222,0.03 0.247,0.156 0.055,0.247 -1.292,1.909 -2.365,2.128 z m 0.657,-8.255 c -0.714,0.146 -1.181,-0.277 -1.309,-0.875 -0.147,-0.671 0.17,-1.417 0.859,-1.559 0.714,-0.147 1.217,0.322 1.353,0.942 0.164,0.75 -0.238,1.353 -0.903,1.492 z"
         id="path185"
         inkscape:connector-curvature="0"
         style="fill:#ffffff" />
      <path
         d="m 85.224,81.478 c -0.33,0.068 -0.366,0.024 -0.398,-0.125 -0.022,-0.101 0.013,-0.185 0.016,-0.292 l 0.136,-2.189 c 0.021,-0.522 0.096,-1.031 0.139,-1.563 l 0.112,-1.325 c 0.029,-0.242 -0.002,-0.494 0.376,-0.599 l 1.301,-0.399 c 0.229,-0.049 0.285,-0.033 0.29,-0.007 0.035,0.149 -0.041,0.293 -0.059,0.455 l -0.25,1.796 c -0.057,0.349 -0.087,0.694 -0.113,1.063 0.752,-1.926 1.443,-3.527 3.027,-3.854 0.765,-0.159 1.464,0.242 1.646,1.065 C 91.554,76 91.421,76.497 91.372,77 l -0.219,1.818 c -0.019,0.159 -0.038,0.318 -0.006,0.468 0.021,0.101 0.129,0.21 0.229,0.189 0.484,-0.102 1.208,-1.188 1.514,-1.254 0.08,-0.015 0.201,0.065 0.225,0.164 0.053,0.248 -1.133,1.899 -2.432,2.172 -0.896,0.184 -1.24,-0.29 -1.375,-0.914 -0.093,-0.423 -0.027,-1.35 0.063,-2.017 l 0.16,-1.232 c 0.022,-0.264 0.073,-0.639 0.043,-0.791 -0.046,-0.198 -0.229,-0.316 -0.407,-0.276 -0.97,0.199 -2.15,3.462 -2.438,5.453 -0.083,0.224 -0.201,0.428 -0.507,0.492 z"
         id="path187"
         inkscape:connector-curvature="0"
         style="fill:#ffffff" />
    </g>
  </g>
</svg>
