<?xml version="1.0" encoding="UTF-8" standalone="no"?>
<!-- Created with Inkscape (http://www.inkscape.org/) -->

<svg
   xmlns:dc="http://purl.org/dc/elements/1.1/"
   xmlns:cc="http://creativecommons.org/ns#"
   xmlns:rdf="http://www.w3.org/1999/02/22-rdf-syntax-ns#"
   xmlns:svg="http://www.w3.org/2000/svg"
   xmlns="http://www.w3.org/2000/svg"
   xmlns:sodipodi="http://sodipodi.sourceforge.net/DTD/sodipodi-0.dtd"
   xmlns:inkscape="http://www.inkscape.org/namespaces/inkscape"
   width="50"
   height="50"
   viewBox="0 0 13.229166 13.229167"
   version="1.1"
   id="svg8"
   inkscape:version="0.92.2 (5c3e80d, 2017-08-06)"
   sodipodi:docname="fs.svg">
  <defs
     id="defs2">
    <inkscape:perspective
       inkscape:vp_z="177.006 : 86.377998 : 1"
       sodipodi:type="inkscape:persp3d"
       inkscape:vp_x="0 : 86.377998 : 1"
       inkscape:vp_y="0 : 1000 : 0"
       inkscape:persp3d-origin="88.502998 : 57.585332 : 1"
       id="perspective194" />
    <inkscape:perspective
       id="perspective3012"
       inkscape:persp3d-origin="287.78299 : 47.359334 : 1"
       inkscape:vp_z="575.56598 : 71.039001 : 1"
       inkscape:vp_y="0 : 1000 : 0"
       inkscape:vp_x="0 : 71.039001 : 1"
       sodipodi:type="inkscape:persp3d" />
    <inkscape:perspective
       sodipodi:type="inkscape:persp3d"
       inkscape:vp_x="0 : 0.5 : 1"
       inkscape:vp_y="0 : 1000 : 0"
       inkscape:vp_z="1 : 0.5 : 1"
       inkscape:persp3d-origin="0.5 : 0.33333333 : 1"
       id="perspective3072" />
    <inkscape:perspective
       id="perspective194-8"
       inkscape:persp3d-origin="88.502998 : 57.585332 : 1"
       inkscape:vp_y="0 : 1000 : 0"
       inkscape:vp_x="0 : 86.377998 : 1"
       sodipodi:type="inkscape:persp3d"
       inkscape:vp_z="177.006 : 86.377998 : 1" />
    <inkscape:perspective
       sodipodi:type="inkscape:persp3d"
       inkscape:vp_x="0 : 71.039001 : 1"
       inkscape:vp_y="0 : 1000 : 0"
       inkscape:vp_z="575.56598 : 71.039001 : 1"
       inkscape:persp3d-origin="287.78299 : 47.359334 : 1"
       id="perspective3012-5" />
    <inkscape:perspective
       id="perspective3072-8"
       inkscape:persp3d-origin="0.5 : 0.33333333 : 1"
       inkscape:vp_z="1 : 0.5 : 1"
       inkscape:vp_y="0 : 1000 : 0"
       inkscape:vp_x="0 : 0.5 : 1"
       sodipodi:type="inkscape:persp3d" />
  </defs>
  <sodipodi:namedview
     id="base"
     pagecolor="#ffffff"
     bordercolor="#666666"
     borderopacity="1.0"
     inkscape:pageopacity="0.0"
     inkscape:pageshadow="2"
     inkscape:zoom="14.481547"
     inkscape:cx="14.906402"
     inkscape:cy="24.44742"
     inkscape:document-units="mm"
     inkscape:current-layer="layer1"
     showgrid="false"
     fit-margin-top="0"
     fit-margin-left="0"
     fit-margin-right="0"
     fit-margin-bottom="0"
     inkscape:window-width="1680"
     inkscape:window-height="987"
     inkscape:window-x="2792"
     inkscape:window-y="32"
     inkscape:window-maximized="1"
     units="px" />
  <metadata
     id="metadata5">
    <rdf:RDF>
      <cc:Work
         rdf:about="">
        <dc:format>image/svg+xml</dc:format>
        <dc:type
           rdf:resource="http://purl.org/dc/dcmitype/StillImage" />
        <dc:title></dc:title>
      </cc:Work>
    </rdf:RDF>
  </metadata>
  <g
     inkscape:label="Layer 1"
     inkscape:groupmode="layer"
     id="layer1"
     transform="translate(-178.36582,-147.00303)">
    <ellipse
       style="fill:#ffffff;fill-opacity:1;stroke:none;stroke-width:0.03599546;stroke-linecap:butt;stroke-linejoin:miter;stroke-miterlimit:4;stroke-dasharray:none;stroke-dashoffset:0;stroke-opacity:1;paint-order:stroke fill markers"
       id="path31930"
       cx="184.97971"
       cy="153.70967"
       rx="6.4311738"
       ry="3.7454274" />
    <g
       transform="translate(-0.00331841,0.22290686)"
       id="layer1-7"
       inkscape:label="Layer 1">
      <g
         transform="matrix(0.22080254,0,0,0.22080254,178.30764,149.50057)"
         id="g31638">
        <g
           transform="matrix(0.00445429,0,0,-0.00438826,-0.94614004,38.073045)"
           id="g6"
           style="fill:#003380;fill-opacity:1;stroke:none">
          <path
             d="m 6470,8564 c -25,-2 -124,-8 -220,-14 C 5405,8498 4529,8332 3771,8081 2443,7641 1417,6964 821,6132 539,5738 362,5305 305,4867 285,4711 285,4379 305,4223 353,3854 479,3506 686,3165 1109,2470 1898,1818 2850,1375 4289,706 6081,414 7880,556 c 2319,182 4288,1063 5256,2350 118,157 213,313 304,499 123,251 194,464 241,726 30,173 38,558 15,739 -95,727 -495,1393 -1198,1996 -1010,865 -2547,1456 -4273,1644 -422,45 -561,52 -1145,55 -311,1 -585,1 -610,-1 z m 368,-186 c 17,-17 16,-177 0,-183 -7,-2 -105,-9 -218,-15 C 5322,8110 4151,7695 3270,6993 3113,6868 2777,6537 2668,6400 2206,5817 1980,5207 1980,4540 c 0,-733 278,-1401 838,-2017 497,-546 1222,-999 2043,-1278 559,-190 1200,-308 1800,-331 116,-5 172,-11 179,-20 6,-7 10,-48 8,-96 l -3,-83 -175,2 c -96,2 -249,7 -340,13 -1858,119 -3505,687 -4630,1600 -148,120 -451,424 -564,565 -360,452 -576,949 -627,1444 -16,153 -6,423 20,576 45,261 108,452 236,710 355,721 1041,1345 2020,1840 865,438 1871,725 2995,854 293,34 574,53 1006,69 22,1 45,-3 52,-10 z m 667,-3 c 747,-30 1615,-169 2313,-371 778,-225 1485,-543 2062,-927 716,-478 1206,-1043 1455,-1680 327,-836 166,-1704 -461,-2492 -113,-141 -436,-465 -584,-585 C 11102,1357 9355,788 7355,714 c -155,-6 -182,-4 -193,9 -9,10 -12,42 -10,99 l 3,83 155,7 c 1165,51 2240,384 3098,958 606,406 1040,882 1317,1444 216,440 308,857 292,1331 -25,750 -323,1402 -917,2009 -535,547 -1182,938 -2005,1211 -546,181 -1087,281 -1710,316 -115,6 -216,16 -222,22 -14,10 -19,168 -6,181 4,4 53,5 108,2 55,-3 163,-8 240,-11 z m 80,-359 c 637,-63 1191,-190 1705,-391 634,-248 1291,-652 1518,-933 458,-570 722,-1213 782,-1907 16,-180 7,-485 -19,-667 -53,-364 -150,-675 -316,-1013 -107,-219 -210,-388 -357,-583 -126,-169 -208,-251 -364,-369 C 9334,1246 7582,865 5905,1146 c -834,140 -1589,430 -2230,857 -259,173 -389,281 -491,407 -426,527 -685,1127 -770,1786 -21,157 -24,511 -6,669 77,683 345,1306 795,1850 120,145 427,371 767,566 758,434 1658,689 2655,753 142,9 817,-3 960,-18 z"
             id="path10"
             inkscape:connector-curvature="0"
             style="fill:#8ba0b2;fill-opacity:1" />
          <path
             d="M 3925,7786 C 3066,7499 2389,7137 1825,6663 1672,6535 1409,6267 1296,6125 1031,5791 860,5454 769,5085 c -25,-101 -59,-310 -59,-361 0,-12 72,-14 537,-12 l 538,3 11,110 c 63,593 306,1146 730,1661 364,443 883,846 1484,1151 80,41 149,79 153,86 12,17 -16,121 -34,124 -8,1 -99,-26 -204,-61 z"
             id="path12"
             inkscape:connector-curvature="0"
             style="fill:#003380;fill-opacity:1" />
          <path
             d="m 710,4417 c 0,-266 102,-643 256,-944 409,-802 1307,-1522 2486,-1993 213,-86 633,-230 667,-230 15,0 23,10 31,42 26,93 35,83 -170,188 -777,401 -1355,909 -1738,1530 -248,401 -413,875 -446,1280 -4,41 -9,101 -12,133 l -6,57 H 1244 710 Z"
             id="path14"
             inkscape:connector-curvature="0"
             style="fill:#003380;fill-opacity:1" />
          <path
             d="m 9841,7806 c -22,-89 -26,-84 132,-164 585,-295 1092,-677 1441,-1086 204,-239 337,-436 473,-703 180,-351 275,-661 316,-1033 l 12,-105 539,-3 538,-2 -6,67 c -56,554 -303,1063 -752,1545 -530,570 -1273,1036 -2184,1371 -196,72 -456,157 -481,157 -11,0 -20,-14 -28,-44 z"
             id="path16"
             inkscape:connector-curvature="0"
             style="fill:#003380;fill-opacity:1" />
          <path
             d="m 12220,4471 c 0,-52 -26,-290 -41,-381 -179,-1061 -989,-2030 -2206,-2639 -132,-66 -143,-73 -143,-99 0,-48 20,-102 37,-102 25,0 229,65 423,135 1170,423 2067,1051 2569,1800 231,345 362,678 416,1060 8,55 15,130 15,168 v 67 h -535 c -329,0 -535,-4 -535,-9 z"
             id="path18"
             inkscape:connector-curvature="0"
             style="fill:#003380;fill-opacity:1" />
          <path
             d="m 3412,3427 -82,-82 v -205 -206 l 68,-67 68,-67 h 306 c 265,0 309,-2 322,-16 20,-19 23,-153 4,-172 -9,-9 -100,-12 -347,-12 l -336,-1 -42,-40 -43,-40 v -89 -90 h 478 477 l 83,83 82,82 v 205 206 l -73,72 -72,72 h -306 c -224,0 -308,3 -317,12 -16,16 -16,150 0,166 9,9 98,12 338,12 h 326 l 32,33 c 32,32 32,34 32,130 v 97 h -458 -457 z"
             id="path26"
             inkscape:connector-curvature="0"
             style="fill:#003380;fill-opacity:1" />
          <path
             d="m 4630,2925 v -585 h 165 165 l 2,183 3,182 310,3 310,2 87,87 88,88 v 225 225 l -87,87 -88,88 h -477 -478 z m 765,300 c 23,-22 25,-31 25,-126 0,-92 -2,-105 -22,-126 -21,-23 -26,-23 -218,-23 -139,0 -199,3 -208,12 -13,13 -18,269 -5,281 3,4 96,7 205,7 198,0 199,0 223,-25 z"
             id="path28"
             inkscape:connector-curvature="0"
             style="fill:#003380;fill-opacity:1" />
          <path
             d="m 5996,3416 -86,-94 v -404 -403 l 88,-88 87,-87 h 400 400 l 87,87 88,88 v 410 410 l -88,88 -87,87 h -401 -402 z m 700,-210 34,-34 v -238 -238 l -32,-33 -32,-33 h -174 -174 l -34,34 -34,34 v 238 238 l 32,33 32,33 h 174 174 z"
             id="path30"
             inkscape:connector-curvature="0"
             style="fill:#003380;fill-opacity:1" />
          <path
             d="m 7250,2925 v -585 h 170 170 l 2,208 3,207 146,3 c 109,2 149,-1 156,-10 6,-7 42,-101 80,-208 l 70,-195 187,-3 c 182,-2 186,-2 186,18 0,12 -40,117 -90,233 -49,117 -90,217 -90,223 0,5 32,41 70,79 l 70,69 v 191 190 l -83,83 -82,82 h -483 -482 z m 765,300 c 22,-21 25,-33 25,-91 0,-56 -4,-72 -22,-91 -21,-22 -26,-23 -213,-23 -135,0 -195,4 -203,12 -13,13 -17,199 -5,211 3,4 94,7 200,7 193,0 194,0 218,-25 z"
             id="path32"
             inkscape:connector-curvature="0"
             style="fill:#003380;fill-opacity:1" />
          <path
             d="m 8470,3365 v -145 h 173 c 121,0 177,-4 185,-12 9,-9 12,-120 12,-440 v -428 h 165 165 l 2,438 3,437 183,3 182,2 v 145 145 h -535 -535 z"
             id="path34"
             inkscape:connector-curvature="0"
             style="fill:#003380;fill-opacity:1" />
          <path
             d="m 9707,3432 -77,-77 v -210 -211 l 68,-67 68,-67 h 306 c 265,0 309,-2 322,-16 20,-19 23,-153 4,-172 -9,-9 -101,-12 -353,-12 h -341 l -37,-38 -37,-38 v -92 -92 h 478 477 l 78,78 77,77 v 215 216 l -68,67 -68,67 h -305 c -224,0 -308,3 -317,12 -7,7 -12,41 -12,83 0,42 5,76 12,83 9,9 98,12 338,12 h 326 l 32,33 c 32,32 32,34 32,130 v 97 h -463 -462 z"
             id="path36"
             inkscape:connector-curvature="0"
             style="fill:#003380;fill-opacity:1" />
        </g>
        <path
           inkscape:connector-curvature="0"
           d="m 46.669313,21.774347 c -1.479434,0 -2.98554,0 -4.447192,0 -0.04088,0 -0.11558,-0.176075 -0.136918,-0.212686 -0.61169,-1.082597 -1.223379,-2.170424 -1.831511,-3.251278 -0.650809,1.150585 -1.283835,2.320349 -1.932867,3.47268 -1.456317,0.0035 -2.900187,-0.007 -4.344057,-0.0035 0.163591,-0.29985 0.337852,-0.592727 0.512111,-0.887347 1.214488,-2.057109 2.411192,-4.142111 3.627458,-6.200963 -1.292726,-2.214007 -2.605011,-4.410582 -3.904852,-6.61936 -0.0034,0 -0.01244,-0.01395 -0.0034,-0.01221 1.490103,0 2.978428,0 4.468531,0 0.549452,0.979742 1.084679,1.971687 1.625242,2.958402 0.561901,-0.977998 1.104242,-1.975173 1.660806,-2.958402 1.440315,0 2.878851,0 4.319164,0 0.0034,0.01744 -0.0089,0.03661 -0.01778,0.05055 -1.260719,2.172168 -2.551668,4.351308 -3.810608,6.526964 1.399416,2.381365 2.825503,4.760987 4.21603,7.137122 z"
           style="fill:#003380;fill-opacity:1"
           id="path1371_1_" />
        <path
           inkscape:connector-curvature="0"
           d="m 35.872293,13.382039 c 0.113802,0.453261 0.179594,0.951847 0.179594,1.476584 0,1.63697 -0.483661,2.850317 -1.155807,3.837033 -0.113803,0.167358 -0.229383,0.327743 -0.353856,0.481154 -0.364523,0.453263 -0.805508,0.866425 -1.298059,1.209859 -0.330741,0.230117 -0.675705,0.439315 -1.05801,0.615389 -0.761054,0.350406 -1.680365,0.624106 -2.740153,0.624106 -1.65725,0 -2.880626,-0.495101 -3.871065,-1.174992 -0.99044,-0.681637 -1.762162,-1.58293 -2.286721,-2.719568 -0.352076,-0.761829 -0.583238,-1.640458 -0.609909,-2.710851 -0.01245,-0.529969 0.05512,-1.052963 0.152921,-1.506223 0.248944,-1.143613 0.737937,-2.039676 1.356739,-2.811963 0.618803,-0.770545 1.402974,-1.373731 2.350736,-1.828736 0.371636,-0.177818 0.787727,-0.329486 1.241159,-0.439314 0.453432,-0.109829 0.954876,-0.184792 1.497216,-0.184792 0.0034,0 0.0053,0 0.0089,0 0.529892,-0.0244 1.091793,0.05927 1.532778,0.155155 0.458768,0.09937 0.883749,0.251037 1.262497,0.418395 1.173589,0.519507 2.048446,1.297025 2.752599,2.268051 0.464102,0.636308 0.812622,1.399879 1.03845,2.290713 z m -5.334497,4.543072 c 0.04267,-0.167359 0.03023,-0.381784 0.03023,-0.603186 0,-1.68927 0,-3.343674 0,-5.038173 0,-0.216173 -0.02489,-0.38353 -0.08891,-0.540428 -0.05868,-0.142952 -0.149369,-0.273701 -0.256058,-0.380041 -0.208045,-0.207455 -0.521003,-0.393989 -0.913977,-0.364353 -0.190264,0.01395 -0.348519,0.07322 -0.487217,0.158641 -0.257834,0.160386 -0.453432,0.406192 -0.533451,0.732191 -0.04088,0.165616 -0.03912,0.376555 -0.03912,0.594469 0,1.666609 0,3.355878 0,5.038175 0,0.108085 -0.0053,0.212684 0.0089,0.30508 0.03734,0.264983 0.158257,0.477666 0.316513,0.636308 0.20449,0.203969 0.521003,0.374813 0.92998,0.33123 0.528117,-0.05578 0.915756,-0.399219 1.033114,-0.869913 z"
           style="fill:#003380;fill-opacity:1"
           id="path1373_1_" />
        <path
           inkscape:connector-curvature="0"
           d="m 22.859678,11.800853 c -1.575453,0 -3.14913,0 -4.724586,0 -0.01956,0.575294 -0.0034,1.211603 -0.0089,1.790383 1.276723,0.01047 2.573005,0.0019 3.858619,0.0035 0,1.2517 0,2.501655 0,3.753354 -1.294504,0.0035 -2.599678,-0.0054 -3.887068,0.0035 0.0017,1.488788 0.0089,2.949684 0.0089,4.438473 0,0.0054 -0.0017,0.007 -0.0034,0.0087 -1.312286,0 -2.626351,0 -3.938637,0 -0.0071,0.0019 -0.0071,-0.0035 -0.01244,-0.0035 -0.0089,-4.570966 -0.0089,-9.171569 -0.0018,-13.744278 0,-0.0053 0,-0.01221 0.0034,-0.01221 2.813057,0 5.626116,0 8.437395,0 0.0053,0 0.0071,0 0.0089,0.0035 0.0889,1.251698 0.174261,2.50514 0.259612,3.758582 z"
           style="fill:#003380;fill-opacity:1"
           id="path1377_1_" />
      </g>
    </g>
  </g>
</svg>
