<?xml version="1.0" encoding="UTF-8" standalone="no"?>
<!-- Created with Inkscape (http://www.inkscape.org/) -->

<svg
   xmlns:dc="http://purl.org/dc/elements/1.1/"
   xmlns:cc="http://creativecommons.org/ns#"
   xmlns:rdf="http://www.w3.org/1999/02/22-rdf-syntax-ns#"
   xmlns:svg="http://www.w3.org/2000/svg"
   xmlns="http://www.w3.org/2000/svg"
   xmlns:sodipodi="http://sodipodi.sourceforge.net/DTD/sodipodi-0.dtd"
   xmlns:inkscape="http://www.inkscape.org/namespaces/inkscape"
   width="50"
   height="50"
   viewBox="0 0 13.229166 13.229167"
   version="1.1"
   id="svg8"
   inkscape:version="0.92.2 (5c3e80d, 2017-08-06)"
   sodipodi:docname="msg.svg">
  <defs
     id="defs2">
    <inkscape:perspective
       inkscape:vp_z="177.006 : 86.377998 : 1"
       sodipodi:type="inkscape:persp3d"
       inkscape:vp_x="0 : 86.377998 : 1"
       inkscape:vp_y="0 : 1000 : 0"
       inkscape:persp3d-origin="88.502998 : 57.585332 : 1"
       id="perspective194" />
    <inkscape:perspective
       id="perspective3012"
       inkscape:persp3d-origin="287.78299 : 47.359334 : 1"
       inkscape:vp_z="575.56598 : 71.039001 : 1"
       inkscape:vp_y="0 : 1000 : 0"
       inkscape:vp_x="0 : 71.039001 : 1"
       sodipodi:type="inkscape:persp3d" />
    <inkscape:perspective
       sodipodi:type="inkscape:persp3d"
       inkscape:vp_x="0 : 0.5 : 1"
       inkscape:vp_y="0 : 1000 : 0"
       inkscape:vp_z="1 : 0.5 : 1"
       inkscape:persp3d-origin="0.5 : 0.33333333 : 1"
       id="perspective3072" />
  </defs>
  <sodipodi:namedview
     id="base"
     pagecolor="#ffffff"
     bordercolor="#666666"
     borderopacity="1.0"
     inkscape:pageopacity="0.0"
     inkscape:pageshadow="2"
     inkscape:zoom="5.12"
     inkscape:cx="14.400031"
     inkscape:cy="28.111882"
     inkscape:document-units="mm"
     inkscape:current-layer="layer1"
     showgrid="false"
     fit-margin-top="0"
     fit-margin-left="0"
     fit-margin-right="0"
     fit-margin-bottom="0"
     inkscape:window-width="1680"
     inkscape:window-height="987"
     inkscape:window-x="2792"
     inkscape:window-y="32"
     inkscape:window-maximized="1"
     units="px" />
  <metadata
     id="metadata5">
    <rdf:RDF>
      <cc:Work
         rdf:about="">
        <dc:format>image/svg+xml</dc:format>
        <dc:type
           rdf:resource="http://purl.org/dc/dcmitype/StillImage" />
        <dc:title></dc:title>
      </cc:Work>
    </rdf:RDF>
  </metadata>
  <g
     inkscape:label="Layer 1"
     inkscape:groupmode="layer"
     id="layer1"
     transform="translate(-178.36582,-147.00303)">
    <g
       id="g31771"
       transform="matrix(0.47171652,0,0,0.63333502,96.974854,56.434129)">
      <path
         inkscape:connector-curvature="0"
         id="path31706"
         d="m 173.17706,152.68019 c -0.007,-0.10033 -0.0274,-0.20058 -0.0216,-0.301 8e-4,-0.013 0.0299,0.009 0.0391,0 0.009,-0.009 -0.009,-0.0299 0,-0.0391 0.009,-0.009 0.0299,0.009 0.0392,0 0.009,-0.009 -0.009,-0.0299 0,-0.0391 0.009,-0.009 0.0261,0 0.0391,0 0.0652,0 0.13049,0 0.19573,0 0.013,0 0.0299,0.009 0.0392,0 0.009,-0.009 -0.009,-0.0299 0,-0.0392 0.0259,-0.026 0.0523,0.026 0.0783,0 0.009,-0.009 -0.009,-0.0299 0,-0.0391 0.009,-0.009 0.0299,0.009 0.0392,0 0.009,-0.009 -0.009,-0.0299 0,-0.0392 0.009,-0.009 0.0299,0.009 0.0392,0 0.009,-0.009 -0.009,-0.0299 0,-0.0391 0.002,-0.002 0.17727,0 0.19573,0 0.013,0 0.0299,0.009 0.0391,0 0.009,-0.009 -0.009,-0.0299 0,-0.0392 0.009,-0.009 0.0275,0.006 0.0392,0 0.033,-0.0165 0.0453,-0.0618 0.0783,-0.0783 0.0117,-0.006 0.0275,0.006 0.0392,0 0.033,-0.0165 0.0453,-0.0618 0.0783,-0.0783 0.0117,-0.006 0.0299,0.009 0.0392,0 0.009,-0.009 -0.009,-0.0299 0,-0.0392 0.009,-0.009 0.0299,0.009 0.0391,0 0.009,-0.009 -0.009,-0.0299 0,-0.0391 0.0185,-0.0185 0.0598,0.0185 0.0783,0 0.009,-0.009 -0.009,-0.0299 0,-0.0391 0.0185,-0.0185 0.0549,0.0117 0.0783,0 0.0165,-0.008 0.0226,-0.0309 0.0391,-0.0392 0.0212,-0.0106 0.14588,0.0107 0.15659,0 0.009,-0.009 -0.009,-0.0299 0,-0.0392 0.009,-0.009 0.14716,0.009 0.15658,0 0.009,-0.009 -0.009,-0.0299 0,-0.0391 0.009,-0.009 0.14717,0.009 0.15659,0 0.009,-0.009 -0.009,-0.0299 0,-0.0391 0.0185,-0.0185 0.055,0.0117 0.0783,0 0.0165,-0.008 0.0226,-0.0309 0.0392,-0.0391 0.0233,-0.0117 0.0598,0.0185 0.0783,0 0.009,-0.009 -0.009,-0.0299 0,-0.0392 0.0185,-0.0185 0.0598,0.0185 0.0783,0 0.009,-0.009 -0.009,-0.0299 0,-0.0392 0.0185,-0.0185 0.0549,0.0117 0.0783,0 0.0165,-0.008 0.0226,-0.0309 0.0391,-0.0391 0.0117,-0.006 0.0299,0.009 0.0391,0 0.009,-0.009 -0.009,-0.0299 0,-0.0392 0.0185,-0.0185 0.0598,0.0185 0.0783,0 0.009,-0.009 -0.009,-0.0299 0,-0.0391 0.0185,-0.0185 0.0598,0.0184 0.0783,0 0.009,-0.009 -0.009,-0.0299 0,-0.0392 0.0184,-0.0185 0.0598,0.0185 0.0783,0 0.009,-0.009 -0.009,-0.0299 0,-0.0392 0.0185,-0.0185 0.055,0.0117 0.0783,0 0.0165,-0.008 0.0226,-0.0309 0.0391,-0.0391 0.0117,-0.006 0.0299,0.009 0.0391,0 0.009,-0.009 -0.009,-0.0299 0,-0.0392 0.0185,-0.0185 0.0598,0.0185 0.0783,0 0.009,-0.009 0,-0.0261 0,-0.0391 0.013,0 0.0299,0.009 0.0392,0 0.009,-0.009 -0.009,-0.0299 0,-0.0391 0.0196,-0.0196 0.0979,0.0196 0.11743,0 0.009,-0.009 -0.009,-0.0299 0,-0.0392 0.0185,-0.0185 0.0598,0.0185 0.0783,0 0.009,-0.009 -0.009,-0.0299 0,-0.0392 0.0185,-0.0185 0.0598,0.0185 0.0783,0 0.009,-0.009 -0.009,-0.0299 0,-0.0391 0.0185,-0.0185 0.0598,0.0185 0.0783,0 0.009,-0.009 -0.009,-0.0299 0,-0.0392 0.0185,-0.0184 0.0598,0.0185 0.0783,0 0.009,-0.009 -0.009,-0.0299 0,-0.0391 0.009,-0.009 0.14717,0.009 0.15659,0 0.009,-0.009 -0.009,-0.0299 0,-0.0392 0.009,-0.009 0.0261,0 0.0391,0 0.013,0 0.0261,0 0.0392,0 0.013,0 0.0261,0 0.0392,0 0.013,0 0.0299,0.009 0.0391,0 0.009,-0.009 -0.009,-0.0299 0,-0.0391 0.0185,-0.0185 0.0598,0.0185 0.0783,0 0.009,-0.009 -0.009,-0.0299 0,-0.0392 0.009,-0.009 0.14717,0.009 0.15659,0 0.009,-0.009 -0.009,-0.0299 0,-0.0392 0.009,-0.009 0.14717,0.009 0.15659,0 0.009,-0.009 -0.009,-0.0299 0,-0.0391 0.009,-0.009 0.14716,0.009 0.15658,0 0.009,-0.009 -0.009,-0.0299 0,-0.0392 0.008,-0.008 0.10192,0.008 0.11744,0 0.0165,-0.008 0.0226,-0.0309 0.0391,-0.0392 0.0155,-0.008 0.10944,0.008 0.11744,0 0.009,-0.009 -0.009,-0.0299 0,-0.0391 0.002,-0.002 0.14221,0 0.15659,0 0.0783,0 0.15658,0 0.23487,0 0.0176,0 0.10553,-0.006 0.11744,0 0.0165,0.008 0.0226,0.0309 0.0392,0.0391 0.0142,0.007 0.1685,0 0.19573,0 0.18268,0 0.36537,0 0.54805,0 0.013,0 0.0261,0 0.0391,0 0.0131,0 0.0299,-0.009 0.0392,0 0.009,0.009 -0.009,0.0299 0,0.0392 0.0137,0.0137 0.16869,-0.0135 0.19573,0 0.0165,0.008 0.0226,0.0309 0.0392,0.0392 0.0101,0.005 0.20713,0 0.23487,0 0.013,0 0.0299,-0.009 0.0392,0 0.009,0.009 -0.009,0.0299 0,0.0391 0.009,0.009 0.0261,0 0.0391,0 0.0783,0 0.15658,0 0.23487,0 0.009,0 0.11618,-0.001 0.11744,0 0.009,0.009 -0.009,0.0299 0,0.0392 0.009,0.009 0.0261,0 0.0392,0 0.0277,0 0.22475,-0.005 0.23487,0 0.0165,0.008 0.0226,0.0309 0.0391,0.0392 0.0117,0.006 0.0261,0 0.0392,0 0.013,0 0.0261,0 0.0391,0 0.0783,0 0.15659,0 0.23488,0 0.013,0 0.0261,0 0.0392,0 0.013,0 0.0299,-0.009 0.0391,0 0.009,0.009 -0.009,0.0299 0,0.0391 0.001,0.001 0.10795,0 0.11744,0 0.19573,0 0.39146,0 0.58719,0 0.01,0 0.11618,-10e-4 0.11744,0 0.009,0.009 -0.009,0.0299 0,0.0392 0.009,0.009 0.0261,0 0.0391,0 0.0391,0 0.0783,0 0.11744,0 0.10439,0 0.20878,0 0.31317,0 0.0205,0 0.14629,-0.005 0.15658,0 0.0165,0.008 0.0226,0.0309 0.0391,0.0391 0.0103,0.005 0.13611,0 0.15658,0 0.0144,0 0.15501,0.002 0.15659,0 0.009,-0.009 -0.009,-0.0299 0,-0.0391 0.001,-0.001 0.10794,0 0.11744,0 0.11743,0 0.23487,0 0.35231,0 0.013,0 0.0261,0 0.0392,0 0.013,0 0.0299,-0.009 0.0391,0 0.009,0.009 -0.009,0.0299 0,0.0391 0.009,0.009 0.0261,0 0.0392,0 0,0.0131 -0.009,0.0299 0,0.0392 0.0185,0.0185 0.0598,-0.0185 0.0783,0 0.009,0.009 -0.009,0.0299 0,0.0391 0.0185,0.0185 0.0598,-0.0185 0.0783,0 0.009,0.009 -0.009,0.0299 0,0.0392 0.009,0.009 0.0299,-0.009 0.0391,0 0.009,0.009 -0.009,0.0299 0,0.0392 0.009,0.009 0.0299,-0.009 0.0392,0 0.009,0.009 -0.009,0.0299 0,0.0391 0.009,0.009 0.0299,-0.009 0.0391,0 0.0185,0.0185 -0.0117,0.0549 0,0.0783 0.008,0.0165 0.0309,0.0226 0.0392,0.0391 0.0117,0.0234 -0.0185,0.0598 0,0.0783 0.009,0.009 0.0299,-0.009 0.0391,0 0.0196,0.0196 -0.0196,0.0979 0,0.11743 0.009,0.009 0.0299,-0.009 0.0391,0 0.0185,0.0185 -0.0117,0.0549 0,0.0783 0.008,0.0165 0.0309,0.0226 0.0392,0.0391 0.008,0.0155 -0.008,0.10944 0,0.11744 0.009,0.009 0.0299,-0.009 0.0391,0 0.0196,0.0196 -0.0196,0.0979 0,0.11744 0.009,0.009 0.0299,-0.009 0.0392,0 0.0121,0.0121 -0.0121,0.18361 0,0.19573 0.009,0.009 0.0299,-0.009 0.0392,0 0.0185,0.0185 -0.0185,0.0598 0,0.0783 0.009,0.009 0.0299,-0.009 0.0391,0 0.009,0.009 -0.009,0.14717 0,0.15659 0.009,0.009 0.0299,-0.009 0.0392,0 0.0185,0.0185 -0.0185,0.0598 0,0.0783 0.009,0.009 0.0299,-0.009 0.0392,0 0.0185,0.0185 -0.0185,0.0598 0,0.0783 0.009,0.009 0.0391,-0.013 0.0391,0 0,0.013 -0.0391,0.013 -0.0391,0 0,-0.0185 0.0309,-0.0226 0.0391,-0.0391 0.0123,-0.0246 -0.0123,-0.13198 0,-0.15659 0.008,-0.0165 0.0309,-0.0226 0.0392,-0.0392 0.006,-0.0117 0,-0.0261 0,-0.0391 0,-0.013 0,-0.0261 0,-0.0392 0,-0.10439 -0.0131,0.013 0.0391,-0.0391 0.009,-0.009 -0.009,-0.14717 0,-0.15659 0.009,-0.009 0.0299,0.009 0.0391,0 0.0121,-0.0121 -0.0121,-0.18361 0,-0.19573 0.009,-0.009 0.0299,0.009 0.0391,0 0.0196,-0.0196 -0.0196,-0.0979 0,-0.11744 0.009,-0.009 0.0299,0.009 0.0392,0 0.0196,-0.0196 -0.0196,-0.0979 0,-0.11744 0.009,-0.009 0.0299,0.009 0.0392,0 0.0185,-0.0185 -0.0117,-0.0549 0,-0.0783 0.008,-0.0165 0.0309,-0.0226 0.0391,-0.0391 0.006,-0.0117 -0.009,-0.0299 0,-0.0392 0.009,-0.009 0.0299,0.009 0.0391,0 0.0185,-0.0185 -0.0185,-0.0598 0,-0.0783 0.009,-0.009 0.0261,0 0.0392,0 0,-0.013 -0.009,-0.0299 0,-0.0392 0.009,-0.009 0.0299,0.009 0.0391,0 0,-0.10439 -0.013,0.013 0.0392,-0.0391 0.009,-0.009 -0.009,-0.0299 0,-0.0391 0.0185,-0.0185 0.0598,0.0185 0.0783,0 0.009,-0.009 -0.009,-0.0299 0,-0.0392 0.009,-0.009 0.0299,0.009 0.0391,0 0.009,-0.009 -0.009,-0.0299 0,-0.0392 0.009,-0.009 0.0299,0.009 0.0391,0 0.009,-0.009 -0.009,-0.0299 0,-0.0391 0.009,-0.009 0.0299,0.009 0.0392,0 0.009,-0.009 -0.009,-0.0299 0,-0.0392 0.002,-0.002 0.17727,0 0.19573,0 0.013,0 0.0299,0.009 0.0392,0 0.009,-0.009 -0.009,-0.0299 0,-0.0391 0.0185,-0.0185 0.0598,0.0185 0.0783,0 0.009,-0.009 -0.009,-0.0299 0,-0.0392 0.009,-0.009 0.0299,0.009 0.0392,0 0.009,-0.009 -0.009,-0.0299 0,-0.0391 0.009,-0.009 0.0261,0 0.0391,0 0.0913,0 0.18268,0 0.27402,0 0.013,0 0.0261,0 0.0392,0 0.013,0 0.0299,-0.009 0.0391,0 0.0522,0.0522 -0.0652,0.0391 0.0391,0.0391 0.11744,0 0.23488,0 0.35232,0 0.013,0 0.0261,0 0.0391,0 0.013,0 0.0299,-0.009 0.0391,0 0.009,0.009 -0.009,0.0299 0,0.0392 0.009,0.009 0.0261,0 0.0392,0 0.013,0 0.0261,0 0.0391,0 0.10439,0 0.20878,0 0.31317,0 0.009,0 0.11618,-0.001 0.11744,0 0.009,0.009 -0.009,0.0299 0,0.0391 0.009,0.009 0.0261,0 0.0392,0 0.013,0 0.0261,0 0.0391,0 0.0783,0 0.15659,0 0.23488,0 0.0131,0 0.0299,-0.009 0.0392,0 0.009,0.009 -0.009,0.0299 0,0.0392 0.009,0.009 0.0261,0 0.0391,0 0.10439,0 0.20878,0 0.31317,0 0.013,0 0.0261,0 0.0391,0 0.013,0 0.0299,0.009 0.0391,0 0.009,-0.009 -0.009,-0.0299 0,-0.0392 0.0121,-0.0121 0.18362,0.0121 0.19574,0 0.009,-0.009 -0.009,-0.0299 0,-0.0391 0.009,-0.009 0.0261,0 0.0391,0 0.013,0 0.0261,0 0.0392,0 0.11744,0 0.23488,0 0.35231,0 0.013,0 0.0392,-0.0131 0.0392,0 0,0.013 -0.0522,0 -0.0392,0 0.0261,0 0.0522,0 0.0783,0 0.0783,0 0.15658,0 0.23488,0 0.009,0 0.11617,-0.001 0.11743,0 0.009,0.009 -0.009,0.0299 0,0.0391 0.009,0.009 0.0261,0 0.0392,0 0.0913,0 0.18268,0 0.27402,0 0.01,0 0.11618,10e-4 0.11744,0 0.009,-0.009 -0.009,-0.0299 0,-0.0391 0.0185,-0.0185 0.0549,0.0117 0.0783,0 0.0165,-0.008 0.0226,-0.0309 0.0392,-0.0392 0.0155,-0.008 0.10943,0.008 0.11744,0 0.009,-0.009 -0.009,-0.0299 0,-0.0391 0.0185,-0.0185 0.0598,0.0185 0.0783,0 0.009,-0.009 -0.009,-0.0299 0,-0.0392 0.0185,-0.0185 0.0598,0.0185 0.0783,0 0.009,-0.009 -0.009,-0.0299 0,-0.0392 0.009,-0.009 0.14717,0.009 0.15659,0 0.009,-0.009 -0.009,-0.0299 0,-0.0391 0.002,-0.002 0.1422,0 0.15658,0 0.20878,0 0.41756,0 0.62634,0 0.01,0 0.11618,0.001 0.11744,0 0.009,-0.009 -0.009,-0.0299 0,-0.0392 0.009,-0.009 0.0261,0 0.0391,0 0.009,0 0.11618,-0.001 0.11744,0 0.009,0.009 -0.009,0.0299 0,0.0392 0.009,0.009 0.0261,0 0.0391,0 0.013,0 0.0261,0 0.0392,0 0.0652,0 0.13048,0 0.19573,0 0.013,0 0.0299,-0.009 0.0391,0 0.009,0.009 -0.009,0.0299 0,0.0391 0.009,0.009 0.0261,0 0.0392,0 0.013,0 0.0261,0 0.0392,0 0.16963,0 0.33926,0 0.5089,0 0.0652,0 0.13048,0 0.19573,0 0.013,0 0.0299,-0.009 0.0391,0 0.009,0.009 -0.009,0.0299 0,0.0392 0.0107,0.0107 0.13535,-0.0106 0.15659,0 0.0165,0.008 0.0226,0.0309 0.0391,0.0392 0.0155,0.008 0.10944,-0.008 0.11744,0 0.009,0.009 -0.009,0.0299 0,0.0391 0.002,0.002 0.17728,0 0.19573,0 0.013,0 0.0299,-0.009 0.0392,0 0.009,0.009 -0.009,0.0299 0,0.0392 0.0185,0.0185 0.0598,-0.0185 0.0783,0 0.009,0.009 -0.009,0.0299 0,0.0391 0.001,10e-4 0.10795,0 0.11744,0 0.20878,0 0.41756,0 0.62634,0 0.10439,0 0.20878,0 0.31317,0 0.013,0 0.0299,-0.009 0.0391,0 0.009,0.009 -0.009,0.0299 0,0.0392 0.009,0.009 0.0299,-0.009 0.0392,0 0.009,0.009 -0.009,0.0299 0,0.0391 0.009,0.009 0.0299,-0.009 0.0392,0 0.009,0.009 -0.009,0.0299 0,0.0392 0.0185,0.0185 0.0598,-0.0185 0.0783,0 0,0.10439 -0.013,-0.013 0.0392,0.0392 0.009,0.009 -0.009,0.0299 0,0.0391 0.0185,0.0185 0.0598,-0.0185 0.0783,0 0.009,0.009 -0.009,0.0299 0,0.0391 0.009,0.009 0.0299,-0.009 0.0392,0 0.009,0.009 -0.009,0.0299 0,0.0392 0.0184,0.0185 0.0598,-0.0185 0.0783,0 0.0185,0.0185 -0.0185,0.0598 0,0.0783 0.009,0.009 0.0299,-0.009 0.0391,0 0.009,0.009 -0.009,0.0299 0,0.0392 0.009,0.009 0.0299,-0.009 0.0392,0 0.009,0.009 -0.009,0.0299 0,0.0391 0.009,0.009 0.0299,-0.009 0.0392,0 0.009,0.009 -0.009,0.0299 0,0.0392 0.009,0.009 0.0299,-0.009 0.0391,0 0.009,0.009 -0.009,0.0299 0,0.0391 0.009,0.009 0.0391,-0.013 0.0391,0 0,0.013 -0.0522,0 -0.0391,0 0.22183,0 0.013,-0.0261 0.0783,0.0392 0.0185,0.0185 0.0549,-0.0117 0.0783,0 0.0165,0.008 0.0226,0.0309 0.0391,0.0392 0.0117,0.006 0.0299,-0.009 0.0391,0 0.009,0.009 -0.009,0.0299 0,0.0391 0.009,0.009 0.0261,0 0.0391,0 0.0653,0 0.13049,0 0.19574,0 0.10439,0 0.20878,0 0.31317,0 0.013,0 0.0299,0.009 0.0391,0 0.009,-0.009 -0.009,-0.0299 0,-0.0391 0.0185,-0.0185 0.0598,0.0185 0.0783,0 0.009,-0.009 -0.009,-0.0299 0,-0.0392 0.009,-0.009 0.0275,0.006 0.0392,0 0.0165,-0.008 0.0226,-0.0309 0.0392,-0.0392 0.0117,-0.006 0.0299,0.009 0.0391,0 0.009,-0.009 -0.009,-0.0299 0,-0.0391 0.009,-0.009 0.0299,0.009 0.0391,0 0.009,-0.009 -0.009,-0.0299 0,-0.0392 0.009,-0.009 0.0299,0.009 0.0392,0 0.009,-0.009 -0.009,-0.0299 0,-0.0391 0.009,-0.009 0.0299,0.009 0.0391,0 0.009,-0.009 -0.009,-0.0299 0,-0.0392 0.0185,-0.0185 0.0598,0.0185 0.0783,0 0.081,-0.081 -0.12377,0.003 0.0392,-0.0783 0.0117,-0.006 0.0299,0.009 0.0391,0 0.009,-0.009 -0.009,-0.0299 0,-0.0392 0.0185,-0.0185 0.055,0.0117 0.0783,0 0.0165,-0.008 0.0226,-0.0309 0.0391,-0.0391 0.0117,-0.006 0.0275,0.006 0.0392,0 0.0165,-0.008 0.0226,-0.0309 0.0391,-0.0391 0.0234,-0.0117 0.0598,0.0185 0.0783,0 0.009,-0.009 0,-0.0261 0,-0.0392 0.013,0 0.0299,0.009 0.0392,0 0.009,-0.009 -0.009,-0.0299 0,-0.0392 0.0185,-0.0185 0.0598,0.0185 0.0783,0 0.009,-0.009 -0.009,-0.0299 0,-0.0391 0.0184,-0.0185 0.0598,0.0185 0.0783,0 0.009,-0.009 -0.009,-0.0299 0,-0.0392 0.0185,-0.0184 0.0598,0.0185 0.0783,0 0.009,-0.009 -0.009,-0.0299 0,-0.0391 0.0196,-0.0196 0.0979,0.0196 0.11744,0 0.009,-0.009 -0.009,-0.0299 0,-0.0392 0.009,-0.009 0.14717,0.009 0.15659,0 0.009,-0.009 -0.009,-0.0299 0,-0.0391 0.009,-0.009 0.0261,0 0.0391,0 0.0653,0 0.13049,0 0.19573,0 0.013,0 0.0299,0.009 0.0392,0 0.009,-0.009 -0.009,-0.0299 0,-0.0392 0.002,-0.002 0.17727,0 0.19573,0 0.013,0 0.0299,0.009 0.0392,0 0.009,-0.009 -0.009,-0.0299 0,-0.0392 0.009,-0.009 0.0261,0 0.0391,0 0.013,0 0.0261,0 0.0392,0 0.10439,0 0.20878,0 0.31317,0 0.013,0 0.0261,0 0.0391,0 0.013,0 0.0299,0.009 0.0392,0 0.009,-0.009 -0.009,-0.0299 0,-0.0391 0.002,-0.002 0.14221,0 0.15659,0 0.27402,0 0.54804,0 0.82206,0 0.0144,0 0.15501,-0.002 0.15659,0 0.009,0.009 -0.009,0.0299 0,0.0391 0.009,0.009 0.0261,0 0.0391,0 0.0278,0 0.22476,-0.005 0.23488,0 0.0165,0.008 0.0226,0.0309 0.0392,0.0392 0.0155,0.008 0.10943,-0.008 0.11744,0 0.009,0.009 -0.009,0.0299 0,0.0392 0.009,0.009 0.14716,-0.009 0.15658,0 0.009,0.009 -0.009,0.0299 0,0.0391 0.002,0.002 0.17727,0 0.19573,0 0.013,0 0.0299,-0.009 0.0392,0 0.009,0.009 -0.009,0.0299 0,0.0392 0.009,0.009 0.14717,-0.009 0.15658,0 0.009,0.009 -0.009,0.0299 0,0.0391 0.009,0.009 0.14717,-0.009 0.15659,0 0.009,0.009 -0.009,0.0299 0,0.0392 0.008,0.008 0.10192,-0.008 0.11744,0 0.0165,0.008 0.0226,0.0309 0.0391,0.0391 0.0212,0.0106 0.14588,-0.0107 0.15659,0 0.009,0.009 -0.009,0.0299 0,0.0392 0.009,0.009 0.14716,-0.009 0.15658,0 0.009,0.009 -0.009,0.0299 0,0.0392 0.0107,0.0107 0.13535,-0.0106 0.15659,0 0.0165,0.008 0.0226,0.0309 0.0391,0.0391 0.0313,0.0157 0.0861,-0.0157 0.11744,0 0.0165,0.008 0.0226,0.0309 0.0391,0.0391 0.0234,0.0117 0.0598,-0.0185 0.0783,0 0.009,0.009 -0.009,0.0299 0,0.0392 0.009,0.009 0.0299,-0.009 0.0392,0 0.009,0.009 -0.009,0.0299 0,0.0391 0.009,0.009 0.0299,-0.009 0.0391,0 0.009,0.009 -0.009,0.0299 0,0.0392 0.009,0.009 0.0299,-0.009 0.0391,0 0.009,0.009 -0.009,0.0299 0,0.0392 0.009,0.009 0.0275,-0.006 0.0392,0 0.033,0.0165 0.0453,0.0618 0.0783,0.0783 0.0117,0.006 0.0299,-0.009 0.0391,0 0.009,0.009 -0.006,0.0275 0,0.0391 0.0815,0.16292 -0.003,-0.0419 0.0783,0.0392 0.009,0.009 -0.009,0.0299 0,0.0392 0.009,0.009 0.0261,0 0.0391,0 0,0.013 -0.009,0.0299 0,0.0391 0.009,0.009 0.0299,-0.009 0.0392,0 0.009,0.009 -0.009,0.0299 0,0.0391 0.009,0.009 0.0299,-0.009 0.0391,0 0.0258,0.0258 -0.0258,0.0525 0,0.0783 0.009,0.009 0.0299,-0.009 0.0392,0 0.0185,0.0185 -0.0185,0.0598 0,0.0783 0.009,0.009 0.0299,-0.009 0.0391,0 0.009,0.009 -0.009,0.0299 0,0.0391 0.009,0.009 0.0299,-0.009 0.0391,0 0.0185,0.0185 -0.0185,0.0598 0,0.0783 0.009,0.009 0.0299,-0.009 0.0392,0 0.0185,0.0185 -0.0185,0.0598 0,0.0783 0.009,0.009 0.0299,-0.009 0.0392,0 0.0185,0.0185 -0.0185,0.0598 0,0.0783 0.009,0.009 0.0299,-0.009 0.0391,0 0.0185,0.0185 -0.0117,0.055 0,0.0783 0.008,0.0165 0.0309,0.0226 0.0391,0.0391 0.0117,0.0234 -0.0185,0.0598 0,0.0783 0.009,0.009 0.0261,0 0.0391,0 0,0.013 -0.009,0.0299 0,0.0391 0.009,0.009 0.0299,-0.009 0.0392,0 0.0185,0.0185 -0.0185,0.0598 0,0.0783 0.009,0.009 0.0299,-0.009 0.0392,0 0.009,0.009 0,0.0261 0,0.0391 0,0.013 0,0.0261 0,0.0391 0,0.15658 0,0.31317 0,0.46975 0,0.0144 -0.002,0.15501 0,0.15659 0.009,0.009 0.0299,-0.009 0.0391,0 0.009,0.009 0,0.0261 0,0.0391 0,0.0913 0,0.18269 0,0.27403 0,0.27402 0,0.54804 0,0.82207 0,0.009 0.001,0.11618 0,0.11744 -0.009,0.009 -0.0299,-0.009 -0.0391,0 -0.009,0.009 0,0.0261 0,0.0391 0,0.013 0,0.0261 0,0.0392 0,0.14353 0,0.28707 0,0.43061 0,0.0652 0,0.13048 0,0.19573 0,0.013 -0.009,0.0299 0,0.0391 0.009,0.009 0.0299,-0.009 0.0391,0 0.0196,0.0196 -0.0196,0.0979 0,0.11744 0.009,0.009 0.0299,-0.009 0.0392,0 0.0121,0.0121 -0.0121,0.18361 0,0.19573 0.009,0.009 0.0299,-0.009 0.0391,0 0.009,0.009 0,0.0261 0,0.0391 0,0.10439 0,0.20878 0,0.31317 0,0.0783 0,0.15658 0,0.23487 0,0.013 0.009,0.0299 0,0.0392 -0.009,0.009 -0.0299,-0.009 -0.0391,0 -0.009,0.009 0,0.0261 0,0.0391 0,0.013 0,0.0261 0,0.0391 0,0.0783 0,0.15659 0,0.23488 0,0.013 0.009,0.0299 0,0.0392 -0.009,0.009 -0.0299,-0.009 -0.0392,0 -0.0196,0.0196 0.0196,0.0979 0,0.11743 -0.0121,0.0121 -0.18361,-0.0121 -0.19573,0 -0.009,0.009 0.009,0.0299 0,0.0392 -0.009,0.009 -0.0261,0 -0.0391,0 -0.0783,0 -0.15659,0 -0.23488,0 -0.013,0 -0.0261,0 -0.0392,0 -0.013,0 -0.0299,-0.009 -0.0391,0 -0.009,0.009 0.009,0.0299 0,0.0392 -0.002,0.002 -0.14221,0 -0.15659,0 -0.013,0 -0.0299,0.009 -0.0391,0 -0.009,-0.009 0.009,-0.0299 0,-0.0392 -0.009,-0.009 -0.0299,0.009 -0.0392,0 -0.009,-0.009 0.009,-0.0299 0,-0.0392 -0.0196,-0.0196 -0.0979,0.0196 -0.11744,0 -0.009,-0.009 0.009,-0.0299 0,-0.0391 -0.0196,-0.0196 -0.0979,0.0196 -0.11744,0 -0.009,-0.009 0.009,-0.0299 0,-0.0392 -0.0137,-0.0137 -0.16869,0.0135 -0.19573,0 -0.0165,-0.008 -0.0226,-0.0309 -0.0391,-0.0391 -0.0117,-0.006 -0.0299,0.009 -0.0391,0 -0.009,-0.009 0.009,-0.0299 0,-0.0392 -0.009,-0.009 -0.0299,0.009 -0.0392,0 -0.009,-0.009 0.009,-0.0299 0,-0.0392 -0.009,-0.009 -0.0261,0 -0.0391,0 -0.10439,0 -0.20878,0 -0.31317,0 -0.10439,0 -0.20878,0 -0.31317,0 -0.013,0 -0.0299,-0.009 -0.0392,0 -0.009,0.009 0.009,0.0299 0,0.0392 -0.0196,0.0196 -0.0979,-0.0196 -0.11744,0 -0.009,0.009 0.009,0.0299 0,0.0392 -0.0185,0.0185 -0.0598,-0.0185 -0.0783,0 -0.009,0.009 0.009,0.0299 0,0.0391 -0.0107,0.0107 -0.13535,-0.0106 -0.15659,0 -0.0165,0.008 -0.0226,0.0309 -0.0391,0.0392 -0.0119,0.006 -0.0998,0 -0.11744,0 -0.14444,0 -0.0775,0 -0.23488,0 -0.0783,0 -0.15658,0 -0.23487,0 -0.013,0 -0.0299,-0.009 -0.0392,0 -0.009,0.009 0.009,0.0299 0,0.0391 -0.001,0.001 -0.10794,0 -0.11744,0 -0.22182,0 -0.44365,0 -0.66548,0 -0.30012,0 -0.60025,0 -0.90037,0 -0.0144,0 -0.155,0.002 -0.15658,0 -0.009,-0.009 0.009,-0.0299 0,-0.0391 -0.009,-0.009 -0.0261,0 -0.0392,0 -0.013,0 -0.0261,0 -0.0391,0 -0.10439,0 -0.20878,0 -0.31317,0 -0.013,0 -0.0299,0.009 -0.0392,0 -0.009,-0.009 0.009,-0.0299 0,-0.0392 -0.0107,-0.0107 -0.13535,0.0106 -0.15658,0 -0.0165,-0.008 -0.0226,-0.0309 -0.0392,-0.0391 -0.0155,-0.008 -0.10944,0.008 -0.11744,0 -0.009,-0.009 0.009,-0.0299 0,-0.0392 -0.0121,-0.0121 -0.18361,0.0121 -0.19573,0 -0.009,-0.009 0.009,-0.0299 0,-0.0392 -0.008,-0.008 -0.10192,0.008 -0.11744,0 -0.0165,-0.008 -0.0226,-0.0309 -0.0391,-0.0391 -0.0117,-0.006 -0.0299,0.009 -0.0392,0 -0.009,-0.009 0.009,-0.0299 0,-0.0392 -0.0185,-0.0185 -0.0598,0.0185 -0.0783,0 -0.009,-0.009 0.009,-0.0299 0,-0.0391 -0.0184,-0.0185 -0.0549,0.0117 -0.0783,0 -0.0165,-0.008 -0.0226,-0.0309 -0.0392,-0.0392 -0.0117,-0.006 -0.0275,0.006 -0.0392,0 -0.0165,-0.008 -0.0226,-0.0309 -0.0391,-0.0392 -0.0155,-0.008 -0.10944,0.008 -0.11744,0 -0.009,-0.009 0.009,-0.0299 0,-0.0391 -0.0767,-0.0767 -0.002,0.0767 -0.0783,0 -0.009,-0.009 0.009,-0.0299 0,-0.0391 -0.008,-0.008 -0.10192,0.008 -0.11744,0 -0.0165,-0.008 -0.0226,-0.0309 -0.0392,-0.0392 -0.0212,-0.0106 -0.14587,0.0107 -0.15658,0 -0.009,-0.009 0.009,-0.0299 0,-0.0391 -0.009,-0.009 -0.0261,0 -0.0392,0 -0.0176,0 -0.10552,-0.006 -0.11744,0 -0.0165,0.008 -0.0261,0.0522 -0.0391,0.0391 -0.0131,-0.013 0.0576,-0.0391 0.0391,-0.0391 -0.19776,0 -0.0301,0.0301 -0.0783,0.0783 -0.009,0.009 -0.0299,-0.009 -0.0392,0 -0.0185,0.0185 0.0185,0.0598 0,0.0783 -0.009,0.009 -0.0299,-0.009 -0.0391,0 -0.009,0.009 0.009,0.0299 0,0.0392 -0.009,0.009 -0.0299,-0.009 -0.0391,0 -0.009,0.009 0.009,0.0299 0,0.0392 -0.009,0.009 -0.0299,-0.009 -0.0391,0 -0.009,0.009 0.009,0.0299 0,0.0391 -0.009,0.009 -0.0299,-0.009 -0.0392,0 -0.009,0.009 0.009,0.0299 0,0.0392 -0.0185,0.0184 -0.0598,-0.0185 -0.0783,0 -0.009,0.009 0.009,0.0299 0,0.0391 -0.009,0.009 -0.14717,-0.009 -0.15659,0 -0.009,0.009 0.009,0.0299 0,0.0392 -0.002,0.002 -0.17727,0 -0.19573,0 -0.013,0 -0.0299,-0.009 -0.0392,0 -0.0522,0.0522 0.0652,0.0392 -0.0391,0.0392 -0.0144,0 -0.15501,-0.002 -0.15658,0 -0.009,0.009 0.009,0.0299 0,0.0391 -0.009,0.009 -0.14717,-0.009 -0.15659,0 -0.009,0.009 0.009,0.0299 0,0.0392 -0.0121,0.0121 -0.18361,-0.0121 -0.19573,0 -0.009,0.009 0.009,0.0299 0,0.0391 -0.0196,0.0196 -0.0979,-0.0196 -0.11744,0 -0.009,0.009 0.009,0.0299 0,0.0392 -0.0107,0.0107 -0.13535,-0.0106 -0.15658,0 -0.0165,0.008 -0.0226,0.0309 -0.0392,0.0392 -0.0117,0.006 -0.0261,0 -0.0392,0 -0.013,0 -0.0261,0 -0.0391,0 -0.0652,0 -0.13049,0 -0.19573,0 -0.013,0 -0.0261,0 -0.0391,0 -0.013,0 -0.0299,-0.009 -0.0392,0 -0.009,0.009 0.009,0.0299 0,0.0391 -0.009,0.009 -0.0261,0 -0.0391,0 -0.013,0 -0.0261,0 -0.0392,0 -0.11744,0 -0.23488,0 -0.35232,0 -0.61328,0 -1.22657,0 -1.83987,0 -0.0913,0 -0.18268,0 -0.27402,0 -0.013,0 -0.0299,0.009 -0.0391,0 -0.009,-0.009 0.009,-0.0299 0,-0.0391 -0.009,-0.009 -0.0261,0 -0.0392,0 -0.013,0 -0.0261,0 -0.0392,0 -0.10439,0 -0.20878,0 -0.31317,0 -0.01,0 -0.11618,0.001 -0.11743,0 -0.009,-0.009 0.009,-0.0299 0,-0.0392 -0.0767,-0.0767 -0.002,0.0767 -0.0783,0 -0.0522,-0.0522 0.0652,-0.0392 -0.0391,-0.0392 -0.10439,0 0.013,0.0131 -0.0392,-0.0391 -0.009,-0.009 -0.0261,0 -0.0392,0 -0.013,0 -0.0261,0 -0.0391,0 -0.0144,0 -0.15501,0.002 -0.15659,0 -0.009,-0.009 0.009,-0.0299 0,-0.0392 -0.009,-0.009 -0.0261,0 -0.0391,0 -0.0652,0 -0.13049,0 -0.19573,0 -0.013,0 -0.0299,-0.009 -0.0391,0 -0.009,0.009 0.009,0.0299 0,0.0392 -0.0196,0.0196 -0.0979,-0.0196 -0.11744,0 -0.009,0.009 0.009,0.0299 0,0.0391 -0.0808,0.0808 0.002,-0.0808 -0.0783,0 -0.009,0.009 0.009,0.0299 0,0.0392 -0.0185,0.0185 -0.0549,-0.0117 -0.0783,0 -0.0165,0.008 -0.0226,0.0309 -0.0392,0.0392 -0.0233,0.0117 -0.0598,-0.0185 -0.0783,0 -0.009,0.009 0.013,0.0391 0,0.0391 -0.013,0 0.013,-0.0391 0,-0.0391 -0.0185,0 -0.0226,0.0309 -0.0391,0.0391 -0.0119,0.006 -0.0998,0 -0.11744,0 -0.0783,0 -0.15658,0 -0.23487,0 -0.0176,0 -0.10553,-0.006 -0.11744,0 -0.0165,0.008 -0.0226,0.0309 -0.0392,0.0392 -0.0117,0.006 -0.0261,0 -0.0392,0 -0.013,0 -0.0261,0 -0.0391,0 -0.0783,0 -0.15658,0 -0.23488,0 -0.013,0 -0.0261,0 -0.0391,0 -0.0131,0 -0.0299,-0.009 -0.0392,0 -0.009,0.009 0.009,0.0299 0,0.0391 -0.009,0.009 -0.0261,0 -0.0392,0 -0.0783,0 -0.15658,0 -0.23487,0 -0.013,0 -0.0275,0.006 -0.0392,0 -0.0165,-0.008 -0.0226,-0.0309 -0.0392,-0.0391 -0.0101,-0.005 -0.20713,0 -0.23487,0 -0.0185,0 -0.19396,0.002 -0.19574,0 -0.009,-0.009 0.009,-0.0299 0,-0.0392 -0.009,-0.009 -0.0261,0 -0.0391,0 -0.0277,0 -0.22475,0.005 -0.23488,0 -0.0165,-0.008 -0.0226,-0.0309 -0.0391,-0.0391 -0.0103,-0.005 -0.13612,0 -0.15659,0 -0.13048,0 -0.26097,0 -0.39146,0 -0.009,0 -0.11618,0.001 -0.11744,0 -0.009,-0.009 0.009,-0.0299 0,-0.0392 -0.009,-0.009 -0.0261,0 -0.0391,0 -0.013,0 -0.0261,0 -0.0392,0 -0.11744,0 -0.23488,0 -0.35232,0 -0.36536,0 -0.73072,0 -1.09609,0 -0.14354,0 -0.28707,0 -0.43061,0 -0.0205,0 -0.14629,0.005 -0.15658,0 -0.0165,-0.008 -0.0226,-0.0309 -0.0392,-0.0392 -0.0117,-0.006 -0.0261,0 -0.0391,0 -0.013,0 -0.0261,0 -0.0391,0 -0.0652,0 -0.13049,0 -0.19573,0 -0.19573,0 -0.39146,0 -0.58719,0 -0.22183,0 -0.44366,0 -0.66549,0 -0.10439,0 -0.20878,0 -0.31317,0 -0.013,0 -0.0299,-0.009 -0.0391,0 -0.009,0.009 0.009,0.0299 0,0.0392 -10e-4,10e-4 -0.10795,0 -0.11744,0 -0.0783,0 -0.15659,0 -0.23488,0 -0.0176,0 -0.10553,-0.006 -0.11744,0 -0.0165,0.008 -0.0226,0.0309 -0.0391,0.0392 -0.0119,0.006 -0.0998,0 -0.11743,0 -0.0783,0 -0.15659,0 -0.23488,0 -0.27402,0 -0.54805,0 -0.82207,0 -0.0652,0 -0.13049,0 -0.19573,0 -0.013,0 -0.0261,0 -0.0392,0 -0.013,0 -0.0275,-0.006 -0.0391,0 -0.0165,0.008 -0.0226,0.0309 -0.0391,0.0391 -0.0119,0.006 -0.0998,0 -0.11744,0 -0.0783,0 -0.15658,0 -0.23488,0 -0.009,0 -0.11618,-0.001 -0.11743,0 -0.009,0.009 0.009,0.0299 0,0.0392 -0.001,0.001 -0.10795,0 -0.11744,0 -0.23488,0 -0.46976,0 -0.70464,0 -0.83511,0 -1.67023,0 -2.50535,0 -0.35232,0 -0.70463,0 -1.05695,0 -0.15658,0 -0.31317,0 -0.46975,0 -0.0261,0 -0.0522,0 -0.0783,0 -0.013,0 -0.0392,0.013 -0.0392,0 0,-0.013 0.0392,0.013 0.0392,0 0,-0.0185 -0.0309,-0.0226 -0.0392,-0.0392 -0.0106,-0.0212 0.0107,-0.14587 0,-0.15658 -0.009,-0.009 -0.0299,0.009 -0.0392,0 -0.0185,-0.0185 0.0185,-0.0598 0,-0.0783 -0.009,-0.009 -0.0299,0.009 -0.0391,0 -0.009,-0.009 0,-0.0261 0,-0.0392 0,-0.0783 0,-0.15658 0,-0.23488 0,-0.013 0.009,-0.0299 0,-0.0391 -0.009,-0.009 -0.0299,0.009 -0.0392,0 -0.009,-0.009 0,-0.0261 0,-0.0391 0,-0.0652 0,-0.13049 0,-0.19573 0,-0.013 0,-0.0261 0,-0.0392 0,-0.013 0.009,-0.0299 0,-0.0391 -0.009,-0.009 -0.0299,0.009 -0.0391,0 -0.009,-0.009 0,-0.0261 0,-0.0392 0,-0.0652 0,-0.13049 0,-0.19573 0,-0.013 0.009,-0.0299 0,-0.0392 -0.009,-0.009 -0.0299,0.009 -0.0392,0 -0.002,-0.002 0,-0.17727 0,-0.19573 0,-0.013 0.009,-0.0299 0,-0.0391 -0.009,-0.009 -0.0299,0.009 -0.0392,0 -0.002,-0.002 0,-0.14221 0,-0.15659 0,-0.36536 0,-0.73073 0,-1.09609 0,-0.0272 0.007,-0.18158 0,-0.19573 -0.008,-0.0165 -0.0309,-0.0226 -0.0391,-0.0392 -0.006,-0.0117 0,-0.0261 0,-0.0391 0,-0.0783 0,-0.15659 0,-0.23488 0,-0.013 -0.009,-0.0299 0,-0.0392 0.009,-0.009 0.0299,0.009 0.0391,0 0.009,-0.009 0,-0.0261 0,-0.0391 0,-0.013 0,-0.0261 0,-0.0392 0,-0.11744 0,-0.23488 0,-0.35232 0,-0.009 -0.001,-0.11617 0,-0.11743 0.009,-0.009 0.0299,0.009 0.0392,0 0.0185,-0.0185 -0.0185,-0.0598 0,-0.0783 0.009,-0.009 0.0299,0.009 0.0392,0 0.0185,-0.0185 -0.0185,-0.0598 0,-0.0783 0.009,-0.009 0.0299,0.009 0.0391,0 0.0185,-0.0185 -0.0185,-0.0598 0,-0.0783 0.009,-0.009 0.0299,0.009 0.0392,0 0.0196,-0.0196 -0.0196,-0.0979 0,-0.11744 0.009,-0.009 0.0299,0.009 0.0391,0 0.0185,-0.0185 -0.0117,-0.0549 0,-0.0783 0.008,-0.0165 0.0309,-0.0226 0.0392,-0.0391 0.0117,-0.0234 -0.0185,-0.0598 0,-0.0783 0.009,-0.009 0.0299,0.009 0.0392,0 0.009,-0.009 -0.009,-0.0299 0,-0.0392 0.009,-0.009 0.0299,0.009 0.0391,0 0.009,-0.009 -0.009,-0.0299 0,-0.0391 0.009,-0.009 0.0392,-0.013 0.0392,0 0,0.013 -0.0392,0.013 -0.0392,0 0,-0.0185 0.034,-0.0569 0.0392,-0.0391 0.0361,0.12285 0.0405,0.25286 0.0607,0.37929"
         style="fill:#dce6f0;fill-opacity:1;stroke:#000000;stroke-width:0.07086215px;stroke-linecap:butt;stroke-linejoin:miter;stroke-opacity:1" />
      <path
         id="path31648"
         d="m 176.72015,150.54487 c -0.35903,0.10394 -1.43613,0.52911 -2.38096,0.96373 l -1.72904,0.78421 v 2.34317 2.34318 h 7.49249 c 4.51628,0 7.53029,-0.0378 7.57753,-0.085 0.0567,-0.0567 0.31179,-0.0378 0.66138,0.0472 0.67083,0.16062 2.78724,0.18897 3.52421,0.0472 0.51966,-0.10394 1.14324,-0.35904 1.48338,-0.61414 0.17952,-0.13228 0.22676,-0.12283 0.61414,0.13227 0.61414,0.39683 1.39835,0.57635 2.56049,0.57635 1.01096,0 1.3322,-0.0378 1.81407,-0.21731 0.18896,-0.0756 0.29289,-0.0756 0.37793,0.009 0.0661,0.0661 0.45352,0.10394 0.99207,0.10394 h 0.87869 l -0.0283,-2.34318 c -0.0283,-2.28649 -0.0283,-2.34318 -0.26456,-2.7589 -0.55745,-0.98262 -1.69124,-1.45504 -3.59035,-1.45504 -1.3322,-0.009 -2.20145,0.19842 -2.87228,0.68028 l -0.36848,0.274 -0.46297,-0.31179 c -0.2551,-0.17952 -0.62358,-0.35904 -0.81255,-0.41573 -1.12434,-0.32124 -3.06124,-0.34958 -4.01552,-0.0567 -0.24565,0.0756 -0.44407,0.0945 -0.44407,0.0472 0,-0.0472 -0.85979,-0.085 -1.97469,-0.085 h -1.97469 l -0.17007,0.66138 c -0.0945,0.35903 -0.17952,0.64248 -0.19842,0.62359 -0.0189,-0.0189 -0.11338,-0.30235 -0.20786,-0.63304 l -0.17007,-0.60469 -1.92745,-0.0661 c -1.05821,-0.0283 -2.33373,-0.085 -2.82504,-0.11338 -0.71807,-0.0472 -1.02986,-0.0189 -1.55897,0.12283 z m 2.00304,0.51966 c 0.0189,0.0189 -0.48186,1.20938 -1.1149,2.64552 l -1.16214,2.60773 h -1.63455 c -1.63455,0 -1.63455,0 -1.63455,-0.20787 0,-0.15117 0.68972,-0.91648 2.39041,-2.61717 2.53215,-2.56049 2.49435,-2.54159 -0.48186,0.16062 l -1.90855,1.72904 v -0.73697 -0.74642 l 2.05027,-1.38889 c 1.12435,-0.76531 2.02194,-1.3889 1.9747,-1.3889 -0.0378,0 -0.93538,0.5291 -1.99359,1.18104 -1.05821,0.65193 -1.94635,1.18103 -1.97469,1.18103 -0.0284,0 -0.0567,-0.17952 -0.0567,-0.40627 v -0.39683 l 1.3511,-0.60469 c 1.57786,-0.71807 2.15421,-0.94483 2.66442,-1.04876 0.36848,-0.0756 1.44559,-0.0567 1.53062,0.0378 z m 0.50076,2.65497 c 0,1.39835 -0.0189,2.55103 -0.0378,2.56993 -0.0189,0.0189 -0.50076,0.0189 -1.06766,0.009 l -1.03931,-0.0283 0.88814,-2.61717 c 0.822,-2.39042 0.91648,-2.60773 1.08655,-2.54159 0.17007,0.0661 0.17952,0.17007 0.17007,2.60772 z m 12.84967,-2.46601 c 0.59524,0.21731 0.92593,0.51021 1.07711,0.95428 l 0.13227,0.37793 -1.11489,0.0283 c -1.08656,0.0283 -1.12435,0.0189 -1.36056,-0.21731 -0.19841,-0.19842 -0.32124,-0.23621 -0.79365,-0.23621 -0.65194,0 -0.97318,0.17952 -0.81256,0.44407 0.085,0.13228 0.41573,0.21731 1.55897,0.38738 1.23773,0.18896 1.81407,0.34959 2.36207,0.65193 0.0284,0.0189 0.085,-0.17952 0.11338,-0.43462 0.17952,-1.47393 1.27552,-2.18255 3.41084,-2.18255 2.02193,0 2.95731,0.47241 3.31634,1.67234 0.0567,0.21731 0.0567,0.21731 -1.04876,0.21731 h -1.11489 l -0.24566,-0.29289 c -0.19841,-0.24566 -0.33069,-0.30235 -0.71807,-0.34014 -0.98262,-0.0945 -1.54952,0.41572 -1.54952,1.41724 0,1.02042 0.46297,1.48338 1.48338,1.48338 0.49131,0 0.62359,-0.0378 0.86924,-0.24565 0.16063,-0.13228 0.2929,-0.28345 0.2929,-0.33069 0,-0.0472 -0.18896,-0.085 -0.42517,-0.085 h -0.42517 v -0.56689 -0.5669 h 1.44558 1.43614 l -0.0283,1.46448 -0.0283,1.46449 h -0.40627 c -0.34014,0 -0.42517,-0.0378 -0.51966,-0.24566 -0.10393,-0.2362 -0.12283,-0.2362 -0.274,-0.0945 -0.28345,0.24566 -0.96372,0.43462 -1.80462,0.49131 -1.4078,0.0945 -2.73056,-0.32124 -3.22187,-1.00152 l -0.20786,-0.28345 -0.20786,0.30235 c -0.49131,0.72752 -1.26607,0.97317 -3.17463,0.96372 -1.47393,0 -2.1731,-0.16062 -2.69276,-0.61413 l -0.33069,-0.2929 v 0.38738 0.38738 h -0.89759 -0.89758 v -1.76683 c 0,-0.96373 -0.0283,-1.73849 -0.0567,-1.70069 -0.0283,0.0283 -0.27399,0.81255 -0.548,1.73848 l -0.49131,1.68179 -0.76531,0.0283 -0.77476,0.0283 -0.2362,-0.7842 c -0.13228,-0.43462 -0.35904,-1.19993 -0.50076,-1.70069 -0.14173,-0.51021 -0.2929,-0.92594 -0.33069,-0.92594 -0.0472,0 -0.0756,0.76531 -0.0756,1.70069 v 1.7007 h -0.89759 -0.89759 v -2.55104 -2.55104 h 1.44559 1.43614 l 0.37793,1.41724 c 0.20787,0.78421 0.40628,1.41725 0.43463,1.41725 0.0283,0 0.15117,-0.34959 0.26455,-0.78421 0.11338,-0.42517 0.29289,-1.05821 0.39683,-1.41724 l 0.18896,-0.63304 h 1.4078 1.41724 v 0.38738 0.38738 l 0.36848,-0.33069 c 0.32125,-0.2929 0.59524,-0.42517 1.19049,-0.57635 0.10393,-0.0189 0.83145,-0.0283 1.60621,-0.0189 1.02986,0.0189 1.53062,0.0756 1.84241,0.18897 z"
         inkscape:connector-curvature="0"
         style="fill:#28323c;fill-opacity:1;stroke:none;stroke-width:0.00937389;stroke-miterlimit:4;stroke-dasharray:none;stroke-opacity:1" />
      <path
         id="path31650"
         d="m 187.06603,154.09743 v 0.70862 h 1.18104 c 0.92593,0 1.18103,0.0283 1.18103,0.12283 0,0.31179 0.95428,0.46296 1.41725,0.22676 0.31179,-0.16062 0.34958,-0.39683 0.0756,-0.5669 -0.12283,-0.0756 -0.822,-0.22676 -1.56841,-0.34014 -1.39835,-0.20786 -1.82352,-0.34959 -2.03139,-0.67083 -0.19841,-0.33069 -0.2551,-0.20786 -0.2551,0.51966 z"
         inkscape:connector-curvature="0"
         style="fill:#28323c;fill-opacity:1;stroke:none;stroke-width:0.00944829" />
    </g>
  </g>
</svg>
