<?xml version="1.0" encoding="UTF-8" standalone="no"?>
<!-- Created with Inkscape (http://www.inkscape.org/) -->

<svg
   xmlns:dc="http://purl.org/dc/elements/1.1/"
   xmlns:cc="http://creativecommons.org/ns#"
   xmlns:rdf="http://www.w3.org/1999/02/22-rdf-syntax-ns#"
   xmlns:svg="http://www.w3.org/2000/svg"
   xmlns="http://www.w3.org/2000/svg"
   xmlns:sodipodi="http://sodipodi.sourceforge.net/DTD/sodipodi-0.dtd"
   xmlns:inkscape="http://www.inkscape.org/namespaces/inkscape"
   width="50"
   height="50"
   viewBox="0 0 13.229166 13.229167"
   version="1.1"
   id="svg8"
   inkscape:version="0.92.2 (5c3e80d, 2017-08-06)"
   sodipodi:docname="nbc.svg">
  <defs
     id="defs2">
    <inkscape:perspective
       inkscape:vp_z="177.006 : 86.377998 : 1"
       sodipodi:type="inkscape:persp3d"
       inkscape:vp_x="0 : 86.377998 : 1"
       inkscape:vp_y="0 : 1000 : 0"
       inkscape:persp3d-origin="88.502998 : 57.585332 : 1"
       id="perspective194" />
    <inkscape:perspective
       id="perspective3012"
       inkscape:persp3d-origin="287.78299 : 47.359334 : 1"
       inkscape:vp_z="575.56598 : 71.039001 : 1"
       inkscape:vp_y="0 : 1000 : 0"
       inkscape:vp_x="0 : 71.039001 : 1"
       sodipodi:type="inkscape:persp3d" />
    <inkscape:perspective
       sodipodi:type="inkscape:persp3d"
       inkscape:vp_x="0 : 0.5 : 1"
       inkscape:vp_y="0 : 1000 : 0"
       inkscape:vp_z="1 : 0.5 : 1"
       inkscape:persp3d-origin="0.5 : 0.33333333 : 1"
       id="perspective3072" />
    <inkscape:perspective
       id="perspective194-8"
       inkscape:persp3d-origin="88.502998 : 57.585332 : 1"
       inkscape:vp_y="0 : 1000 : 0"
       inkscape:vp_x="0 : 86.377998 : 1"
       sodipodi:type="inkscape:persp3d"
       inkscape:vp_z="177.006 : 86.377998 : 1" />
    <inkscape:perspective
       sodipodi:type="inkscape:persp3d"
       inkscape:vp_x="0 : 71.039001 : 1"
       inkscape:vp_y="0 : 1000 : 0"
       inkscape:vp_z="575.56598 : 71.039001 : 1"
       inkscape:persp3d-origin="287.78299 : 47.359334 : 1"
       id="perspective3012-5" />
    <inkscape:perspective
       id="perspective3072-8"
       inkscape:persp3d-origin="0.5 : 0.33333333 : 1"
       inkscape:vp_z="1 : 0.5 : 1"
       inkscape:vp_y="0 : 1000 : 0"
       inkscape:vp_x="0 : 0.5 : 1"
       sodipodi:type="inkscape:persp3d" />
  </defs>
  <sodipodi:namedview
     id="base"
     pagecolor="#ffffff"
     bordercolor="#666666"
     borderopacity="1.0"
     inkscape:pageopacity="0.0"
     inkscape:pageshadow="2"
     inkscape:zoom="14.481547"
     inkscape:cx="28.409118"
     inkscape:cy="24.44742"
     inkscape:document-units="mm"
     inkscape:current-layer="layer1"
     showgrid="false"
     fit-margin-top="0"
     fit-margin-left="0"
     fit-margin-right="0"
     fit-margin-bottom="0"
     inkscape:window-width="1680"
     inkscape:window-height="987"
     inkscape:window-x="2792"
     inkscape:window-y="32"
     inkscape:window-maximized="1"
     units="px" />
  <metadata
     id="metadata5">
    <rdf:RDF>
      <cc:Work
         rdf:about="">
        <dc:format>image/svg+xml</dc:format>
        <dc:type
           rdf:resource="http://purl.org/dc/dcmitype/StillImage" />
        <dc:title></dc:title>
      </cc:Work>
    </rdf:RDF>
  </metadata>
  <g
     inkscape:label="Layer 1"
     inkscape:groupmode="layer"
     id="layer1"
     transform="translate(-178.36582,-147.00303)">
    <path
       style="fill:#ffffff;stroke:none;stroke-width:0.02390148;stroke-miterlimit:4;stroke-dasharray:none;stroke-opacity:1"
       id="path3113"
       inkscape:connector-curvature="0"
       d="m 184.9793,150.40261 c -0.20545,-0.55385 -0.70586,-1.152 -1.64302,-1.06985 -1.19383,0.14017 -1.56586,1.3757 -1.38548,2.11282 -0.47545,-0.34772 -1.28399,-0.50062 -1.9897,0.1522 -0.91116,0.98639 -0.42379,2.32035 0.0771,2.64034 -0.55204,-0.0552 -1.42451,0.34762 -1.61753,1.40138 -0.20533,1.30834 0.71824,2.07106 1.61753,2.07106 h 9.97235 c 1.03993,0 1.61695,-0.97154 1.5522,-1.8878 -0.10205,-1.19582 -1.11533,-1.65463 -1.66805,-1.55635 0.4618,-0.27821 1.07858,-1.58522 0.14075,-2.61271 -0.74441,-0.76467 -1.69344,-0.48646 -2.02712,-0.15294 0.17989,-0.63878 -0.11506,-1.95924 -1.32251,-2.16812 -0.0834,-0.01 -0.16375,-0.0154 -0.24034,-0.0154 -0.92173,1e-4 -1.33614,0.72769 -1.46618,1.08544" />
    <path
       id="path3115"
       inkscape:connector-curvature="0"
       d="m 180.12722,151.80597 c -0.52652,0.51472 -0.71814,1.68095 0.23098,2.36273 l 3.78638,2.80536 -1.83591,-4.54224 c -0.3847,-1.07187 -1.43713,-1.30561 -2.18145,-0.62585"
       style="fill:#f37021;fill-opacity:1;stroke-width:0.02414086" />
    <path
       id="path3117"
       inkscape:connector-curvature="0"
       d="m 183.38655,149.59753 c -0.61546,0.0135 -1.53963,0.80505 -1.12834,2.0137 l 1.89876,4.83604 0.66724,-5.0866 c 0.15441,-1.26389 -0.73129,-1.84734 -1.43766,-1.76314"
       style="fill:#cc004c;fill-opacity:1;stroke:none;stroke-width:0.02414086;stroke-opacity:1" />
    <path
       id="path3119"
       inkscape:connector-curvature="0"
       d="m 185.12058,151.16671 h 0.35903 c 0,0 0.19174,0 0.21783,0.0977 -0.14129,0.12461 -0.52591,0.14021 -0.47485,0.80583 l 0.60362,4.37642 1.88584,-4.84877 c 0.38574,-1.08263 -0.42396,-1.98679 -1.14219,-2.01444 -0.0335,-0.002 -0.0672,-0.004 -0.10201,-0.004 -0.64469,-3e-5 -1.38344,0.50592 -1.34727,1.58802"
       style="fill:#6460aa;fill-opacity:1;stroke-width:0.02414086" />
    <path
       id="path3121"
       inkscape:connector-curvature="0"
       d="m 187.63613,152.47299 -1.78374,4.48772 3.78531,-2.82015 c 0.87256,-0.66838 0.7318,-1.73694 0.24339,-2.2651 -0.20476,-0.24858 -0.58072,-0.44062 -0.979,-0.44062 -0.47051,-8e-5 -0.97407,0.26943 -1.26596,1.03815"
       style="fill:#0089d0;fill-opacity:1;stroke-width:0.02414086" />
    <path
       id="path3123"
       inkscape:connector-curvature="0"
       d="m 189.21389,154.77912 -3.55487,2.68147 h 4.37701 c 0.898,0 1.47508,-0.99993 1.21855,-1.91749 -0.17181,-0.57673 -0.68016,-1.02948 -1.27019,-1.03013 -0.24835,1.3e-4 -0.51174,0.0809 -0.7705,0.26615"
       style="fill:#0db14b;fill-opacity:1;stroke-width:0.02414086" />
    <path
       id="path3125"
       inkscape:connector-curvature="0"
       d="m 180.02522,157.46059 h 4.31243 l -3.55573,-2.68147 c -0.82142,-0.56998 -1.74513,-0.23647 -2.07858,0.70935 -0.28264,1.08277 0.42307,1.97212 1.32188,1.97212"
       style="fill:#fcb711;fill-opacity:1;stroke-width:0.02414086" />
  </g>
</svg>
