<?xml version="1.0" encoding="UTF-8" standalone="no"?>
<!-- Created with Inkscape (http://www.inkscape.org/) -->

<svg
   xmlns:dc="http://purl.org/dc/elements/1.1/"
   xmlns:cc="http://creativecommons.org/ns#"
   xmlns:rdf="http://www.w3.org/1999/02/22-rdf-syntax-ns#"
   xmlns:svg="http://www.w3.org/2000/svg"
   xmlns="http://www.w3.org/2000/svg"
   xmlns:sodipodi="http://sodipodi.sourceforge.net/DTD/sodipodi-0.dtd"
   xmlns:inkscape="http://www.inkscape.org/namespaces/inkscape"
   width="50"
   height="50"
   viewBox="0 0 13.229166 13.229167"
   version="1.1"
   id="svg8"
   inkscape:version="0.92.2 (5c3e80d, 2017-08-06)"
   sodipodi:docname="nesn.svg">
  <defs
     id="defs2">
    <inkscape:perspective
       inkscape:vp_z="177.006 : 86.377998 : 1"
       sodipodi:type="inkscape:persp3d"
       inkscape:vp_x="0 : 86.377998 : 1"
       inkscape:vp_y="0 : 1000 : 0"
       inkscape:persp3d-origin="88.502998 : 57.585332 : 1"
       id="perspective194" />
    <inkscape:perspective
       id="perspective3012"
       inkscape:persp3d-origin="287.78299 : 47.359334 : 1"
       inkscape:vp_z="575.56598 : 71.039001 : 1"
       inkscape:vp_y="0 : 1000 : 0"
       inkscape:vp_x="0 : 71.039001 : 1"
       sodipodi:type="inkscape:persp3d" />
    <inkscape:perspective
       sodipodi:type="inkscape:persp3d"
       inkscape:vp_x="0 : 0.5 : 1"
       inkscape:vp_y="0 : 1000 : 0"
       inkscape:vp_z="1 : 0.5 : 1"
       inkscape:persp3d-origin="0.5 : 0.33333333 : 1"
       id="perspective3072" />
    <inkscape:perspective
       id="perspective194-8"
       inkscape:persp3d-origin="88.502998 : 57.585332 : 1"
       inkscape:vp_y="0 : 1000 : 0"
       inkscape:vp_x="0 : 86.377998 : 1"
       sodipodi:type="inkscape:persp3d"
       inkscape:vp_z="177.006 : 86.377998 : 1" />
    <inkscape:perspective
       sodipodi:type="inkscape:persp3d"
       inkscape:vp_x="0 : 71.039001 : 1"
       inkscape:vp_y="0 : 1000 : 0"
       inkscape:vp_z="575.56598 : 71.039001 : 1"
       inkscape:persp3d-origin="287.78299 : 47.359334 : 1"
       id="perspective3012-5" />
    <inkscape:perspective
       id="perspective3072-8"
       inkscape:persp3d-origin="0.5 : 0.33333333 : 1"
       inkscape:vp_z="1 : 0.5 : 1"
       inkscape:vp_y="0 : 1000 : 0"
       inkscape:vp_x="0 : 0.5 : 1"
       sodipodi:type="inkscape:persp3d" />
    <inkscape:perspective
       id="perspective194-1"
       inkscape:persp3d-origin="88.502998 : 57.585332 : 1"
       inkscape:vp_y="0 : 1000 : 0"
       inkscape:vp_x="0 : 86.377998 : 1"
       sodipodi:type="inkscape:persp3d"
       inkscape:vp_z="177.006 : 86.377998 : 1" />
    <inkscape:perspective
       sodipodi:type="inkscape:persp3d"
       inkscape:vp_x="0 : 71.039001 : 1"
       inkscape:vp_y="0 : 1000 : 0"
       inkscape:vp_z="575.56598 : 71.039001 : 1"
       inkscape:persp3d-origin="287.78299 : 47.359334 : 1"
       id="perspective3012-4" />
    <inkscape:perspective
       id="perspective3072-0"
       inkscape:persp3d-origin="0.5 : 0.33333333 : 1"
       inkscape:vp_z="1 : 0.5 : 1"
       inkscape:vp_y="0 : 1000 : 0"
       inkscape:vp_x="0 : 0.5 : 1"
       sodipodi:type="inkscape:persp3d" />
  </defs>
  <sodipodi:namedview
     id="base"
     pagecolor="#ffffff"
     bordercolor="#666666"
     borderopacity="1.0"
     inkscape:pageopacity="0.0"
     inkscape:pageshadow="2"
     inkscape:zoom="14.481547"
     inkscape:cx="22.660474"
     inkscape:cy="21.703101"
     inkscape:document-units="mm"
     inkscape:current-layer="layer1"
     showgrid="false"
     fit-margin-top="0"
     fit-margin-left="0"
     fit-margin-right="0"
     fit-margin-bottom="0"
     inkscape:window-width="1680"
     inkscape:window-height="987"
     inkscape:window-x="2792"
     inkscape:window-y="32"
     inkscape:window-maximized="1"
     units="px" />
  <metadata
     id="metadata5">
    <rdf:RDF>
      <cc:Work
         rdf:about="">
        <dc:format>image/svg+xml</dc:format>
        <dc:type
           rdf:resource="http://purl.org/dc/dcmitype/StillImage" />
        <dc:title></dc:title>
      </cc:Work>
    </rdf:RDF>
  </metadata>
  <g
     inkscape:label="Layer 1"
     inkscape:groupmode="layer"
     id="layer1"
     transform="translate(-178.36582,-147.00303)">
    <rect
       style="fill:#ffffff;fill-opacity:1;stroke:none;stroke-width:0.13303563;stroke-linecap:butt;stroke-linejoin:miter;stroke-miterlimit:4;stroke-dasharray:none;stroke-dashoffset:0;stroke-opacity:1;paint-order:stroke fill markers"
       id="rect32081"
       width="11.24416"
       height="4.7882257"
       x="179.26797"
       y="151.42067" />
    <g
       transform="matrix(1.0013835,0,0,1,-0.25142583,0.31036574)"
       id="layer1-0"
       inkscape:label="Layer 1">
      <g
         style="fill:#004276;fill-opacity:1;stroke:none"
         transform="matrix(0.00336882,0,0,-0.00375236,178.24731,157.77284)"
         id="g31779">
        <path
           style="fill:#004276;fill-opacity:1"
           inkscape:connector-curvature="0"
           d="M 40,1130 V 490 l 162,2 162,3 98,625 c 53,344 97,631 98,638 0,9 -58,12 -260,12 H 40 Z"
           id="path31773" />
        <path
           style="fill:#004276;fill-opacity:1"
           inkscape:connector-curvature="0"
           d="m 580,1764 c 0,-3 -45,-289 -100,-634 C 425,785 380,499 380,496 c 0,-9 3030,-7 3030,2 1,4 45,292 98,640 l 98,632 H 2093 c -832,0 -1513,-3 -1513,-6 z m 1903,-186 c 20,-6 42,-16 47,-23 9,-10 2,-73 -25,-231 l -5,-31 -40,38 c -47,45 -87,56 -129,35 -35,-18 -47,-47 -31,-76 6,-11 44,-53 84,-93 88,-87 104,-129 86,-230 -33,-180 -167,-297 -341,-297 -73,0 -155,16 -165,32 -5,8 25,257 32,267 2,2 15,-10 28,-27 30,-34 83,-62 119,-62 37,0 80,40 80,74 0,21 -18,45 -71,100 -105,107 -125,163 -97,271 55,209 229,312 428,253 z M 1139,1403 c 24,-104 46,-191 50,-195 4,-5 17,54 30,130 13,75 28,163 33,195 l 10,57 h 125 c 96,0 124,-3 121,-12 -3,-7 -36,-210 -74,-450 l -68,-438 h -123 c -68,0 -123,2 -123,5 0,6 -88,331 -97,360 -7,23 -17,-19 -53,-232 L 947,690 H 828 708 l 6,28 c 3,15 33,207 66,427 34,220 63,410 66,423 4,21 8,22 127,22 h 123 z m 1755,80 c 13,-60 32,-142 41,-183 20,-92 24,-104 31,-97 3,3 20,90 38,194 l 32,188 122,3 c 89,2 122,-1 122,-9 0,-14 -127,-820 -136,-861 l -6,-28 h -121 -122 l -49,185 c -27,102 -52,183 -55,179 -3,-3 -20,-85 -36,-182 l -31,-177 -120,-3 -120,-3 68,437 c 37,241 69,443 72,451 4,10 35,13 125,13 h 119 z m -870,70 c -3,-16 -11,-62 -17,-103 l -13,-75 -101,-3 -102,-3 -5,-27 c -2,-15 -7,-44 -11,-64 l -6,-38 h 91 c 65,0 90,-3 90,-12 0,-15 -18,-130 -26,-170 -6,-28 -6,-28 -94,-28 -99,0 -94,3 -105,-83 l -7,-57 h 102 102 l -6,-27 c -3,-16 -10,-63 -17,-105 l -12,-78 h -218 c -121,0 -219,3 -219,8 0,13 131,867 135,880 3,9 57,12 224,12 h 221 z"
           id="path31775" />
        <path
           style="fill:#004276;fill-opacity:1"
           inkscape:connector-curvature="0"
           d="m 3612,1688 c -6,-46 -50,-327 -97,-626 -47,-299 -85,-550 -85,-558 0,-12 42,-14 265,-14 h 265 v 640 640 h -168 -168 z"
           id="path31777" />
      </g>
    </g>
  </g>
</svg>
