<?xml version="1.0" encoding="UTF-8" standalone="no"?>
<!-- Created with Inkscape (http://www.inkscape.org/) -->

<svg
   xmlns:dc="http://purl.org/dc/elements/1.1/"
   xmlns:cc="http://creativecommons.org/ns#"
   xmlns:rdf="http://www.w3.org/1999/02/22-rdf-syntax-ns#"
   xmlns:svg="http://www.w3.org/2000/svg"
   xmlns="http://www.w3.org/2000/svg"
   xmlns:sodipodi="http://sodipodi.sourceforge.net/DTD/sodipodi-0.dtd"
   xmlns:inkscape="http://www.inkscape.org/namespaces/inkscape"
   width="50"
   height="50"
   viewBox="0 0 13.229166 13.229167"
   version="1.1"
   id="svg8"
   inkscape:version="0.92.2 (5c3e80d, 2017-08-06)"
   sodipodi:docname="rds.svg">
  <defs
     id="defs2">
    <inkscape:perspective
       inkscape:vp_z="177.006 : 86.377998 : 1"
       sodipodi:type="inkscape:persp3d"
       inkscape:vp_x="0 : 86.377998 : 1"
       inkscape:vp_y="0 : 1000 : 0"
       inkscape:persp3d-origin="88.502998 : 57.585332 : 1"
       id="perspective194" />
    <inkscape:perspective
       id="perspective3012"
       inkscape:persp3d-origin="287.78299 : 47.359334 : 1"
       inkscape:vp_z="575.56598 : 71.039001 : 1"
       inkscape:vp_y="0 : 1000 : 0"
       inkscape:vp_x="0 : 71.039001 : 1"
       sodipodi:type="inkscape:persp3d" />
    <inkscape:perspective
       sodipodi:type="inkscape:persp3d"
       inkscape:vp_x="0 : 0.5 : 1"
       inkscape:vp_y="0 : 1000 : 0"
       inkscape:vp_z="1 : 0.5 : 1"
       inkscape:persp3d-origin="0.5 : 0.33333333 : 1"
       id="perspective3072" />
  </defs>
  <sodipodi:namedview
     id="base"
     pagecolor="#ffffff"
     bordercolor="#666666"
     borderopacity="1.0"
     inkscape:pageopacity="0.0"
     inkscape:pageshadow="2"
     inkscape:zoom="7.2407734"
     inkscape:cx="42.308556"
     inkscape:cy="16.620427"
     inkscape:document-units="mm"
     inkscape:current-layer="layer1"
     showgrid="false"
     fit-margin-top="0"
     fit-margin-left="0"
     fit-margin-right="0"
     fit-margin-bottom="0"
     inkscape:window-width="1680"
     inkscape:window-height="987"
     inkscape:window-x="2792"
     inkscape:window-y="32"
     inkscape:window-maximized="1"
     units="px" />
  <metadata
     id="metadata5">
    <rdf:RDF>
      <cc:Work
         rdf:about="">
        <dc:format>image/svg+xml</dc:format>
        <dc:type
           rdf:resource="http://purl.org/dc/dcmitype/StillImage" />
        <dc:title></dc:title>
      </cc:Work>
    </rdf:RDF>
  </metadata>
  <g
     inkscape:label="Layer 1"
     inkscape:groupmode="layer"
     id="layer1"
     transform="translate(-178.36582,-147.00303)">
    <g
       id="g2986"
       style="fill:#ed1c24;fill-opacity:1"
       transform="matrix(0.02459034,0,0,0.02459034,178.36035,151.95394)">
      <g
         id="g2988"
         style="fill:#ed1c24;fill-opacity:1">
        <path
           inkscape:connector-curvature="0"
           d="M -0.5,126.09 37.045,46.903 h 145.33 c -0.844,1.638 -4.168,7.877 -11.083,11.54 -6.431,3.469 -15.393,3.374 -14.947,3.565 2.54,1.133 6.022,2.506 8.334,6.289 2.699,4.266 2.916,8.648 1.012,13.443 -1.819,4.794 -20.597,44.351 -20.597,44.351 H 100.839 L 124.641,75.647 H 66.351 L 42.369,126.09 Z"
           id="path2990"
           style="fill:#ed1c24;fill-opacity:1" />
        <path
           inkscape:connector-curvature="0"
           d="M 44.272,31.797 59.546,-0.484 h 115.251 c 0,0 9.106,-0.242 14.601,3.663 5.239,3.732 5.674,9.032 5.407,12.382 -0.494,6.696 -5.057,16.236 -5.057,16.236 z"
           id="path2992"
           style="fill:#ed1c24;fill-opacity:1" />
        <path
           inkscape:connector-curvature="0"
           d="m 222.907,-0.484 -15.32,32.281 h 146.075 c 0,0 6.021,-12.214 4.336,-19.875 C 356.119,3.443 349.88,1.251 344.651,0.263 339.447,-0.676 324.993,-0.484 324.993,-0.484 Z"
           id="path2994"
           style="fill:#ed1c24;fill-opacity:1" />
        <path
           inkscape:connector-curvature="0"
           d="m 302.829,46.903 h 43.847 l -22.188,46.593 c 0,0 -5.298,11.201 -9.348,15.972 -4.047,4.771 -7.827,9.204 -16.621,12.865 -11.926,4.914 -31.188,3.808 -33.606,3.757 -2.361,-0.072 -102.172,0 -102.172,0 l 37.666,-79.187 h 44.535 l -21.865,47.001 h 57.496 z"
           id="path2996"
           style="fill:#ed1c24;fill-opacity:1" />
        <path
           inkscape:connector-curvature="0"
           d="M 524.276,31.797 539.5,-0.484 H 428.971 c 0,0 -22.382,0.386 -33.583,4.336 -9.828,3.421 -16.094,8.577 -20.235,14.888 -2.747,4.192 -6.65,13.058 -6.65,13.058 h 155.773 z"
           id="path2998"
           style="fill:#ed1c24;fill-opacity:1" />
        <path
           inkscape:connector-curvature="0"
           d="M 361.346,46.903 H 490.16 c 0,0 6.867,0.168 10.771,1.807 3.977,1.639 6.675,4.192 7.877,7.709 1.205,3.638 2.025,7.662 -3.421,19.226 -5.322,11.61 -9.347,20.332 -12.479,26.667 -3.084,6.191 -6.844,10.625 -13.877,15.347 -7.83,5.202 -21.489,8.431 -32.21,8.431 H 322.777 L 337.64,93.904 h 114.555 l 9.346,-18.26 -76.366,-0.05 c 0,0 -14.215,0.29 -20.791,-2.48 -4.648,-2.047 -6.77,-5.203 -7.541,-8.697 -1.398,-6.915 4.503,-17.514 4.503,-17.514"
           id="path3000"
           style="fill:#ed1c24;fill-opacity:1" />
      </g>
    </g>
  </g>
</svg>
