<?xml version="1.0" encoding="UTF-8" standalone="no"?>
<!-- Created with Inkscape (http://www.inkscape.org/) -->

<svg
   xmlns:dc="http://purl.org/dc/elements/1.1/"
   xmlns:cc="http://creativecommons.org/ns#"
   xmlns:rdf="http://www.w3.org/1999/02/22-rdf-syntax-ns#"
   xmlns:svg="http://www.w3.org/2000/svg"
   xmlns="http://www.w3.org/2000/svg"
   xmlns:sodipodi="http://sodipodi.sourceforge.net/DTD/sodipodi-0.dtd"
   xmlns:inkscape="http://www.inkscape.org/namespaces/inkscape"
   width="50"
   height="50"
   viewBox="0 0 13.229166 13.229167"
   version="1.1"
   id="svg8"
   inkscape:version="0.92.2 (5c3e80d, 2017-08-06)"
   sodipodi:docname="root.svg">
  <defs
     id="defs2">
    <inkscape:perspective
       inkscape:vp_z="177.006 : 86.377998 : 1"
       sodipodi:type="inkscape:persp3d"
       inkscape:vp_x="0 : 86.377998 : 1"
       inkscape:vp_y="0 : 1000 : 0"
       inkscape:persp3d-origin="88.502998 : 57.585332 : 1"
       id="perspective194" />
    <inkscape:perspective
       id="perspective3012"
       inkscape:persp3d-origin="287.78299 : 47.359334 : 1"
       inkscape:vp_z="575.56598 : 71.039001 : 1"
       inkscape:vp_y="0 : 1000 : 0"
       inkscape:vp_x="0 : 71.039001 : 1"
       sodipodi:type="inkscape:persp3d" />
    <inkscape:perspective
       sodipodi:type="inkscape:persp3d"
       inkscape:vp_x="0 : 0.5 : 1"
       inkscape:vp_y="0 : 1000 : 0"
       inkscape:vp_z="1 : 0.5 : 1"
       inkscape:persp3d-origin="0.5 : 0.33333333 : 1"
       id="perspective3072" />
  </defs>
  <sodipodi:namedview
     id="base"
     pagecolor="#ffffff"
     bordercolor="#666666"
     borderopacity="1.0"
     inkscape:pageopacity="0.0"
     inkscape:pageshadow="2"
     inkscape:zoom="10.24"
     inkscape:cx="25.599816"
     inkscape:cy="22.031011"
     inkscape:document-units="mm"
     inkscape:current-layer="layer1"
     showgrid="false"
     fit-margin-top="0"
     fit-margin-left="0"
     fit-margin-right="0"
     fit-margin-bottom="0"
     inkscape:window-width="1680"
     inkscape:window-height="987"
     inkscape:window-x="2792"
     inkscape:window-y="32"
     inkscape:window-maximized="1"
     units="px" />
  <metadata
     id="metadata5">
    <rdf:RDF>
      <cc:Work
         rdf:about="">
        <dc:format>image/svg+xml</dc:format>
        <dc:type
           rdf:resource="http://purl.org/dc/dcmitype/StillImage" />
        <dc:title></dc:title>
      </cc:Work>
    </rdf:RDF>
  </metadata>
  <g
     inkscape:label="Layer 1"
     inkscape:groupmode="layer"
     id="layer1"
     transform="translate(-178.36582,-147.00303)">
    <g
       id="g31862"
       transform="matrix(0.70737516,0,0,0.75706617,52.871257,36.835905)">
      <path
         id="path31793"
         d="m 184.44632,150.67674 c -0.0162,0.006 -0.14217,0.0388 -0.27465,0.0678 -0.81423,0.1874 -1.47338,0.79808 -1.6931,1.56709 -0.0549,0.19709 -0.26171,1.35383 -0.31018,1.74156 -0.10663,0.84655 0.28757,1.42815 1.12119,1.65756 0.21002,0.0582 0.33927,0.0678 0.78516,0.0678 0.6333,0 0.8724,-0.0517 1.35707,-0.28757 0.24879,-0.12278 0.35542,-0.20032 0.56867,-0.41358 0.43297,-0.43297 0.53314,-0.67853 0.74315,-1.86111 0.12925,-0.71085 0.14541,-0.86594 0.13248,-1.13089 -0.0323,-0.6753 -0.36188,-1.09211 -1.03395,-1.31506 -0.2391,-0.0775 -0.31988,-0.0872 -0.81424,-0.0937 -0.3005,-0.006 -0.56221,-0.006 -0.5816,0 z m 0.61391,1.30859 c 0.11955,0.0646 0.21002,0.23911 0.21002,0.3942 0,0.0646 -0.0646,0.46851 -0.14217,0.89825 -0.16155,0.88532 -0.21648,1.02426 -0.46528,1.15997 -0.28433,0.15832 -0.6656,0.11631 -0.80454,-0.0905 -0.11955,-0.17124 -0.10986,-0.25203 0.13894,-1.59939 0.0808,-0.43943 0.15186,-0.59776 0.33603,-0.73346 0.16802,-0.12602 0.5299,-0.13894 0.727,-0.0291 z"
         inkscape:connector-curvature="0"
         style="fill:#c11c35;fill-opacity:1;stroke:none;stroke-width:0.00323111" />
      <path
         id="path31795"
         d="m 188.93756,150.71551 c -0.29403,0.0646 -0.65269,0.21648 -0.88856,0.37481 -0.39742,0.26172 -0.75931,0.75285 -0.88532,1.18905 -0.1034,0.35865 -0.3425,1.78357 -0.3425,2.03236 0,0.24233 0.0808,0.56868 0.18095,0.73992 0.30372,0.51698 1.01456,0.7884 1.9322,0.73993 0.44912,-0.0259 0.79161,-0.11309 1.17289,-0.29727 0.50405,-0.24556 0.90794,-0.70437 1.09211,-1.23427 0.0808,-0.22942 0.32957,-1.58325 0.36188,-1.95159 0.0646,-0.76901 -0.35219,-1.34415 -1.14381,-1.56709 -0.27141,-0.0776 -1.17289,-0.0937 -1.47984,-0.0259 z m 0.78838,1.26659 c 0.11633,0.0549 0.22618,0.24557 0.22942,0.3942 0,0.15832 -0.28757,1.64463 -0.33927,1.75772 -0.12924,0.27141 -0.42974,0.43297 -0.73993,0.3942 -0.29079,-0.0323 -0.4265,-0.18418 -0.41681,-0.46851 0.006,-0.26819 0.26495,-1.64464 0.3328,-1.78034 0.084,-0.16479 0.26495,-0.31665 0.41036,-0.33927 0.0678,-0.0129 0.13893,-0.0259 0.15509,-0.0323 0.0549,-0.0194 0.25202,0.0226 0.36834,0.0743 z"
         inkscape:connector-curvature="0"
         style="fill:#c11c35;fill-opacity:1;stroke:none;stroke-width:0.00323111" />
      <path
         id="path31797"
         d="m 177.93564,150.74459 c 0,0.01 -0.042,0.25849 -0.0969,0.55575 -0.0517,0.29403 -0.0969,0.55575 -0.0969,0.57837 0,0.0355 0.13894,0.0452 0.68823,0.0517 l 0.68499,0.01 -0.5719,0.2908 -0.56868,0.28757 -0.0517,0.29403 c -0.0291,0.15832 -0.14539,0.81424 -0.25848,1.454 -0.11309,0.63976 -0.21649,1.22459 -0.22941,1.30213 l -0.0226,0.13571 h 0.79163 0.79161 l 0.0517,-0.30049 c 0.0291,-0.16156 0.0937,-0.52344 0.14217,-0.79809 l 0.0872,-0.50082 0.18417,-0.01 c 0.16479,-0.01 0.18418,-0.003 0.20356,0.0646 0.10663,0.36188 0.48144,1.50246 0.4976,1.52185 0.0258,0.0226 1.61555,0.0388 1.63816,0.0129 0.006,-0.006 -0.13893,-0.42327 -0.32633,-0.9241 -0.18741,-0.50082 -0.33927,-0.92409 -0.33927,-0.94025 0,-0.0129 0.0388,-0.0355 0.0905,-0.0485 0.2488,-0.0614 0.65268,-0.39743 0.81424,-0.67854 0.13247,-0.22941 0.18417,-0.38773 0.22294,-0.67853 0.0937,-0.66884 -0.1874,-1.23751 -0.75285,-1.51216 -0.34895,-0.17125 -0.48143,-0.18417 -2.09375,-0.18417 -0.81424,0 -1.47985,0.006 -1.47985,0.0161 z m 2.42333,1.20843 c 0.21002,0.042 0.32311,0.17772 0.32311,0.3942 0,0.30695 -0.19386,0.54282 -0.50082,0.61068 -0.21002,0.0485 -0.69469,0.0355 -0.69469,-0.0162 0,-0.0485 0.15833,-0.9241 0.17771,-0.97903 0.0161,-0.0452 0.46528,-0.0517 0.69469,-0.01 z"
         inkscape:connector-curvature="0"
         style="fill:#c11c35;fill-opacity:1;stroke:none;stroke-width:0.00323111" />
      <path
         id="path31799"
         d="m 191.79709,150.75105 c 0,0.0162 -0.042,0.26496 -0.0969,0.55898 -0.10986,0.60422 -0.11309,0.65269 -0.0549,0.64299 0.0194,-0.003 0.54929,-0.003 1.16966,0 l 1.13089,0.006 -0.51698,0.27141 c -0.28434,0.15186 -0.5299,0.27788 -0.54282,0.28434 -0.0485,0.0161 -0.58806,3.16002 -0.54929,3.18264 0.0194,0.0129 0.37481,0.0162 0.78839,0.006 l 0.75608,-0.0162 0.32957,-1.85789 c 0.18094,-1.02103 0.32957,-1.86112 0.32957,-1.86758 0.003,-0.003 0.31665,-0.006 0.69792,-0.006 0.38127,0 0.69469,-0.003 0.69469,-0.01 0.003,-0.003 0.0485,-0.27141 0.10663,-0.59775 0.0582,-0.32311 0.10016,-0.59775 0.0905,-0.60422 -0.0259,-0.0259 -4.33291,-0.0162 -4.33291,0.006 z"
         inkscape:connector-curvature="0"
         style="fill:#c11c35;fill-opacity:1;stroke:none;stroke-width:0.00323111" />
      <path
         id="path31801"
         d="m 181.55125,156.29563 c -0.28111,0.10663 -0.44913,0.32957 -0.44913,0.60098 0,0.25526 0.14864,0.42005 0.48467,0.54283 0.20356,0.0776 0.23587,0.12601 0.11309,0.17125 -0.1034,0.0388 -0.31019,-0.006 -0.43943,-0.10016 l -0.0872,-0.0614 -0.15186,0.17771 c -0.084,0.10017 -0.1454,0.20033 -0.13571,0.22295 0.0291,0.0711 0.29403,0.18094 0.51698,0.21649 0.36834,0.0582 0.74961,-0.0549 0.90147,-0.26819 0.0614,-0.0872 0.0743,-0.14863 0.0743,-0.33926 0,-0.20033 -0.01,-0.24233 -0.0808,-0.31665 -0.0937,-0.10016 -0.20679,-0.16479 -0.43296,-0.24233 -0.20033,-0.0679 -0.21972,-0.14217 -0.042,-0.1551 0.084,-0.006 0.16156,0.0129 0.2391,0.0582 l 0.11955,0.0711 0.15187,-0.17448 c 0.0872,-0.0937 0.15186,-0.18741 0.14863,-0.20356 -0.006,-0.0194 -0.0905,-0.0743 -0.18741,-0.12278 -0.21971,-0.10986 -0.56221,-0.14541 -0.74315,-0.0776 z"
         inkscape:connector-curvature="0"
         style="fill:#c11c35;fill-opacity:1;stroke:none;stroke-width:0.00323111" />
      <path
         id="path31803"
         d="m 186.10387,156.29886 c -0.37803,0.10017 -0.54282,0.31665 -0.63975,0.8304 -0.0808,0.42004 -0.0808,0.49435 0.003,0.66237 0.0969,0.20033 0.2811,0.28434 0.63329,0.28111 0.21972,0 0.29403,-0.0161 0.44266,-0.0872 0.21326,-0.10339 0.35866,-0.27142 0.42005,-0.47497 0.0678,-0.22618 0.12924,-0.71085 0.10339,-0.84009 -0.0582,-0.31665 -0.51374,-0.49113 -0.96287,-0.37158 z m 0.33281,0.49113 c 0.0323,0.042 0.0355,0.10016 0,0.32634 -0.0452,0.32311 -0.10339,0.45236 -0.21002,0.48144 -0.10663,0.0258 -0.21326,-0.0388 -0.21326,-0.12602 0,-0.10986 0.0937,-0.56867 0.12925,-0.63652 0.0549,-0.1034 0.22294,-0.12925 0.29403,-0.0452 z"
         inkscape:connector-curvature="0"
         style="fill:#c11c35;fill-opacity:1;stroke:none;stroke-width:0.00323111" />
      <path
         id="path31805"
         d="m 192.75026,156.28271 c -0.30695,0.0808 -0.47497,0.26818 -0.49436,0.56221 -0.0226,0.31341 0.10017,0.46851 0.47821,0.59775 0.20356,0.0711 0.23586,0.12278 0.10662,0.17125 -0.10662,0.0388 -0.29726,-0.006 -0.43943,-0.10662 -0.0517,-0.0355 -0.10339,-0.0549 -0.11632,-0.0388 -0.17125,0.19709 -0.26495,0.3425 -0.25203,0.38127 0.0323,0.0808 0.26173,0.17771 0.50083,0.21325 0.56544,0.0905 1.0081,-0.17125 1.0081,-0.59129 0,-0.27465 -0.13893,-0.42651 -0.49759,-0.55898 -0.11632,-0.042 -0.20032,-0.0905 -0.20679,-0.12278 -0.0162,-0.0776 0.23264,-0.0679 0.36835,0.0129 l 0.10663,0.0679 0.15509,-0.16802 c 0.084,-0.0905 0.15509,-0.18094 0.15509,-0.20033 0,-0.0194 -0.0808,-0.0775 -0.17771,-0.12601 -0.19064,-0.0969 -0.51698,-0.14217 -0.69469,-0.0937 z"
         inkscape:connector-curvature="0"
         style="fill:#c11c35;fill-opacity:1;stroke:none;stroke-width:0.00323111" />
      <path
         id="path31807"
         d="m 183.34774,156.35702 c -0.0517,0.21002 -0.29726,1.66079 -0.28433,1.68018 0.0194,0.0355 0.55251,0.0323 0.5719,-0.003 0.01,-0.0161 0.0355,-0.13894 0.0582,-0.27465 l 0.0388,-0.24556 h 0.21002 c 0.37804,0 0.60745,-0.10986 0.73992,-0.34573 0.17448,-0.31988 0.0969,-0.66561 -0.1874,-0.811 -0.12924,-0.0646 -0.18741,-0.0711 -0.63653,-0.0711 -0.48467,0 -0.49436,0 -0.51051,0.0711 z m 0.81747,0.50729 c 0.0162,0.11308 -0.0808,0.19709 -0.22617,0.19709 h -0.12602 l 0.0226,-0.12278 c 0.0259,-0.15186 0.084,-0.1971 0.21648,-0.17125 0.0743,0.0161 0.10663,0.042 0.11309,0.0969 z"
         inkscape:connector-curvature="0"
         style="fill:#c11c35;fill-opacity:1;stroke:none;stroke-width:0.00323111" />
      <path
         id="path31809"
         d="m 187.93591,156.32471 c -0.006,0.0226 -0.0743,0.3845 -0.1454,0.80132 -0.0711,0.41681 -0.13893,0.80131 -0.14863,0.84978 l -0.0194,0.0905 0.30372,-0.01 0.3005,-0.01 0.0485,-0.27141 c 0.0291,-0.15187 0.0679,-0.27788 0.0872,-0.28434 0.0226,-0.01 0.0743,0.10663 0.12925,0.27141 l 0.0905,0.28434 0.31665,0.01 c 0.17124,0.003 0.31341,0.003 0.31341,0 0,-0.006 -0.0517,-0.1454 -0.11308,-0.31342 -0.0614,-0.16479 -0.11309,-0.31341 -0.11309,-0.32634 0,-0.0162 0.0517,-0.0549 0.10986,-0.0905 0.15186,-0.0905 0.25848,-0.30049 0.25848,-0.50729 0,-0.20355 -0.0743,-0.34249 -0.22941,-0.44266 -0.11308,-0.0678 -0.16478,-0.0743 -0.64622,-0.084 -0.41681,-0.01 -0.5299,-0.003 -0.54282,0.0323 z m 0.81747,0.54929 c 0.0129,0.10662 -0.0937,0.1874 -0.24556,0.1874 -0.10017,0 -0.10986,-0.006 -0.0905,-0.0743 0.01,-0.0388 0.0194,-0.1034 0.0194,-0.1454 0,-0.0679 0.0129,-0.0743 0.1551,-0.0646 0.13893,0.01 0.15186,0.0161 0.16155,0.0969 z"
         inkscape:connector-curvature="0"
         style="fill:#c11c35;fill-opacity:1;stroke:none;stroke-width:0.00323111" />
      <path
         id="path31811"
         d="m 190.1363,156.42164 c -0.0129,0.0776 -0.0291,0.18741 -0.0388,0.24234 l -0.0194,0.10662 h 0.22941 c 0.16479,0 0.22941,0.0129 0.22941,0.042 0,0.0226 -0.042,0.2811 -0.0969,0.5719 -0.1357,0.74316 -0.15509,0.67854 0.19064,0.67854 h 0.28757 l 0.0194,-0.0905 c 0.01,-0.0485 0.0485,-0.26173 0.084,-0.47498 0.0355,-0.21325 0.0808,-0.46205 0.10016,-0.55575 l 0.0323,-0.16802 0.22941,-0.01 c 0.25849,-0.01 0.2488,0 0.29726,-0.32634 l 0.0226,-0.15187 h -0.77224 -0.77223 z"
         inkscape:connector-curvature="0"
         style="fill:#c11c35;fill-opacity:1;stroke:none;stroke-width:0.00323111" />
    </g>
  </g>
</svg>
