<?xml version="1.0" encoding="UTF-8" standalone="no"?>
<!-- Created with Inkscape (http://www.inkscape.org/) -->

<svg
   xmlns:dc="http://purl.org/dc/elements/1.1/"
   xmlns:cc="http://creativecommons.org/ns#"
   xmlns:rdf="http://www.w3.org/1999/02/22-rdf-syntax-ns#"
   xmlns:svg="http://www.w3.org/2000/svg"
   xmlns="http://www.w3.org/2000/svg"
   xmlns:sodipodi="http://sodipodi.sourceforge.net/DTD/sodipodi-0.dtd"
   xmlns:inkscape="http://www.inkscape.org/namespaces/inkscape"
   width="50"
   height="50"
   viewBox="0 0 13.229166 13.229167"
   version="1.1"
   id="svg8"
   inkscape:version="0.92.2 (5c3e80d, 2017-08-06)"
   sodipodi:docname="tsn.svg">
  <defs
     id="defs2">
    <inkscape:perspective
       inkscape:vp_z="177.006 : 86.377998 : 1"
       sodipodi:type="inkscape:persp3d"
       inkscape:vp_x="0 : 86.377998 : 1"
       inkscape:vp_y="0 : 1000 : 0"
       inkscape:persp3d-origin="88.502998 : 57.585332 : 1"
       id="perspective194" />
  </defs>
  <sodipodi:namedview
     id="base"
     pagecolor="#ffffff"
     bordercolor="#666666"
     borderopacity="1.0"
     inkscape:pageopacity="0.0"
     inkscape:pageshadow="2"
     inkscape:zoom="10.24"
     inkscape:cx="32.141051"
     inkscape:cy="25.38095"
     inkscape:document-units="mm"
     inkscape:current-layer="layer1"
     showgrid="false"
     fit-margin-top="0"
     fit-margin-left="0"
     fit-margin-right="0"
     fit-margin-bottom="0"
     inkscape:window-width="1680"
     inkscape:window-height="987"
     inkscape:window-x="2792"
     inkscape:window-y="32"
     inkscape:window-maximized="1"
     units="px" />
  <metadata
     id="metadata5">
    <rdf:RDF>
      <cc:Work
         rdf:about="">
        <dc:format>image/svg+xml</dc:format>
        <dc:type
           rdf:resource="http://purl.org/dc/dcmitype/StillImage" />
        <dc:title></dc:title>
      </cc:Work>
    </rdf:RDF>
  </metadata>
  <g
     inkscape:label="Layer 1"
     inkscape:groupmode="layer"
     id="layer1"
     transform="translate(-178.36582,-147.00303)">
    <g
       id="g31560"
       transform="matrix(0.06869673,0,0,0.06869673,178.35655,152.03301)">
      <polygon
         transform="translate(-2.939,-2.3101206)"
         style="fill:#ef3e33"
         id="polygon3"
         points="2.939,14.04 63.154,14.04 68.732,2.322 8.518,2.322 " />
      <polygon
         transform="translate(-2.939,-2.3101206)"
         style="fill:#ef3e33"
         id="polygon5"
         points="10.656,48.952 24.611,19.825 41.106,19.825 27.164,48.952 " />
      <path
         style="fill:#ef3e33"
         inkscape:connector-curvature="0"
         id="path7"
         d="m 49.575,46.641879 5.652,-11.96 H 97.58 l 3.497,-6.76 c 0,0 -22.639,-0.009 -25.479,0 -3.479,0 -11.231,0.259 -13.124,-3.578 -1.242,-2.552 1.203,-6.829 1.203,-6.829 h 47.375 c 3.01,0 5.562,0.638 6.976,2.432 1.328,1.69 1.242,4.113 -0.775,7.976 -1.155,2.225 -4.174,9.028 -4.897,10.442 -0.707,1.439 -2.19,3.923 -5.984,5.708 -3.812,1.784 -6.902,2.569 -11.89,2.569 z" />
      <path
         style="fill:#ef3e33"
         inkscape:connector-curvature="0"
         id="path9"
         d="m 66.358,11.729879 c 0,0 2.358,-6.3539996 7.717,-9.1569996 5.113,-2.68199999 15.443,-2.56099999 16.378,-2.56099999 H 129.78 L 124.235,11.729879 Z" />
      <path
         style="fill:#ef3e33"
         inkscape:connector-curvature="0"
         id="path11"
         d="m 132.324,11.729879 5.277,-11.71799959 h 37.146 c 0,0 15.037,-0.845 17.779,11.71799959 1.225,5.657 -1.483,10.425 -1.569,10.623 -0.086,0.164 -11.528,24.29 -11.528,24.29 H 162.84 l 12.821,-26.532 c 0,0 1.966,-3.173 0.621,-5.881 -1.312,-2.716 -5.26,-2.535 -5.57,-2.5 -0.329,0.017 -38.388,0 -38.388,0" />
      <polygon
         transform="translate(-2.939,-2.3101206)"
         style="fill:#ef3e33"
         id="polygon13"
         points="118.647,48.952 132.573,19.825 149.11,19.825 135.168,48.952 " />
    </g>
  </g>
</svg>
