<?xml version="1.0" encoding="UTF-8" standalone="no"?>
<!-- Created with Inkscape (http://www.inkscape.org/) -->

<svg
   xmlns:dc="http://purl.org/dc/elements/1.1/"
   xmlns:cc="http://creativecommons.org/ns#"
   xmlns:rdf="http://www.w3.org/1999/02/22-rdf-syntax-ns#"
   xmlns:svg="http://www.w3.org/2000/svg"
   xmlns="http://www.w3.org/2000/svg"
   xmlns:sodipodi="http://sodipodi.sourceforge.net/DTD/sodipodi-0.dtd"
   xmlns:inkscape="http://www.inkscape.org/namespaces/inkscape"
   width="50"
   height="50"
   viewBox="0 0 13.229166 13.229167"
   version="1.1"
   id="svg8"
   inkscape:version="0.92.2 (5c3e80d, 2017-08-06)"
   sodipodi:docname="tvas.svg">
  <defs
     id="defs2">
    <inkscape:perspective
       inkscape:vp_z="177.006 : 86.377998 : 1"
       sodipodi:type="inkscape:persp3d"
       inkscape:vp_x="0 : 86.377998 : 1"
       inkscape:vp_y="0 : 1000 : 0"
       inkscape:persp3d-origin="88.502998 : 57.585332 : 1"
       id="perspective194" />
    <inkscape:perspective
       id="perspective3012"
       inkscape:persp3d-origin="287.78299 : 47.359334 : 1"
       inkscape:vp_z="575.56598 : 71.039001 : 1"
       inkscape:vp_y="0 : 1000 : 0"
       inkscape:vp_x="0 : 71.039001 : 1"
       sodipodi:type="inkscape:persp3d" />
    <inkscape:perspective
       sodipodi:type="inkscape:persp3d"
       inkscape:vp_x="0 : 0.5 : 1"
       inkscape:vp_y="0 : 1000 : 0"
       inkscape:vp_z="1 : 0.5 : 1"
       inkscape:persp3d-origin="0.5 : 0.33333333 : 1"
       id="perspective3072" />
    <inkscape:perspective
       id="perspective194-8"
       inkscape:persp3d-origin="88.502998 : 57.585332 : 1"
       inkscape:vp_y="0 : 1000 : 0"
       inkscape:vp_x="0 : 86.377998 : 1"
       sodipodi:type="inkscape:persp3d"
       inkscape:vp_z="177.006 : 86.377998 : 1" />
    <inkscape:perspective
       sodipodi:type="inkscape:persp3d"
       inkscape:vp_x="0 : 71.039001 : 1"
       inkscape:vp_y="0 : 1000 : 0"
       inkscape:vp_z="575.56598 : 71.039001 : 1"
       inkscape:persp3d-origin="287.78299 : 47.359334 : 1"
       id="perspective3012-5" />
    <inkscape:perspective
       id="perspective3072-8"
       inkscape:persp3d-origin="0.5 : 0.33333333 : 1"
       inkscape:vp_z="1 : 0.5 : 1"
       inkscape:vp_y="0 : 1000 : 0"
       inkscape:vp_x="0 : 0.5 : 1"
       sodipodi:type="inkscape:persp3d" />
    <inkscape:perspective
       id="perspective194-1"
       inkscape:persp3d-origin="88.502998 : 57.585332 : 1"
       inkscape:vp_y="0 : 1000 : 0"
       inkscape:vp_x="0 : 86.377998 : 1"
       sodipodi:type="inkscape:persp3d"
       inkscape:vp_z="177.006 : 86.377998 : 1" />
    <inkscape:perspective
       sodipodi:type="inkscape:persp3d"
       inkscape:vp_x="0 : 71.039001 : 1"
       inkscape:vp_y="0 : 1000 : 0"
       inkscape:vp_z="575.56598 : 71.039001 : 1"
       inkscape:persp3d-origin="287.78299 : 47.359334 : 1"
       id="perspective3012-4" />
    <inkscape:perspective
       id="perspective3072-0"
       inkscape:persp3d-origin="0.5 : 0.33333333 : 1"
       inkscape:vp_z="1 : 0.5 : 1"
       inkscape:vp_y="0 : 1000 : 0"
       inkscape:vp_x="0 : 0.5 : 1"
       sodipodi:type="inkscape:persp3d" />
    <inkscape:perspective
       id="perspective194-2"
       inkscape:persp3d-origin="88.502998 : 57.585332 : 1"
       inkscape:vp_y="0 : 1000 : 0"
       inkscape:vp_x="0 : 86.377998 : 1"
       sodipodi:type="inkscape:persp3d"
       inkscape:vp_z="177.006 : 86.377998 : 1" />
    <inkscape:perspective
       sodipodi:type="inkscape:persp3d"
       inkscape:vp_x="0 : 71.039001 : 1"
       inkscape:vp_y="0 : 1000 : 0"
       inkscape:vp_z="575.56598 : 71.039001 : 1"
       inkscape:persp3d-origin="287.78299 : 47.359334 : 1"
       id="perspective3012-1" />
    <inkscape:perspective
       id="perspective3072-9"
       inkscape:persp3d-origin="0.5 : 0.33333333 : 1"
       inkscape:vp_z="1 : 0.5 : 1"
       inkscape:vp_y="0 : 1000 : 0"
       inkscape:vp_x="0 : 0.5 : 1"
       sodipodi:type="inkscape:persp3d" />
    <inkscape:perspective
       inkscape:vp_z="177.006 : 86.377998 : 1"
       sodipodi:type="inkscape:persp3d"
       inkscape:vp_x="0 : 86.377998 : 1"
       inkscape:vp_y="0 : 1000 : 0"
       inkscape:persp3d-origin="88.502998 : 57.585332 : 1"
       id="perspective194-8-9" />
    <inkscape:perspective
       id="perspective3012-5-6"
       inkscape:persp3d-origin="287.78299 : 47.359334 : 1"
       inkscape:vp_z="575.56598 : 71.039001 : 1"
       inkscape:vp_y="0 : 1000 : 0"
       inkscape:vp_x="0 : 71.039001 : 1"
       sodipodi:type="inkscape:persp3d" />
    <inkscape:perspective
       sodipodi:type="inkscape:persp3d"
       inkscape:vp_x="0 : 0.5 : 1"
       inkscape:vp_y="0 : 1000 : 0"
       inkscape:vp_z="1 : 0.5 : 1"
       inkscape:persp3d-origin="0.5 : 0.33333333 : 1"
       id="perspective3072-8-6" />
  </defs>
  <sodipodi:namedview
     id="base"
     pagecolor="#ffffff"
     bordercolor="#666666"
     borderopacity="1.0"
     inkscape:pageopacity="0.0"
     inkscape:pageshadow="2"
     inkscape:zoom="14.481547"
     inkscape:cx="22.660474"
     inkscape:cy="21.703101"
     inkscape:document-units="mm"
     inkscape:current-layer="layer1"
     showgrid="false"
     fit-margin-top="0"
     fit-margin-left="0"
     fit-margin-right="0"
     fit-margin-bottom="0"
     inkscape:window-width="1680"
     inkscape:window-height="987"
     inkscape:window-x="2792"
     inkscape:window-y="32"
     inkscape:window-maximized="1"
     units="px" />
  <metadata
     id="metadata5">
    <rdf:RDF>
      <cc:Work
         rdf:about="">
        <dc:format>image/svg+xml</dc:format>
        <dc:type
           rdf:resource="http://purl.org/dc/dcmitype/StillImage" />
        <dc:title></dc:title>
      </cc:Work>
    </rdf:RDF>
  </metadata>
  <g
     inkscape:label="Layer 1"
     inkscape:groupmode="layer"
     id="layer1"
     transform="translate(-178.36582,-147.00303)">
    <rect
       style="fill:#ffffff;fill-opacity:1;stroke:none;stroke-width:0.09642448;stroke-linecap:butt;stroke-linejoin:miter;stroke-miterlimit:4;stroke-dasharray:none;stroke-dashoffset:0;stroke-opacity:1;paint-order:stroke fill markers"
       id="rect32081"
       width="11.810542"
       height="2.3948059"
       x="179.06699"
       y="155.07477" />
    <path
       style="fill:#288cd2;fill-opacity:1;stroke:none;stroke-width:0.00269037;stroke-opacity:1"
       inkscape:connector-curvature="0"
       d="m 183.58846,149.37886 c -0.17755,0.0792 -0.32595,0.34142 -0.29681,0.52715 0.0159,0.0901 0.32595,0.93139 0.9964,2.68493 0.3498,0.915 0.40546,1.04884 0.49026,1.1417 0.17489,0.19939 0.49819,0.20759 0.68633,0.0191 0.0928,-0.0929 0.14841,-0.23216 0.74731,-1.80269 0.0981,-0.25675 0.3074,-0.80575 0.4664,-1.22092 0.29945,-0.77844 0.32595,-0.8795 0.265,-1.06523 -0.0344,-0.10926 -0.1696,-0.25129 -0.2756,-0.29226 -0.10335,-0.041 -0.29415,-0.0382 -0.40016,0.008 -0.18814,0.0819 -0.19344,0.0874 -0.89303,1.94199 -0.11926,0.31411 -0.22526,0.58178 -0.2332,0.59544 -0.0185,0.0191 -0.1537,-0.31684 -0.66515,-1.65247 -0.23055,-0.60363 -0.28091,-0.71289 -0.36305,-0.78663 -0.0503,-0.0464 -0.1219,-0.0983 -0.159,-0.11199 -0.0901,-0.0355 -0.27295,-0.03 -0.3657,0.0137 z"
       id="path31014" />
    <path
       style="fill:#288cd2;fill-opacity:1;stroke:none;stroke-width:0.00269037;stroke-opacity:1"
       inkscape:connector-curvature="0"
       d="m 188.91494,149.37613 c -0.15105,0.071 -0.2332,0.21031 -0.42135,0.70196 -0.40015,1.04611 -0.95399,2.49099 -1.0812,2.81329 -0.15635,0.39332 -0.17489,0.54901 -0.0848,0.72382 0.0291,0.0601 0.106,0.14476 0.16695,0.19119 0.0928,0.0683 0.1378,0.0819 0.26236,0.0819 0.16694,-0.003 0.32595,-0.0765 0.41074,-0.19119 0.0398,-0.0574 0.37895,-0.9232 0.81621,-2.0813 0.0636,-0.16934 0.12454,-0.30864 0.13249,-0.30864 0.008,0 0.1855,0.44521 0.39485,0.98875 0.59889,1.5678 0.5618,1.49132 0.81354,1.5678 0.2968,0.0901 0.55915,-0.0847 0.62806,-0.4179 0.0265,-0.11472 -0.0636,-0.36873 -0.76586,-2.20694 -0.66515,-1.7426 -0.63599,-1.67978 -0.79499,-1.80543 -0.1166,-0.0901 -0.34715,-0.11744 -0.477,-0.0574 z"
       id="path31016" />
    <path
       style="fill:#288cd2;fill-opacity:1;stroke:none;stroke-width:0.00269037;stroke-opacity:1"
       inkscape:connector-curvature="0"
       d="m 179.26366,149.42529 c -0.0954,0.0301 -0.22789,0.15569 -0.28884,0.2786 -0.0292,0.0574 -0.0398,0.1311 -0.0318,0.24036 0.0133,0.18846 0.0928,0.3223 0.24646,0.41243 0.0981,0.0574 0.14574,0.0628 0.59624,0.0765 l 0.49024,0.0137 v 1.52956 c 0,0 -0.0163,1.57025 0.0407,1.63578 0.19999,0.31214 0.72782,0.34172 0.89741,-0.0161 0.0557,-0.12018 0.0557,-0.14203 0.0557,-1.64155 v -1.52137 h 0.4717 c 0.53,0 0.6307,-0.0273 0.75525,-0.19392 0.20141,-0.2786 0.11925,-0.64187 -0.18549,-0.80029 -0.0742,-0.0382 -0.24911,-0.0437 -1.52376,-0.041 -0.79234,0 -1.47604,0.0137 -1.52375,0.0273 z"
       id="path31018"
       sodipodi:nodetypes="cccccccccscscccc" />
    <path
       style="fill:#288cd2;fill-opacity:1;stroke:none;stroke-width:0.00269037;stroke-opacity:1"
       inkscape:connector-curvature="0"
       d="m 187.53694,154.83065 c -1.38328,0.0109 -3.76033,0.0219 -5.27878,0.0246 -1.92125,0.003 -2.80369,0.0109 -2.89909,0.0328 -0.11689,0.0302 -0.19676,0.0743 -0.29208,0.18671 -0.26995,0.44895 -0.31838,0.80642 -0.45786,1.36743 -0.0954,0.38239 -0.17491,0.75112 -0.17491,0.81941 0,0.17754 0.0788,0.33754 0.26164,0.42494 l 0.14911,0.0257 h 5.89623 5.89624 l 0.14874,-0.0417 c 0.1696,-0.0929 0.2991,-0.29148 0.368,-0.48268 0.0795,-0.21851 0.371,-1.73441 0.371,-1.92834 0,-0.19939 -0.0583,-0.31957 -0.19079,-0.39331 -0.10865,-0.0601 -0.31535,-0.0628 -3.79745,-0.0355 z m -6.49247,0.52988 c 0.061,0.0273 0.0981,0.0656 0.10864,0.11199 0.0185,0.0792 -0.003,0.43428 -0.0291,0.47799 -0.008,0.0164 -0.1325,0.0273 -0.28092,0.0273 h -0.26233 v -0.0929 c 0,-0.0601 -0.0159,-0.0983 -0.0424,-0.10925 -0.0609,-0.0246 -0.38954,-0.0191 -0.42929,0.008 -0.0213,0.0109 -0.0424,0.071 -0.0503,0.13111 l -0.0133,0.10925 0.28619,0.0328 c 0.62275,0.0683 0.68901,0.10925 0.66515,0.39878 -0.0291,0.37693 -0.17754,0.6883 -0.37099,0.77843 -0.0981,0.0464 -0.17491,0.0546 -0.6148,0.0546 -0.7791,0 -0.82945,-0.03 -0.7526,-0.48345 l 0.0291,-0.17207 h 0.27029 0.26764 v 0.10106 0.10379 l 0.2544,0.008 c 0.28356,0.008 0.30741,-0.003 0.3339,-0.16661 0.0159,-0.10926 0.0292,-0.10652 -0.45579,-0.15842 -0.32596,-0.0355 -0.44255,-0.0765 -0.4876,-0.17754 -0.0636,-0.14203 -0.0133,-0.42609 0.11925,-0.69923 0.0662,-0.13383 0.20405,-0.26767 0.3074,-0.30045 0.0344,-0.008 0.2862,-0.0164 0.55915,-0.0191 0.37629,-0.003 0.51939,0.005 0.5883,0.0355 z m 1.89474,0.0109 c 0.0689,0.0328 0.10335,0.0765 0.1325,0.16388 0.0344,0.10379 0.0344,0.1393 -0.008,0.35508 -0.0795,0.39604 -0.22259,0.65279 -0.41604,0.73746 -0.061,0.0273 -0.21995,0.0464 -0.47701,0.0574 l -0.38424,0.0164 -0.0662,0.29226 -0.0662,0.29498 h -0.28356 c -0.22789,0 -0.28619,-0.008 -0.28619,-0.0382 0,-0.0328 0.33919,-1.4722 0.42666,-1.81362 l 0.0318,-0.11472 h 0.6519 c 0.56709,0 0.66515,0.005 0.74464,0.0492 z m 1.95039,-0.008 c 0.19081,0.082 0.2226,0.39605 0.0901,0.92867 -0.12455,0.51349 -0.2809,0.80848 -0.4876,0.9232 -0.1007,0.0573 -0.1431,0.0601 -0.63864,0.0601 -0.59096,0 -0.63071,-0.0109 -0.71815,-0.18301 -0.14045,-0.27859 0.15634,-1.40391 0.42665,-1.62515 0.1537,-0.12565 0.23055,-0.1393 0.74994,-0.14203 0.36835,-0.003 0.50615,0.005 0.5777,0.0382 z m 2.03519,-0.003 c 0.12986,0.0574 0.16696,0.16661 0.12721,0.40424 -0.061,0.35781 -0.16696,0.53808 -0.36835,0.6091 -0.0557,0.0219 -0.0874,0.0382 -0.0689,0.041 0.0159,0 0.0662,0.0328 0.11131,0.071 0.0954,0.0819 0.1007,0.13384 0.0451,0.41244 -0.0213,0.10106 -0.0451,0.23216 -0.053,0.28679 l -0.0185,0.10379 h -0.30475 -0.3074 l 0.0159,-0.0765 c 0.008,-0.041 0.0344,-0.17754 0.061,-0.30318 0.0424,-0.22124 0.0424,-0.22943 -0.005,-0.26494 -0.0318,-0.0246 -0.11926,-0.0382 -0.23056,-0.0382 -0.20405,0 -0.2014,-0.005 -0.26764,0.27314 -0.0239,0.0983 -0.0557,0.22943 -0.0716,0.29225 l -0.0291,0.11745 h -0.2915 c -0.26766,0 -0.29151,-0.005 -0.27825,-0.0492 0.008,-0.0246 0.11129,-0.45341 0.22789,-0.94779 0.1166,-0.4971 0.2173,-0.91773 0.22526,-0.93685 0.0185,-0.0492 1.35944,-0.0464 1.48134,0.005 z m 2.08025,0.008 c 0,0.0273 -0.0213,0.12837 -0.0477,0.2267 l -0.045,0.17754 -0.28885,0.0136 -0.28885,0.0137 -0.17755,0.73747 -0.17755,0.73746 -0.29414,0.008 c -0.23056,0.005 -0.29151,0 -0.28091,-0.0273 0.0265,-0.0737 0.33126,-1.39026 0.33126,-1.4285 0,-0.0328 -0.0477,-0.041 -0.26501,-0.041 -0.14574,0 -0.26499,-0.008 -0.26499,-0.0219 0,-0.0109 0.0105,-0.0628 0.0239,-0.11471 0.0159,-0.0519 0.0398,-0.1475 0.0557,-0.21305 l 0.0291,-0.11472 h 0.84534 c 0.7897,0 0.848,0.003 0.84535,0.0464 z m 1.57675,-0.008 c 0.0503,0.0219 0.0981,0.0656 0.1113,0.10379 0.0239,0.0792 0.0185,0.30865 -0.0105,0.4179 l -0.0213,0.0819 -0.2703,0.008 -0.2703,0.008 v -0.0956 c 0,-0.11472 -0.0344,-0.1311 -0.27825,-0.12291 -0.19345,0.005 -0.25175,0.0519 -0.25175,0.1912 v 0.071 l 0.38955,0.0464 c 0.4187,0.0519 0.46109,0.0656 0.52735,0.16935 0.0874,0.13657 0.003,0.58997 -0.15635,0.83579 -0.0318,0.0492 -0.1113,0.11745 -0.17755,0.15296 -0.11395,0.0601 -0.14045,0.0628 -0.67575,0.0546 -0.7367,-0.0109 -0.7579,-0.0246 -0.69695,-0.45341 l 0.0264,-0.19666 h 0.2756 0.27295 l -0.005,0.10106 -0.005,0.1038 0.2491,0.008 c 0.15635,0.005 0.2597,-0.003 0.28356,-0.0246 0.0371,-0.03 0.0795,-0.20758 0.0557,-0.23217 -0.005,-0.008 -0.19611,-0.0355 -0.41869,-0.0628 -0.39485,-0.0519 -0.40811,-0.0546 -0.47966,-0.13657 -0.053,-0.0628 -0.0742,-0.11471 -0.0742,-0.18846 0,-0.14203 0.0848,-0.43975 0.16429,-0.58178 0.15106,-0.26767 0.2332,-0.29499 0.8639,-0.29772 0.35775,0 0.50615,0.0109 0.5724,0.0382 z"
       id="path31020"
       sodipodi:nodetypes="cccccsccccccscccccscscccccccsccccccccccccccccccccccssccsccccscccccccccccccccccscccsccccccccccccccssscccscccccccscscccccccccccccccccscccc" />
    <path
       style="fill:#288cd2;fill-opacity:1;stroke:none;stroke-width:0.00269037"
       inkscape:connector-curvature="0"
       d="m 182.01171,155.80028 c 0,0.0137 -0.0742,0.30865 -0.0954,0.37693 -0.0133,0.0437 0.003,0.0492 0.21996,0.041 0.26764,-0.008 0.2809,-0.0219 0.31535,-0.28952 l 0.0185,-0.14204 h -0.23055 c -0.12455,0 -0.2279,0.005 -0.2279,0.0137 z"
       id="path31022" />
    <path
       style="fill:#288cd2;fill-opacity:1;stroke:none;stroke-width:0.00269037"
       inkscape:connector-curvature="0"
       d="m 183.95416,155.78116 c -0.0185,0.0109 -0.0503,0.0656 -0.0715,0.11745 -0.0477,0.11745 -0.16431,0.59271 -0.18815,0.76751 -0.0185,0.12291 -0.0159,0.13111 0.053,0.15842 0.11925,0.0464 0.39751,0.0355 0.46375,-0.0219 0.061,-0.0519 0.15106,-0.33596 0.23055,-0.72654 0.061,-0.31411 0.0583,-0.31684 -0.2226,-0.31684 -0.12719,0 -0.24645,0.0109 -0.26499,0.0219 z"
       id="path31024" />
    <path
       style="fill:#288cd2;fill-opacity:1;stroke:none;stroke-width:0.00269037"
       inkscape:connector-curvature="0"
       d="m 185.9231,155.8194 c -0.008,0.0191 -0.0239,0.0929 -0.0398,0.16115 -0.0159,0.071 -0.0344,0.14749 -0.0451,0.17208 -0.0133,0.0382 0.0105,0.0437 0.20935,0.0437 0.2544,0 0.26764,-0.008 0.3233,-0.20485 0.0583,-0.1912 0.0424,-0.20486 -0.21465,-0.20486 -0.15634,0 -0.22791,0.0109 -0.2332,0.0328 z"
       id="path31026" />
  </g>
</svg>
