<?xml version="1.0" encoding="UTF-8" standalone="no"?>
<!-- Created with Inkscape (http://www.inkscape.org/) -->

<svg
   xmlns:dc="http://purl.org/dc/elements/1.1/"
   xmlns:cc="http://creativecommons.org/ns#"
   xmlns:rdf="http://www.w3.org/1999/02/22-rdf-syntax-ns#"
   xmlns:svg="http://www.w3.org/2000/svg"
   xmlns="http://www.w3.org/2000/svg"
   xmlns:sodipodi="http://sodipodi.sourceforge.net/DTD/sodipodi-0.dtd"
   xmlns:inkscape="http://www.inkscape.org/namespaces/inkscape"
   width="40.653271mm"
   height="40.653275mm"
   viewBox="0 0 40.653271 40.653274"
   version="1.1"
   id="svg8"
   inkscape:version="0.92.2 (5c3e80d, 2017-08-06)"
   sodipodi:docname="nhlgames_icon.svg">
  <defs
     id="defs2" />
  <sodipodi:namedview
     id="base"
     pagecolor="#ffffff"
     bordercolor="#666666"
     borderopacity="1.0"
     inkscape:pageopacity="0.0"
     inkscape:pageshadow="2"
     inkscape:zoom="1.4"
     inkscape:cx="135.82696"
     inkscape:cy="58.796418"
     inkscape:document-units="mm"
     inkscape:current-layer="text817"
     showgrid="false"
     fit-margin-top="0"
     fit-margin-left="0"
     fit-margin-right="0"
     fit-margin-bottom="0"
     inkscape:window-width="1680"
     inkscape:window-height="987"
     inkscape:window-x="2792"
     inkscape:window-y="32"
     inkscape:window-maximized="1" />
  <metadata
     id="metadata5">
    <rdf:RDF>
      <cc:Work
         rdf:about="">
        <dc:format>image/svg+xml</dc:format>
        <dc:type
           rdf:resource="http://purl.org/dc/dcmitype/StillImage" />
        <dc:title></dc:title>
      </cc:Work>
    </rdf:RDF>
  </metadata>
  <g
     inkscape:label="Layer 1"
     inkscape:groupmode="layer"
     id="layer1"
     transform="translate(-45.206507,-69.580695)">
    <g
       aria-label="NHL
"
       style="font-style:normal;font-weight:normal;font-size:10.58333302px;line-height:1.25;font-family:sans-serif;letter-spacing:0px;word-spacing:0px;fill:#000000;fill-opacity:1;stroke:none;stroke-width:0.26458332"
       id="text817"
       transform="matrix(1,0,0,1.021514,0,-2.4050841)">
      <rect
         style="fill:#f6ffff;fill-opacity:1;stroke:#ffffff;stroke-width:10.0100441;stroke-linecap:round;stroke-linejoin:round;stroke-miterlimit:4;stroke-dasharray:none;stroke-dashoffset:0;stroke-opacity:1;paint-order:fill markers stroke"
         id="rect1708"
         width="30.643229"
         height="29.787037"
         x="50.211529"
         y="75.474716" />
      <path
         style="font-style:normal;font-weight:normal;font-size:10.58333302px;line-height:1.25;font-family:sans-serif;letter-spacing:0px;word-spacing:0px;fill:#00aae0;fill-opacity:1;stroke:none;stroke-width:0.09894135;stroke-miterlimit:4;stroke-dasharray:none"
         inkscape:connector-curvature="0"
         d="m 53.00376,86.467028 c 0,3.34506 -1.74237,4.10615 -1.74237,7.8208 0,5.35239 4.2275,8.854152 8.15596,9.843742 1.98496,0.47293 2.58416,0.50514 4.37676,0.93669 0.14685,0.15427 1.82871,1.9275 1.82871,1.9275 0,0 1.6819,-1.77327 1.8287,-1.92744 1.79214,-0.43161 2.39185,-0.46382 4.37681,-0.93675 3.9281,-0.98954 8.15632,-4.491352 8.15632,-9.843742 0,-3.71465 -1.74299,-4.47574 -1.74299,-7.82084 0,-1.20799 0.26089,-2.400076 0.77515,-3.542626 l 1.11381,-2.47431 -2.62462,-0.75715 c -0.80018,-0.23169 -1.38873,-0.8387 -1.74916,-1.80343 l -1.15983,-3.10669 -2.58703,2.09651 c -0.68537,0.55608 -1.3801,0.83794 -2.06501,0.83794 -0.91623,0 -1.95853,-0.43603 -2.65577,-1.11135 l -1.66638,-1.61397 -1.66633,1.61397 c -0.6971,0.67532 -1.73971,1.11135 -2.65501,1.11135 -0.68573,0 -1.38051,-0.28186 -2.06624,-0.83794 l -2.58703,-2.09651 -1.15927,3.10669 c -0.35966,0.96473 -0.94862,1.57174 -1.74952,1.80343 l -2.62405,0.75715 1.11351,2.47431 c 0.51415,1.14255 0.77493,2.334636 0.77493,3.542626 z"
         id="path998"
         sodipodi:nodetypes="cscccccssccccccscccscccccccc" />
      <path
         style="font-style:normal;font-weight:normal;font-size:10.58333302px;line-height:1.25;font-family:sans-serif;letter-spacing:0px;word-spacing:0px;fill:#00aae0;fill-opacity:1;stroke:none;stroke-width:0.01345971"
         inkscape:connector-curvature="0"
         d="m 77.43369,80.095512 c -0.93803,-0.27054 -1.62165,-0.96473 -2.03108,-2.06204 l -0.95062,-2.54729 -2.11848,1.7171 c -0.69725,0.56524 -1.49373,0.93468 -2.33946,0.93468 -1.13428,0 -2.25643,-0.55441 -2.95774,-1.23335 l -1.36442,-1.32124 -1.36442,1.32124 c -0.70131,0.67894 -1.82335,1.23335 -2.95691,1.23335 -0.84651,0 -1.64335,-0.36939 -2.33978,-0.93463 l -2.11863,-1.7171 -0.95068,2.54734 c -0.40968,1.09726 -1.09289,1.79145 -2.03092,2.06199 l -2.15611,0.62276 0.91617,2.03667 c 0.46177,1.02578 0.8115,2.286816 0.8115,3.712036 0,3.4788 -1.74269,4.16977 -1.74269,7.82085 0,1.11367 0.19343,2.1551 0.54054,3.11299 1.17464,3.246462 4.11474,5.523172 7.29398,6.323812 2.03416,0.50329 2.98232,0.55311 4.49887,0.9679 0.19775,0.2036 1.59908,1.68615 1.59908,1.68615 0,0 1.40144,-1.4826 1.59913,-1.68615 1.51666,-0.41479 2.46389,-0.46461 4.4998,-0.9679 4.11551,-1.0371 7.83349,-4.548532 7.83349,-9.436802 0,-1.75938 -0.40552,-2.83172 -0.8243,-3.85992 -0.45066,-1.1048 -0.91859,-2.15826 -0.91859,-3.96093 0,-1.42522 0.34977,-2.686256 0.81154,-3.712036 l 0.91623,-2.03667 -2.1555,-0.62276 z"
         id="path1000" />
      <path
         style="font-style:normal;font-weight:normal;font-size:10.58333302px;line-height:1.25;font-family:sans-serif;letter-spacing:0px;word-spacing:0px;fill:#3c3c3c;fill-opacity:1;stroke:none;stroke-width:0.01345971"
         inkscape:connector-curvature="0"
         d="m 54.40707,87.476698 c -0.28695,2.77298 -1.68854,3.88479 -1.68854,6.81113 0,3.59069 2.51305,7.359012 7.09933,8.494422 2.17899,0.53957 3.68362,0.67698 4.7905,1.06746 0.14196,0.13056 1.06348,1.10863 1.06348,1.10863 0,0 0.92106,-0.97807 1.06307,-1.10863 1.1078,-0.39054 2.61202,-0.52794 4.79091,-1.06746 4.58638,-1.13541 7.09912,-4.903732 7.09912,-8.494422 0,-3.25929 -1.73965,-4.2666 -1.73965,-7.82724 0,-2.775846 1.35336,-5.120496 1.35336,-5.120496 0,0 -3.32639,-0.28423 -4.22801,-4.24241 0,0 -1.99462,2.01105 -4.01664,2.01105 -2.60662,0 -4.32216,-2.16884 -4.32216,-2.16884 0,0 -1.71471,2.16884 -4.32133,2.16884 -2.0227,0 -4.01752,-2.01105 -4.01752,-2.01105 -0.90142,3.95818 -4.22791,4.24241 -4.22791,4.24241 0,0 1.35377,2.34465 1.35377,5.120446 0,0.36421 -0.0195,0.70023 -0.0518,1.01621 z"
         id="path1002" />
      <path
         style="font-style:normal;font-weight:normal;font-size:10.58333302px;line-height:1.25;font-family:sans-serif;letter-spacing:0px;word-spacing:0px;fill:#feffff;fill-opacity:1;stroke:none;stroke-width:0.01345971"
         inkscape:connector-curvature="0"
         d="m 60.06188,101.84007 c 2.42543,0.60263 4.01093,0.67124 5.07652,1.17426 0,0 0.38716,0.34725 0.53349,0.5067 0.14679,-0.15945 0.53431,-0.50675 0.53431,-0.50675 1.06426,-0.50297 2.65017,-0.57158 5.07576,-1.17421 3.06232,-0.76083 6.36495,-3.401842 6.36495,-7.552242 0,-2.96827 -1.74052,-4.05772 -1.74052,-7.82724 0,-2.540536 0.98173,-4.498586 0.98173,-4.498586 0,0 -2.26384,-0.44766 -3.31858,-3.25271 0,0 -1.50277,1.37258 -3.57549,1.37258 -2.59752,0 -4.32216,-1.78536 -4.32216,-1.78536 0,0 -1.72484,1.78541 -4.32133,1.78541 -2.0736,0 -3.57622,-1.37263 -3.57622,-1.37263 -1.05443,2.80505 -3.31852,3.25271 -3.31852,3.25271 0,0 0.98157,1.95805 0.98157,4.498536 0,3.76957 -1.74062,4.85902 -1.74062,7.82729 0,4.1504 3.3032,6.791412 6.36511,7.552242 z"
         id="path1025" />
      <g
         style="font-style:normal;font-weight:normal;font-size:10.58333302px;line-height:1.25;font-family:sans-serif;letter-spacing:0px;word-spacing:0px;fill:#3c3c3c;fill-opacity:1;stroke:none;stroke-width:63.8339653;stroke-linecap:butt;stroke-linejoin:miter;stroke-miterlimit:4;stroke-dasharray:none;stroke-opacity:1;paint-order:markers stroke fill"
         id="g1029"
         transform="matrix(0.05141566,0,0,0.0503328,40.992524,74.878863)">
        <path
           inkscape:connector-curvature="0"
           d="m 371.98,515.462 c 1.412,0.407 2.824,0.79 4.236,1.149 37.353,9.51 83.057,14.408 96.866,22.265 3.11,2.281 6.915,6.326 6.915,6.326 0,0 3.804,-4.045 6.917,-6.326 13.804,-7.857 59.502,-12.755 96.866,-22.265 51.775,-13.162 107.514,-59.138 107.514,-129.089 0,-34.859 -15.29,-57.798 -25.326,-92.83 L 371.98,515.461 Z M 272.593,357.45 581.425,125.534 a 113.005,113.005 0 0 1 -17.365,1.365 c -37.737,0 -67.201,-16.472 -84.063,-28.852 -16.853,12.38 -46.329,28.852 -84.047,28.852 -24.903,0 -46.105,-8.433 -61.045,-16.793 -13.92,23.212 -31.365,36.7 -45.266,44.325 5.965,17.892 12.922,45.547 12.922,77.58 0,61.642 -21.059,90.54 -29.968,125.439 z M 344.62,504.578 660.05,267.715 c -1.635,-10.641 -2.608,-22.415 -2.608,-35.704 0,-32.033 6.931,-59.688 12.915,-77.58 -11.917,-6.524 -26.42,-17.364 -39.071,-34.913 L 268.78,391.749 c 1.73,53.538 36.317,92.535 75.84,112.83 z"
           id="path1027"
           style="fill:#3c3c3c;fill-opacity:1;stroke:none;stroke-width:63.8339653;stroke-linecap:butt;stroke-linejoin:miter;stroke-miterlimit:4;stroke-dasharray:none;stroke-opacity:1;paint-order:markers stroke fill" />
      </g>
      <g
         style="font-style:normal;font-weight:normal;font-size:10.58333302px;line-height:1.25;font-family:sans-serif;letter-spacing:0px;word-spacing:0px;fill:#ffffff;fill-opacity:1;stroke:none;stroke-width:0.26458332"
         id="g1033"
         transform="matrix(0.05141566,0,0,0.0503328,40.97807,74.895243)">
        <path
           inkscape:connector-curvature="0"
           d="M 403.414,391.973 369.546,340.1 331.939,368.344 c 0,0 13.168,0.367 13.168,14.166 v 97.674 l 26.547,-19.936 V 391.19 l 30.254,46.326 28.038,-21.049 V 294.747 L 403.414,314.67 Z M 511.02,278.85 481.075,301.326 V 256.34 l -40.424,30.366 c 0,0 13.159,0.368 13.159,14.174 v 97.665 l 27.265,-20.477 v -44.516 l 29.945,-22.477 v 44.517 l 25.954,-19.495 V 214.369 l -25.955,19.51 v 44.971 z m 75.868,-11.303 v -90.652 l -40.438,30.367 c 0,0 13.162,0.365 13.162,14.157 v 97.68 l 75.28,-56.538 c -1.62,-19.478 0,-31.06 0,-31.06 z"
           id="path1031"
           style="fill:#ffffff;fill-opacity:1" />
      </g>
    </g>
  </g>
</svg>
