<svg width="100%" height="100%" version="1.1" xmlns="http://www.w3.org/2000/svg" id="team-20-20172018-light"><path fill="#010101" d="M424.969 571.056c-8.282 0-15.005 6.714-15.005 15.001 0 8.278 6.723 15.001 15.005 15.001s14.995-6.723 14.995-15c0-8.288-6.713-15.002-14.995-15.002zm0 26.784a11.772 11.772 0 0 1-11.782-11.783c0-6.51 5.264-11.774 11.782-11.774 6.51 0 11.78 5.264 11.78 11.774 0 6.512-5.27 11.783-11.78 11.783zm6.164-15.26a5.085 5.085 0 0 0-5.09-5.082h-7.228v17.123h3.213v-6.954h2.305l3.246 6.954h3.554l-3.39-7.251a5.095 5.095 0 0 0 3.39-4.79zm-5.09 1.872h-4.015v-3.747h4.014c1.033 0 1.878.839 1.878 1.875a1.878 1.878 0 0 1-1.878 1.872z"></path><path fill="none" d="M782.61 105.683C745.565 56.877 686.76 30 617.026 30c-53.92 0-97.81 21.799-133.076 39.315-21.478 10.668-40.027 19.88-53.507 19.88-8.494 0-21.792-16.263-28.523-27.813l-2.56-4.393-4.402 2.54c-17.452 10.065-22.733 26.095-23.298 37.84-19.837-8.102-44.52-8.367-47.752-8.367-30.226.202-56.569 19.004-57.7 19.823-14.257 10.444-21.382 22.817-23.872 27.872-19.47 6.577-39.031 24.865-39.998 25.777-4.642 4.663-6.6 6.276-6.596 6.276-11.384 8.584-26.881 9.285-27.028 9.292l-5.443.191.546 5.42c1.461 14.534 9.194 28.71 9.742 29.665 8.59 12.947 21.32 19.522 30.093 22.703-5.169 3.78-13.07 8.554-23.169 11.632-14.504 4.426-35.198 7.735-35.406 7.767l-4.854.77.587 4.88c.7 5.837 3.163 10.201 3.5 10.775 20.477 33.493 64.323 35.19 72.906 35.19.543 0 .962-.006 1.242-.013 3.748.4 9.074.203 13.577-.215-4.473 10.448-8.246 23.947-8.822 26.05-2.446 10.27-7.274 14.227-7.585 14.473-6.182 5.048-23.405 15.335-23.578 15.438l-4.923 2.935 3.485 4.552c6.702 8.753 20.322 13.596 27.095 15.552.68 10.275 2.963 21.933 4.62 29.375a87.58 87.58 0 0 0-11.292-.757c-16.893 0-25.99 5.44-26.37 5.671l-5.924 3.62 5.22 4.574c7.26 6.362 12.896 15.09 12.952 15.177l.364.502c8.371 10.114 10.334 31.092 10.345 31.225 2.357 32.051 13.14 51.482 17.674 58.352 6.974 10.552 20.302 20.493 20.606 20.704 9.758 8.27 27.018 12.233 27.51 12.337 1.34.371 2.714.686 4.12.947-4.13 1.848-7.935 3.4-10.141 4.25l-5.085 1.958 2.284 4.945c6.152 13.326 22.51 20.973 24.965 22.06 14.6 8.138 37.95 9.208 38.942 9.249l.125.004h.127c27.317-.207 49.218-21.377 49.992-22.142 22.71-20.596 34.986-25.702 55.004-24.171 12.108.931 23.034 5.6 35.684 11.004 19.662 8.401 44.13 18.858 83.136 18.858 126.751 0 233.422-121.846 249.884-231.202l.882-5.863-179.066.004-1.06 3.696c-.167.583-17.163 58.284-56.057 58.284-30.728 0-49.819-24.885-49.819-64.945 0-52.887 45.472-150.568 110.268-150.568 7.562 0 12.988 2.438 16.59 7.459 7.751 10.805 6.882 34.323-2.27 61.38l-2.281 6.743 171.24-.089 1.042-3.728c16.919-60.598 6.236-122.21-29.308-169.037zm-496.7 276.99a30.97 30.97 0 0 1-12.12-6.768c1.944-1.717 3.544-3.705 4.965-5.471 1.156-1.436 2.9-3.606 3.64-3.9.504-.115.787-.139.919-.141.394.271 1.246 1.188 1.94 1.934 2.974 3.202 7.951 8.561 20.049 14.586.759.356 1.461.681 2.115.981-6.942 1.742-12.636 1.354-21.508-1.22z"></path><path fill="#010101" d="M807.001 273.346c33.565-120.215-45.366-238.242-189.975-238.242-87.149 0-149.426 59.196-186.583 59.196-15.282 0-32.935-30.35-32.935-30.35-25.777 14.867-20.22 41.843-20.22 41.843-20.208-11.89-53.345-11.688-53.345-11.688-28.941.195-54.719 18.837-54.719 18.837-17.044 12.488-23.194 27.945-23.194 27.945-19.24 5.561-40.075 25.19-40.075 25.19-5.141 5.161-7.135 6.746-7.135 6.746-12.883 9.714-29.925 10.319-29.925 10.319 1.373 13.662 8.917 27.353 8.917 27.353 12.889 19.427 36.477 23.203 36.477 23.203s-12.002 12.645-32.316 18.837c-15.025 4.586-36.095 7.927-36.095 7.927.594 4.957 2.785 8.72 2.785 8.72 21.222 34.71 70.008 32.728 70.008 32.728 8.317.987 22.382-1.391 22.382-1.391-5.946 8.324-12.874 33.519-12.874 33.519-2.974 12.49-9.322 17.247-9.322 17.247-6.55 5.346-24.193 15.867-24.193 15.867 7.735 10.103 27.97 14.67 27.97 14.67.385 16.458 6.444 39.687 6.444 39.687-27.47-5.782-41.753 2.943-41.753 2.943 7.927 6.946 13.886 16.264 13.886 16.264 9.512 11.493 11.502 34.105 11.502 34.105 1.982 26.966 10.306 46.003 16.84 55.911 6.56 9.922 19.649 19.624 19.649 19.624 8.914 7.556 25.57 11.312 25.57 11.312 11.511 3.183 22.47.805 22.47.805-7.399 6.141-28.018 14.074-28.018 14.074 5.766 12.488 22.608 19.624 22.608 19.624 13.678 7.75 36.879 8.725 36.879 8.725 25.568-.195 46.601-20.818 46.601-20.818 22.541-20.447 36.496-27.192 58.823-25.48 32.747 2.516 55.642 29.847 118.43 29.847 126.659 0 228.943-121.275 244.836-226.857H628.112s-17.68 61.984-60.964 61.984c-32.98 0-54.923-26.714-54.923-70.049 0-56.672 47.26-155.673 115.372-155.673 31.871 0 31.658 38.615 19.155 75.578l160.25-.082zM284.482 387.573c-12.783-3.724-18.577-12.885-18.577-12.885 6.948-1.951 10.316-11.954 15.332-13.124 8.052-1.876 4.794 6.045 26.222 16.724 7.852 3.661 8.921 3.993 14.998 5.164-14.804 7.353-23.768 8.248-37.975 4.121z"></path><path fill="#F1BE48" d="M617.341 41.66c-81.102 0-146.08 58.22-185.326 59.97-16.389.728-36.094-26.954-36.094-26.954-22.196 16.648-5.951 47.174-5.951 47.174-32.89-24.184-69.827-20.41-69.827-20.41-55.098 5.347-68.574 45.008-68.574 45.008-32.126 11.892-43.225 28.941-43.225 28.941-19.843 14.27-31.33 12.904-31.33 12.904 7.55 41.442 50.761 39.454 50.761 39.454-17.052 32.915-72.571 38.075-72.571 38.075 19.822 31.721 67.012 28.952 67.012 28.952 16.141 1.725 38.095-6.995 48.91-11.903-7.235 3.789-10.61 6.775-10.61 6.775-20.828 14.647-20.363 41.38-31.104 60.405-4.134 8.55-16.126 12.646-22.743 17.88 7.161 3.586 15.349 6.594 23.08 7.978-.197 13.262 6.23 45.429 10.518 58.27-15.47-11.5-39.453-6.316-39.453-6.316 26.578 33.08 14.08 53.5 27.414 84.279 4.496 15.224 18.388 28.311 32.353 37.597 36.195 16.294 61.183-5.121 61.183-5.121-4.15 20.04-41.823 35.1-41.823 35.1 8.82 9.655 30.475 16.936 43.421 17.798 51.137 3.36 53.775-52.289 110.464-46.494 32.875 3.366 62.998 30.992 117.86 30.992 137.245 0 226.38-138.933 237.184-213.674H633.296s-19.075 62.378-65.31 62.378c-47.877 0-63.035-41.058-63.035-78.075 0-56.277 46.734-162.595 122.985-162.595 35.949 0 41.471 39.434 28.764 76.34h144.777C830.82 140.377 744.439 41.66 617.34 41.66zM278.895 354.027c12.747-3.94 16.704 14.105 41.008 21.786 6.94 3.466 11.074 4.059 18.246 7.543-16.773 10.564-32.383 17.465-54.371 11.211-12.516-2.549-18.779-10.19-26.65-20.145l-.985-1.686c9.264-3.02 14.655-13.602 22.752-18.71z"></path><g fill="#C8102E"><path d="M257.65 207.405c17.077-3.301 28.394-20.667 46.029-23.15 9.926-2.48 19.86 1.647 28.404 3.038-.276-.837-1.39-1.113-1.39-1.94-18.188-21.237-47.142-33.909-75.533-23.44-23.714 4.417-36.396 31.709-60.656 34.47-.258.825 1.1 1.379 1.1 2.202 14.892 17.088 42.999 15.988 62.047 8.82zM359.91 492.752v-1.102c-29.77-11.022-51.546 21.512-80.763 4.688-25.913-8.544-26.191-44.116-52.392-52.647 2.222 6.618 5.251 12.671 6.343 19.56 1.392 28.684 9.106 59.83 35.015 73.88 10.758 5.8 26.196 5.8 37.226.573 21.232-11.034 31.438-36.402 54.57-44.952z"></path><path d="M617.542 56.733c-75.673-.364-137.976 60.172-187.213 60.172-12.507 0-23.052-7.638-30.425-17.011 2.215 27.021 27.292 49.612 51.275 58.729-12.13.81-22.612-3.875-33.357-6.355-32.256-8.82-55.163-39.697-92.094-36.672-25.907-.823-48.795 14.899-61.475 36.403 6.349-5.801 13.795-9.368 21.791-11.037 19.01-3.308 35.546 5.236 47.965 18.196 15.44 24.536 32.534 48.247 57.893 65.348-18.194 0-34.188-6.895-50.167-12.4-32.829-9.387-71.698-5.253-96.514 18.183-12.677 20.684-33.91 37.502-57.33 42.453v.843l6.881 3.02c27.03 11.588 56.798.277 79.399-13.791 15.722-4.958 34.47-2.189 45.493 10.217 7.714 13.225 22.071 26.468 34.742 36.1-3.316 1.385-6.626-1.377-10.475-1.377-21.776-10.74-54.592-25.355-76.641-5.228-20.674 15.716-10.207 46.046-32.267 60.925 15.45 1.378 24.269-9.928 33.09-20.95 22.058-16.269 36.111 12.96 53.76 19.848 18.754 9.092 43.568 6.06 57.076 25.368-14.351 2.75-28.96 5.24-41.367 12.684-19.02 11.845-46.865 13.79-67.545 3.856-10.746-5.807-18.191-13.79-25.346-23.719 0 .29 0 .837-.289 1.109 1.386 40.816 16.533 85.197 58.73 99.529 28.675 13.225 59.527-8.28 87.674 5.518-14.896 3.314-28.675 11.297-37.508 24.253-14.608 19.024-14.332 45.222-32.527 61.49-3.308 3.028-8.266 4.681-11.563 7.162 3.58 1.654 7.153 2.49 11.287 3.031 20.132 3.31 37.22-9.658 48.52-24.82 16.282-15.71 40.981-25.297 60.667-23.977 39.736 2.674 69.35 31.533 121.813 31.723 104.476.394 196.688-99.158 216.28-180.778H644.532s-22.435 62.443-76.705 62.443c-67.733 0-79.567-63.26-79.567-94.666 0-73.747 57.837-179.178 139.55-179.178 38.772 0 61.59 39.592 48.971 77.281h111.396c20.365-90.87-46.658-193.32-170.636-193.925z"></path></g></svg>
