<svg width="100%" height="100%" version="1.1" xmlns="http://www.w3.org/2000/svg" id="team-26-20172018-light"><path fill="#010101" d="M650.278 528.033c-8.282 0-15.006 6.714-15.006 15.001 0 8.278 6.724 15.001 15.006 15.001 8.281 0 14.994-6.723 14.994-15 0-8.288-6.713-15.002-14.994-15.002zm0 26.784a11.772 11.772 0 0 1-11.783-11.783c0-6.51 5.265-11.774 11.783-11.774 6.51 0 11.78 5.264 11.78 11.774 0 6.512-5.27 11.783-11.78 11.783zm6.163-15.26a5.085 5.085 0 0 0-5.09-5.082h-7.228v17.123h3.213v-6.954h2.306l3.246 6.954h3.554l-3.39-7.251a5.095 5.095 0 0 0 3.39-4.79zm-5.09 1.872h-4.015v-3.747h4.015c1.033 0 1.877.839 1.877 1.875a1.878 1.878 0 0 1-1.877 1.872zM748.075 0h-536.15V446.285l4.301 3.103 257.685 186.207 6.09 4.405 6.088-4.405 257.683-186.207 4.303-3.103V0z"></path><path fill="#FFF" d="M222.315 440.968L480 627.17l257.682-186.202V10.391H222.315v430.577z"></path><g fill="#A2AAAD"><path d="M239.332 432.279L480 606.207l240.666-173.928V326.342H239.331v105.937zM239.332 311.446h481.334V27.398H239.331v284.048z"></path></g><g fill="#010101"><path d="M254.503 424.505L480 587.476l225.496-162.97v-71.822H254.503v71.822zM254.503 289.08h450.993V42.6H254.503v246.48z"></path></g><g fill="#A2AAAD"><path d="M691.98 81.566h-209.1s14.472 22.202 14.472 84.264c0 62.08-14.472 84.242-14.472 84.242h41.708v-62.751h125.685v62.751h41.706s-14.45-22.162-14.45-84.242c0-62.062 14.45-84.264 14.45-84.264zm-41.707 75.008H524.588V112.29h125.685v44.284zM309.756 219.349v-53.52c0-62.06 14.44-84.263 14.44-84.263h-56.177s14.452 22.202 14.452 84.264c0 62.08-14.452 84.242-14.452 84.242h183.467s15.282-20.801 15.282-52.522c0 0-20.926 21.798-70.039 21.798h-86.973z"></path></g><g fill="#FFF"><path d="M489.152 85.462c4.405 10.329 12.087 34.786 12.087 80.368 0 45.56-7.682 70.038-12.087 80.346h31.539v-62.771h133.48v62.77h31.538c-4.404-10.307-12.086-34.784-12.086-80.345 0-45.582 7.682-70.04 12.086-80.368H489.152zm165.018 75.009H520.69v-52.077h133.48v52.077zM305.85 223.244V165.83c0-45.582 7.67-70.04 12.074-80.368h-43.633c4.404 10.329 12.086 34.786 12.086 80.368 0 45.56-7.682 70.038-12.086 80.346h175.084c2.862-4.544 11.122-19.32 13.008-40.245-9.984 6.8-30.85 17.313-65.654 17.313h-90.88z"></path></g><path fill="#FFF" d="M547.804 509.34l16.723-95.893-3.49-1.52s-13.628 18.225-16.175 21.61c-5.603-6.84-16.266-15.342-30.725-20.09 1.146-2.778 6.39-15.526 6.39-15.526s-8.056 3.247-11.526 4.649c.365-.733.73-1.441.73-1.441s-12.36.651-14.308.768c-.993-1.766-7.731-13.676-8.644-15.3.81-1.401 3.368-5.867 3.643-6.353.416-.343 3.582-3.043 3.582-3.043l-4.1-7.795-8.717.59s-.152 4.097-.183 4.848l-1.003 1.645-.995-1.645c-.042-.75-.184-4.848-.184-4.848l-8.727-.59-4.1 7.795s3.167 2.7 3.584 3.043c.273.486 2.83 4.952 3.644 6.354-.915 1.623-7.652 13.533-8.646 15.3-1.95-.118-14.31-.77-14.31-.77s.366.709.731 1.442l-11.506-4.649s5.226 12.748 6.371 15.526c-14.46 4.748-25.125 13.25-30.726 20.09-2.546-3.385-16.174-21.61-16.174-21.61l-3.481 1.52 16.713 95.894S436.01 515.43 480 515.43c43.998 0 67.803-6.09 67.803-6.09z"></path><g fill="#010101"><path d="M466.128 511.042s-21.805-2.027-34.733-6.997c8.817 1.255 23.155 3.004 36.225 3.004 0 0-17.677-1.827-29.428-6.272 8.87 1.198 21.483 2.535 33.1 2.535 0 0-17.24-1.767-28.98-6.068 10.483-2.252 23.4-4.08 37.688-4.08 14.277 0 27.196 1.828 37.678 4.08-11.742 4.301-28.982 6.068-28.982 6.068 11.598 0 24.232-1.337 33.09-2.535-11.74 4.445-29.426 6.272-29.426 6.272 13.068 0 27.417-1.75 36.245-3.004-12.937 4.97-34.745 6.997-34.745 6.997 32.078-.89 51.082-5.638 51.082-5.638l14.735-85.542-14.916 19.926c-6.544-10.651-19.25-19.258-35.557-24.045l4.505-10.964-23.064 10.373v-5.66L480 391.165l-10.655 18.329v5.66l-23.065-10.374 4.494 10.964c-16.295 4.787-29 13.394-35.544 24.045l-14.918-19.926 14.733 85.542s19.006 4.748 51.083 5.638zm75.984-67.7l-4.06 5.421c-9.872-19.323-29.649-21.536-29.649-21.536 16.966 6.31 24.008 16.258 26.31 25.98l-3.795 5.07s.478 13.66-2.232 19.362c-.851-.304-1.845-.668-2.963-1.033 8.83-36.35-19.816-43.047-19.816-43.047 20.244 10.452 18.366 29.102 14.255 41.342-1.705-.447-3.542-.934-5.559-1.38l-2.823-13.903c2.792-.772 4.84-3.328 4.84-6.354 0-2.352-1.246-4.462-3.104-5.599-1.288-1.684-3.298-2.76-5.551-2.76a7.023 7.023 0 0 0-7.021 7.023c0 2.534 1.39 4.748 3.44 5.985l-7.032 12.847c-3.41-.343-6.9-.569-10.463-.712l20.753-50.49c16.102 4.666 28.698 13.35 34.47 23.784zm-89.765-23.784l20.752 50.49c-3.55.143-7.062.369-10.452.712l-6.424-11.732a6.564 6.564 0 0 0 3.412-5.764c0-2.352-1.25-4.462-3.118-5.599a6.926 6.926 0 0 0-5.55-2.76c-3.865 0-7.011 3.142-7.011 7.022 0 2.96 1.877 5.482 4.494 6.493l-3.053 15.1c-2.03.447-3.876.933-5.562 1.38-4.118-12.24-6.007-30.89 14.248-41.34 0 0-28.636 6.696-19.828 43.046-1.107.365-2.1.73-2.953 1.033-2.709-5.703-2.233-19.362-2.233-19.362l-3.785-5.07c2.294-9.722 9.336-19.67 26.302-25.98 0 0-19.768 2.213-29.65 21.536l-4.059-5.42c5.764-10.435 18.366-19.12 34.47-23.785z"></path><path d="M468.512 408.82L480 389.032l11.466 19.788h9.153l1.115-2.17h-9.072L481.218 386.9l5.62-9.6 1.35-1.402-.944-1.359-2.08.144-.324 1.723-4.84 8.424-4.85-8.424-.326-1.723-2.08-.144-.943 1.359 1.36 1.402 5.621 9.6-11.467 19.749h-9.063l1.118 2.17z"></path></g><g fill="#A2AAAD"><path d="M469.324 417.24l-19.453-8.724 19.453 47.348V417.24zm-6.646 8.954a3.385 3.385 0 0 1-1.948-.612c-1.593-.404-2.77-1.823-2.77-3.529 0-2.01 1.632-3.654 3.642-3.654 1.167 0 2.222.568 2.882 1.462a3.367 3.367 0 0 1 1.624 2.882c0 1.906-1.543 3.45-3.43 3.45zM490.645 417.24v38.624l19.47-47.348-19.47 8.724zm7.214 8.954c-.71 0-1.38-.226-1.948-.612-1.583-.404-2.76-1.823-2.76-3.529a3.665 3.665 0 0 1 3.653-3.654c1.176 0 2.212.568 2.882 1.462a3.387 3.387 0 0 1 1.622 2.882c0 1.906-1.54 3.45-3.45 3.45zM488.696 416.407L480 405.066l-8.707 11.34L480 426.759l8.696-10.351zm-12.349-.343A3.639 3.639 0 0 1 480 412.43a3.636 3.636 0 0 1 3.633 3.633 3.64 3.64 0 0 1-3.633 3.654 3.643 3.643 0 0 1-3.653-3.654z"></path><path d="M548.15 475.49c-3.825-.611-6.778-4.123-6.778-8.341 0-4.67 3.57-8.486 7.955-8.486.589 0 1.148.1 1.684.204l5.428-31.48-23.591 31.52c.507 15.06-3.188 21.189-3.188 21.189s-7.915-3.208-16.69-4.974l-3.098-15.282c-1.339-.018-2.567-.404-3.591-1.116-.04-.022-.08-.06-.122-.06l-7.752 14.123s-9.773-.933-14.652-.933l4.363-13.538L480 437.353l-8.12 20.963 4.365 13.538c-4.89 0-14.662.933-14.662.933l-7.176-13.07c-.446.105-.903.162-1.38.162a6.1 6.1 0 0 1-2.779-.647l-3.228 15.89c-8.787 1.766-16.684 4.974-16.684 4.974s-3.702-6.129-3.206-21.19l-23.581-31.519 5.428 31.48c.538-.104 1.107-.204 1.673-.204 4.395 0 7.968 3.815 7.968 8.486 0 4.218-2.952 7.73-6.788 8.342l4.697 27.235c7.428-2.865 32.401-11.45 63.473-11.45 31.05 0 56.033 8.585 63.46 11.45l4.69-27.235zm-4.12-.368l3.146 1.341-3.308 3.307.162-4.648zm-131.207 1.341l3.125-1.341.165 4.648-3.29-3.307zm-3.44-18.876l1.9-4.262 1.51 4.427-3.41-.165zm7.895 2.578l-2.852-1.888 3.816-2.656-.964 4.544zm1.126 1.32l4.668-.365-3.188 3.429-1.48-3.064zm-.792 12.24l1.869-2.865 2.708 3.815-4.577-.95zm2.294-4.063l.304-3.39 4.162 2.053-4.466 1.337zm13.536 16.705c0-1.562 1.28-2.843 2.842-2.843s2.841 1.28 2.841 2.843-1.278 2.817-2.84 2.817-2.843-1.254-2.843-2.817zm4.192 3.855c-.497 0-.985-.122-1.41-.365.019 0 .04.043.06.043 1.95 0 3.52-1.606 3.52-3.533 0-.811-.293-1.562-.77-2.152a3.108 3.108 0 0 1 1.797 2.82 3.188 3.188 0 0 1-3.197 3.187zm22.954-8.685c0-1.563 1.27-2.86 2.85-2.86 1.562 0 2.832 1.297 2.832 2.86a2.83 2.83 0 0 1-2.832 2.843 2.833 2.833 0 0 1-2.85-2.843zm4.21 3.854a2.986 2.986 0 0 1-1.42-.343h.06a3.512 3.512 0 0 0 3.511-3.511c0-.812-.294-1.563-.771-2.153a3.113 3.113 0 0 1 1.786 2.821 3.173 3.173 0 0 1-3.166 3.186zm12.178-28.168a2.856 2.856 0 0 1 2.85-2.865c1.563 0 2.833 1.28 2.833 2.864a2.825 2.825 0 0 1-2.832 2.822c-1.575 0-2.85-1.259-2.85-2.821zm4.202 3.836c-.51 0-.986-.121-1.4-.347h.049c1.939 0 3.52-1.562 3.52-3.49 0-.85-.303-1.584-.77-2.191a3.203 3.203 0 0 1 1.787 2.864c0 1.723-1.432 3.164-3.186 3.164zm10.572 20.478c0-1.563 1.279-2.86 2.832-2.86 1.562 0 2.842 1.297 2.842 2.86a2.838 2.838 0 1 1-5.674 0zm4.192 3.854c-.51 0-.996-.122-1.412-.343h.052a3.513 3.513 0 0 0 3.52-3.511c0-.812-.293-1.563-.77-2.153a3.117 3.117 0 0 1 1.785 2.821 3.175 3.175 0 0 1-3.175 3.186zm23.004.976a2.845 2.845 0 0 1 2.84-2.843c1.563 0 2.841 1.28 2.841 2.843s-1.278 2.817-2.84 2.817a2.823 2.823 0 0 1-2.841-2.817zm4.201 3.855c-.527 0-.985-.122-1.422-.365.02 0 .042.043.062.043 1.948 0 3.51-1.606 3.51-3.533a3.42 3.42 0 0 0-.76-2.152 3.134 3.134 0 0 1 1.787 2.82 3.177 3.177 0 0 1-3.177 3.187zm25.551-36.897l1.917 4.262-3.42.165 1.503-4.427zm-3.136 4.952l-2.851 1.888-.964-4.544 3.815 2.656zm-3.977 3.208l-1.492 3.064-3.166-3.429 4.658.365zm-1.797 4.787l.305 3.39-4.485-1.337 4.18-2.053zm-1.988 8.403l2.697-3.815 1.88 2.864-4.577.95z"></path></g><g fill="#FFF"><path d="M450.967 445.92c-3.296 0-5.976 2.7-5.976 6.007 0 3.264 2.68 5.968 5.976 5.968 3.3 0 5.98-2.704 5.98-5.968-.001-3.307-2.68-6.007-5.98-6.007zm0 11.303c-2.931 0-5.316-2.396-5.316-5.296 0-2.947 2.385-5.338 5.316-5.338 2.934 0 5.32 2.391 5.32 5.338 0 2.9-2.386 5.296-5.32 5.296zM513.932 451.927c0-3.307-2.69-6.007-5.967-6.007-3.308 0-5.997 2.7-5.997 6.007 0 3.264 2.69 5.968 5.997 5.968 3.277 0 5.967-2.704 5.967-5.968zm-5.967 5.296c-2.942 0-5.337-2.396-5.337-5.296a5.343 5.343 0 0 1 5.337-5.338c2.923 0 5.307 2.391 5.307 5.338 0 2.9-2.384 5.296-5.307 5.296zM413.097 467.149c0-1.463-1.094-2.64-2.446-2.64-.243 0-.467.04-.688.1l.88 5.135c1.27-.121 2.254-1.237 2.254-2.595z"></path><path d="M410.65 459.618c-.516 0-1.032.1-1.51.204l.152.95c.447-.1.892-.16 1.359-.16 3.33 0 6.048 2.904 6.048 6.537 0 3.268-2.25 5.985-5.185 6.432l.152.95c3.39-.503 5.988-3.628 5.988-7.382 0-4.163-3.125-7.53-7.003-7.53zM546.88 467.149c0 1.358.996 2.474 2.263 2.595l.875-5.135c-.215-.06-.439-.1-.691-.1-1.34 0-2.446 1.177-2.446 2.64z"></path><path d="M548.312 474.531l.163-.95c-2.923-.447-5.176-3.164-5.176-6.432 0-3.633 2.72-6.537 6.027-6.537.468 0 .935.061 1.36.16l.163-.95c-.486-.104-.996-.204-1.522-.204-3.856 0-6.994 3.368-6.994 7.53 0 3.755 2.6 6.88 5.98 7.383zM483.104 416.064A3.102 3.102 0 0 0 480 412.96c-1.726 0-3.127 1.398-3.127 3.104 0 1.727 1.401 3.125 3.128 3.125a3.107 3.107 0 0 0 3.103-3.125zm-5.866 0a2.777 2.777 0 0 1 2.762-2.756c1.52 0 2.75 1.258 2.75 2.756a2.754 2.754 0 0 1-2.75 2.76 2.764 2.764 0 0 1-2.762-2.76zM496.804 425.157a3.115 3.115 0 0 0 3.103-3.104c0-1.723-1.4-3.125-3.103-3.125a3.128 3.128 0 0 0-3.127 3.125c0 1.706 1.4 3.104 3.127 3.104zm0-5.868a2.78 2.78 0 0 1 2.76 2.764c0 1.502-1.26 2.756-2.76 2.756a2.766 2.766 0 0 1-2.76-2.756 2.759 2.759 0 0 1 2.76-2.764zM461.602 425.157a3.119 3.119 0 0 0 3.115-3.104c0-1.723-1.4-3.125-3.115-3.125a3.125 3.125 0 0 0-3.115 3.125c0 1.706 1.4 3.104 3.115 3.104zm0-5.868a2.758 2.758 0 0 1 2.75 2.764 2.764 2.764 0 0 1-2.75 2.756 2.76 2.76 0 1 1 0-5.52z"></path></g></svg>
