<svg width="100%" height="100%" version="1.1" xmlns="http://www.w3.org/2000/svg" id="team-99-20172018-light"><path fill="#010101" d="M699.684 551.086c-8.282 0-15.005 6.714-15.005 15.001 0 8.278 6.723 15.001 15.005 15.001s14.995-6.723 14.995-15c0-8.288-6.713-15.002-14.995-15.002zm0 26.784a11.772 11.772 0 0 1-11.782-11.783c0-6.51 5.264-11.774 11.782-11.774 6.51 0 11.78 5.264 11.78 11.774 0 6.512-5.27 11.783-11.78 11.783zm6.164-15.26a5.085 5.085 0 0 0-5.09-5.082h-7.228v17.123h3.213v-6.954h2.306l3.246 6.954h3.553l-3.389-7.251a5.095 5.095 0 0 0 3.389-4.79zm-5.09 1.872h-4.015v-3.747h4.015c1.032 0 1.877.839 1.877 1.875a1.878 1.878 0 0 1-1.877 1.872zM234.565 232.14c0 66.459-33.888 81.58-33.888 155.382 0 106.34 82.222 175.912 158.628 195.573 38.606 9.396 50.26 10.036 85.125 18.61C447.286 604.77 479.997 640 479.997 640s32.712-35.231 35.567-38.294c34.856-8.575 46.52-9.215 85.126-18.611 76.399-19.66 158.635-89.233 158.635-195.573 0-73.802-33.9-88.923-33.9-155.383 0-24 5.074-47.684 15.076-70.384l21.663-49.159-51.047-15.043c-15.563-4.603-27.01-16.663-34.02-35.83L654.539 0l-50.316 41.653c-13.33 11.048-26.842 16.648-40.163 16.648-17.82 0-38.092-8.663-51.653-22.08l-32.41-32.066-32.409 32.066c-13.558 13.417-33.836 22.08-51.638 22.08-13.337 0-26.85-5.6-40.187-16.648L305.447 0 282.9 61.723c-6.995 19.167-18.45 31.227-34.027 35.83l-51.036 15.043 21.657 49.159c10 22.7 15.072 46.384 15.072 70.384z"></path><path fill="#FFF" d="M708.756 105.552c-18.244-5.375-31.54-19.167-39.503-40.968l-18.489-50.609-41.203 34.115C596 59.32 580.509 66.66 564.06 66.66c-22.061 0-43.886-11.015-57.526-24.504l-26.537-26.25-26.537 26.25c-13.64 13.489-35.463 24.504-57.51 24.504-16.464 0-31.962-7.339-45.507-18.569l-41.206-34.115-18.49 50.61c-7.968 21.8-21.256 35.592-39.5 40.967l-41.935 12.373 17.819 40.464c8.981 20.38 15.783 45.434 15.783 73.75 0 69.116-33.894 82.844-33.894 155.383 0 22.126 3.762 42.817 10.513 61.848 22.846 64.5 80.029 109.733 141.863 125.64 39.563 9.999 58.004 10.989 87.5 19.23 3.846 4.045 31.101 33.5 31.101 33.5s27.257-29.456 31.102-33.5c29.498-8.241 47.921-9.231 87.518-19.23 80.044-20.605 152.356-90.369 152.356-187.488 0-34.955-7.887-56.26-16.032-76.688-8.765-21.95-17.866-42.88-17.866-78.695 0-28.316 6.803-53.37 15.784-73.75l17.82-40.464-41.923-12.373z"></path><path fill="#010101" d="M260.905 252.2c-5.581 55.093-32.841 77.182-32.841 135.322 0 71.339 48.877 146.207 138.077 168.765 42.38 10.72 71.644 13.45 93.172 21.208 2.761 2.594 20.684 22.026 20.684 22.026s17.914-19.432 20.676-22.026c21.546-7.759 50.802-10.489 93.18-21.208 89.202-22.558 138.073-97.426 138.073-168.765 0-64.755-33.835-84.768-33.835-155.51 0-55.15 26.322-101.733 26.322-101.733s-64.696-5.647-82.232-84.287c0 0-38.794 39.955-78.121 39.955-50.697 0-84.063-43.09-84.063-43.09s-33.35 43.09-84.047 43.09c-39.34 0-78.138-39.955-78.138-39.955-17.532 78.64-82.23 84.287-82.23 84.287s26.33 46.583 26.33 101.732c0 7.236-.379 13.912-1.007 20.19z"></path><linearGradient id="cpa" gradientUnits="userSpaceOnUse" x1="634.529" y1="519.485" x2="325.731" y2="78.476"><stop offset="0" stop-color="#939ba0"></stop><stop offset=".012" stop-color="#98a0a4"></stop><stop offset=".118" stop-color="#c1c5c7"></stop><stop offset=".202" stop-color="#dadcdd"></stop><stop offset=".253" stop-color="#e3e4e5"></stop><stop offset=".753" stop-color="#e3e4e5"></stop><stop offset=".801" stop-color="#dbddde"></stop><stop offset=".875" stop-color="#c5c9cb"></stop><stop offset=".966" stop-color="#a2a9ad"></stop><stop offset="1" stop-color="#939ba0"></stop></linearGradient><path fill="url(#cpa)" d="M370.886 537.568c47.173 11.973 78.01 13.336 98.735 23.33 0 0 7.53 6.899 10.376 10.067 2.855-3.168 10.392-10.068 10.392-10.068 20.699-9.993 51.544-11.356 98.72-23.329 59.56-15.116 123.794-67.587 123.794-150.046 0-58.973-33.852-80.618-33.852-155.51 0-50.475 19.094-89.377 19.094-89.377s-44.03-8.894-64.544-64.624c0 0-29.228 27.27-69.541 27.27-50.52 0-84.063-35.471-84.063-35.471s-33.547 35.472-84.047 35.472c-40.33 0-69.555-27.271-69.555-27.271-20.508 55.73-64.543 64.624-64.543 64.624s19.091 38.902 19.091 89.376c0 74.893-33.854 96.538-33.854 155.511 0 82.459 64.245 134.93 123.797 150.046z"></path><g fill="#010101"><path d="M371.98 515.462c1.412.407 2.824.79 4.236 1.149 37.353 9.51 83.057 14.408 96.866 22.265 3.11 2.281 6.915 6.326 6.915 6.326s3.804-4.045 6.917-6.326c13.804-7.857 59.502-12.755 96.866-22.265 51.775-13.162 107.514-59.138 107.514-129.089 0-34.859-15.29-57.798-25.326-92.83L371.98 515.461zM272.593 357.45l308.832-231.916a113.005 113.005 0 0 1-17.365 1.365c-37.737 0-67.201-16.472-84.063-28.852-16.853 12.38-46.329 28.852-84.047 28.852-24.903 0-46.105-8.433-61.045-16.793-13.92 23.212-31.365 36.7-45.266 44.325 5.965 17.892 12.922 45.547 12.922 77.58 0 61.642-21.059 90.54-29.968 125.439zM344.62 504.578l315.43-236.863c-1.635-10.641-2.608-22.415-2.608-35.704 0-32.033 6.931-59.688 12.915-77.58-11.917-6.524-26.42-17.364-39.071-34.913L268.78 391.749c1.73 53.538 36.317 92.535 75.84 112.83z"></path></g><g fill="#D0D3D4"><path d="M403.414 391.973L369.546 340.1l-37.607 28.244s13.168.367 13.168 14.166v97.674l26.547-19.936V391.19l30.254 46.326 28.038-21.049V294.747l-26.532 19.923v77.303zM511.02 278.85l-29.945 22.476V256.34l-40.424 30.366s13.159.368 13.159 14.174v97.665l27.265-20.477v-44.516l29.945-22.477v44.517l25.954-19.495V214.369l-25.955 19.51v44.971zM586.888 267.547v-90.652l-40.438 30.367s13.162.365 13.162 14.157v97.68l75.28-56.538c-1.62-19.478 0-31.06 0-31.06l-48.004 36.046z"></path></g><g fill="#FFF"><path d="M228.064 387.522c0-58.14 27.26-80.229 32.84-135.321-7.662 48.264-39.652 87.83-39.652 135.321 0 18.256 2.524 34.904 7.075 50.026 20.105 66.86 79.897 104.064 137.814 118.74-89.2-22.56-138.077-97.427-138.077-168.766zM720.806 311.289c-10.838-26.306-22.715-50.067-22.715-79.278 0 70.743 33.835 90.756 33.835 155.511 0 71.339-48.87 146.207-138.073 168.765 80.451-20.34 144.401-79.253 144.401-168.765 0-30.337-8.361-54.178-17.448-76.233z"></path></g><path fill="#D0D3D4" d="M708.756 105.552c-18.244-5.375-31.54-19.167-39.503-40.968l-18.489-50.609-8.583 32.017c17.536 78.64 82.231 84.287 82.231 84.287l26.267-12.354-41.923-12.373z"></path><linearGradient id="cpb" gradientUnits="userSpaceOnUse" x1="12346.046" y1="13003.284" x2="12592.609" y2="13003.284" gradientTransform="translate(-3193.758 -3294.856) scale(.2752)"><stop offset=".112" stop-color="#fff"></stop><stop offset=".237" stop-color="#dcdee0"></stop><stop offset=".44" stop-color="#a7aeb2"></stop><stop offset=".539" stop-color="#939ba0"></stop></linearGradient><path fill="url(#cpb)" d="M242.913 232.14c0 69.115-33.893 82.843-33.893 155.382 0 22.126 3.762 42.816 10.513 61.848 2.11-4.357 5.24-8.58 8.794-11.822-4.55-15.122-7.075-31.77-7.075-50.026 0-47.492 31.99-87.057 39.653-135.321a201.567 201.567 0 0 0 1.007-20.19c0-55.149-26.33-101.732-26.33-101.732l-26.27-12.354 17.819 40.464c8.981 20.38 15.782 45.434 15.782 73.75z"></path><linearGradient id="cpc" gradientUnits="userSpaceOnUse" x1="724.385" y1="311.289" x2="724.385" y2="117.925"><stop offset="0" stop-color="#fff"></stop><stop offset=".348" stop-color="#fff"></stop><stop offset=".562" stop-color="#939ba0"></stop><stop offset="1" stop-color="#939ba0"></stop></linearGradient><path fill="url(#cpc)" d="M698.091 232.011c0 29.211 11.877 52.972 22.715 79.278l14.135-.455c-8.765-21.95-17.866-42.88-17.866-78.695 0-28.316 6.803-53.37 15.784-73.75l17.82-40.464-26.266 12.354S698.09 176.862 698.09 232.01z"></path><linearGradient id="cpd" gradientUnits="userSpaceOnUse" x1="219.533" y1="532.644" x2="479.997" y2="532.644"><stop offset=".152" stop-color="#fff"></stop><stop offset=".212" stop-color="#fafafa"></stop><stop offset=".286" stop-color="#ebeced"></stop><stop offset=".367" stop-color="#d2d5d7"></stop><stop offset=".453" stop-color="#afb5b8"></stop><stop offset=".511" stop-color="#939ba0"></stop></linearGradient><path fill="url(#cpd)" d="M459.313 577.495c-21.528-7.758-50.792-10.489-93.172-21.208-57.917-14.675-117.709-51.88-137.814-118.739-3.554 3.242-6.684 7.465-8.794 11.822 22.846 64.5 80.029 109.733 141.863 125.64 39.563 9.999 58.004 10.989 87.5 19.23 3.846 4.045 31.101 33.5 31.101 33.5v-28.218s-17.923-19.433-20.684-22.027z"></path><linearGradient id="cpe" gradientUnits="userSpaceOnUse" x1="309.237" y1="49.961" x2="479.997" y2="49.961"><stop offset=".247" stop-color="#fff"></stop><stop offset=".337" stop-color="#fafafa"></stop><stop offset=".448" stop-color="#ebeced"></stop><stop offset=".57" stop-color="#d2d5d7"></stop><stop offset=".699" stop-color="#afb5b9"></stop><stop offset=".786" stop-color="#939ba0"></stop></linearGradient><path fill="url(#cpe)" d="M395.95 85.947c50.697 0 84.047-43.09 84.047-43.09V15.905l-26.537 26.25c-13.64 13.489-35.463 24.504-57.51 24.504-16.464 0-31.962-7.339-45.507-18.569l-41.206-34.115 8.575 32.017s38.797 39.955 78.138 39.955z"></path><linearGradient id="cpf" gradientUnits="userSpaceOnUse" x1="479.997" y1="469.287" x2="750.972" y2="469.287"><stop offset=".197" stop-color="#fff"></stop><stop offset=".327" stop-color="#fafbfb"></stop><stop offset=".473" stop-color="#edeeef"></stop><stop offset=".626" stop-color="#d7dadc"></stop><stop offset=".783" stop-color="#b8bdc0"></stop><stop offset=".933" stop-color="#939ba0"></stop></linearGradient><path fill="url(#cpf)" d="M738.254 387.522c0 89.512-63.95 148.425-144.4 168.765-42.379 10.72-71.635 13.45-93.181 21.208-2.762 2.594-20.676 22.026-20.676 22.026v28.219s27.257-29.456 31.102-33.5c29.498-8.242 47.921-9.231 87.518-19.23 80.044-20.606 152.356-90.369 152.356-187.488 0-34.956-7.887-56.26-16.032-76.688l-14.135.455c9.087 22.055 17.448 45.896 17.448 76.233z"></path><linearGradient id="cpg" gradientUnits="userSpaceOnUse" x1="479.997" y1="49.961" x2="650.764" y2="49.961"><stop offset=".247" stop-color="#fff"></stop><stop offset=".337" stop-color="#fafafa"></stop><stop offset=".448" stop-color="#ebeced"></stop><stop offset=".57" stop-color="#d2d5d7"></stop><stop offset=".699" stop-color="#afb5b8"></stop><stop offset=".786" stop-color="#939ba0"></stop></linearGradient><path fill="url(#cpg)" d="M564.06 85.947c39.327 0 78.121-39.955 78.121-39.955l8.583-32.017-41.203 34.115C596 59.32 580.509 66.66 564.06 66.66c-22.061 0-43.886-11.015-57.526-24.504l-26.537-26.25v26.952s33.366 43.09 84.063 43.09z"></path><linearGradient id="cph" gradientUnits="userSpaceOnUse" x1="209.312" y1="72.127" x2="317.812" y2="72.127"><stop offset=".388" stop-color="#fff"></stop><stop offset=".467" stop-color="#fafafa"></stop><stop offset=".566" stop-color="#ebeced"></stop><stop offset=".673" stop-color="#d2d5d7"></stop><stop offset=".788" stop-color="#afb5b8"></stop><stop offset=".865" stop-color="#939ba0"></stop></linearGradient><path fill="url(#cph)" d="M317.812 45.992l-8.575-32.017-18.49 50.61c-7.968 21.8-21.256 35.592-39.5 40.967l-41.935 12.373 26.27 12.354s64.698-5.647 82.23-84.287z"></path></svg>