<svg width="100%" height="100%" version="1.1" xmlns="http://www.w3.org/2000/svg" id="team-9-20172018-light"><path fill="#010101" d="M729.636 562.769c-8.282 0-15.006 6.713-15.006 15 0 8.279 6.724 15.002 15.006 15.002 8.281 0 14.994-6.723 14.994-15.001 0-8.288-6.713-15.001-14.994-15.001zm0 26.783a11.772 11.772 0 0 1-11.783-11.782c0-6.51 5.265-11.774 11.783-11.774 6.51 0 11.78 5.264 11.78 11.774 0 6.512-5.27 11.782-11.78 11.782zm6.163-15.259a5.085 5.085 0 0 0-5.09-5.082h-7.228v17.122h3.213v-6.954H729l3.246 6.954h3.553l-3.389-7.25a5.095 5.095 0 0 0 3.39-4.79zm-5.09 1.872h-4.015v-3.747h4.015c1.033 0 1.877.839 1.877 1.875a1.878 1.878 0 0 1-1.877 1.872z"></path><path fill="#FFF" d="M603.02 227.975l-64.81-88.564-23.525 10.886c-3.57-1.142-9.707-2.91-18.185-4.648l5.327-5.372V94.61h-5.977C504.184 73.716 483.405 35 552.442 0H388.939c-114.328 35.912-81.685 244.523-81.685 244.523l12.298-4.65s-4.676 14.817-1.712 28.791c0 0-11.892 28.58 1.81 56.517l-8.248 11.674 2.061 61.736c-21.516 18.776-61.142 4.496-68.989 38.268-6.363 8.522-27.283 15.132-27.283 15.132-37.772 99.012 182.368 110.55 223.555 165.618 0 0 39.314 22.39 94.84 22.39 116.654 0 211.562-94.899 211.562-211.56 0-91.334-57.823-171.461-144.128-200.464z"></path><path fill="#010101" d="M597.56 235.221l-62.155-84.95-20.221 9.368s-13.386-5.169-36.65-8.205l14.61-14.733v-33.403h-10.267c17.927-29.128-10.388-59.39 41.378-94.619h-133.89C289.291 42.763 314.42 232.531 314.42 232.531l19.384-7.333s-12.079 25.304-6.981 44.397c0 0-13.306 28.87 2.871 56.404l-9.517 13.48 2.06 61.799c-13.501 23.472-64.53 10.68-69.223 37.088-1.98 11.155-28.96 20.44-28.96 20.44-28.264 84.287 187.103 100.145 222.565 152.016 26.859 13.12 57.054 20.499 88.968 20.499 112.05 0 202.884-90.834 202.884-202.882 0-90.42-59.178-167.03-140.91-193.218z"></path><g fill="#C8102E"><path d="M399.563 94.32l-9.917-64.28c-71.047 30.32-61.565 175.861-61.565 175.861l72.236-104.862h66.62c11.532-22.815-2.576-59.188 22.955-74.776h-87.897l-2.432 68.058zM377.56 529.863c29.091 6.515 68.007 31.154 68.007 31.154-2.864-10.263-11.172-20.18-11.172-20.18-48.906-15.432-78.196-45.87-78.196-45.87l-74.56-40.987s44.41.262 40.43-32.587c-19.18 14.101-56.18 8.611-56.18 23.864 0 16.729 29.34 33.75 87.114 70.39l-89.32-40.897 5.393-5.824-6.195-11.967c-.619 4.598-23.308 4.672-23.308 19.952 0 53.89 190.661 73.975 225.651 124.939 4.077-26.535-48.084-51.76-87.664-71.987zM629.216 453.933c0 5.728-40.371 29.551-40.371 29.551 13.55-18.682 24.495-27.698 24.495-35.788 0-7.987-14.294-10.167-18.192-25.457-14.597 23.534-15.322 38.632-15.322 38.632l7.188 49.195-19.552-2.363c-40.923 40.917-36.41 85.817-36.41 85.817 25.719-74.433 112.815-75.507 112.815-145.815-6.498-5.245-33.899-16.086-33.899-16.086s19.248 16.587 19.248 22.314z"></path></g><g fill="#C69214"><path d="M586.69 320.913l-58.36-33.394-116.654 39.706s43.232-11.203 75.044-11.203c34.565 0 40.63 18.663 40.63 18.663s10.696-19.298 26.83-19.298c19.49 0 33.042 11.36 33.042 11.36l-.531-5.834zM461.738 152.596l9.77-10.379H420.82l-42.355 34.135 37.45-43.907h61.47v-17.953h-66.86l-59.736 81.03 2.848 13.964s32.948-56.89 108.1-56.89z"></path><path d="M422.489 457.632c0-39.293 9.58-80.089 9.58-80.089s-58.438 4.039-48.03-45.214c0 0-12.74 10.368-24.226 5.86 0 0 21.914-5.83 21.914-29.76l5.713 17.431 151.588-60.54 59.686 51.864-1.35-23.352c-6.67 2.442-21.032-7.439-21.032-7.439l2.21-1.844s9.668 4.988 18.369 1.423l-1.335-23.007-65.687-91.332-14.92 5.593s-32.132-13.58-63.307-13.58c-47.615 0-106.928 47.11-106.928 99.157l31.933 2.343 87.134-64.654-87.595 85.671s-7.745-15.135-18.845-15.135c-7.679 0-19.537 9.167-19.537 31.617 0 17.653 8.669 26.312 8.669 26.312l-10.196 13.82c7.457 110.678-5.032 121.929-27.774 115.664l44.436 21.422c0-77.486-2.896-101.038 4.689-101.038 12.495 0 11.197 77.087 14.488 113.286 0 0 32.07 37.175 95.786 43.257 0 0-45.433-28.869-45.433-77.736zm-14.263-227.215l-36.286 23.726-19.229-.873s-2.129-40.824 56.727-70c-68.607 51.105-27.015 54.278-1.212 47.147zm164.667 15.163c16.831 17.471 9.503 24.804 14.717 32.829l-.9 1.48c-6.416-5.652-6.5 8.13-24.94-11.695l1.767-1c11.954 10.312 12.79 2.105 17.264 4.18-2.839-5.093 1.44-11.704-7.986-24.025l.078-1.769zm-22.723.174c8.009 9.456 10.292 4.66 12.688 5.313-1.45-3.122 4.075-6.024-2.42-19.642l.615-2.69c14.396 20.661 3.881 22.67 9.26 31.837l-.752.973c-5.169-7.497-7.994 5.255-20.764-15.31l1.373-.48zm-31.515-47.184c-8.91 9.638-6.383 55.91 25.225 47.222-17.385 27.936-60.072-24.908-25.226-47.222zm-33.068 24.082l.438 2.604c-11.134 14.282-3.364 15.231-5.167 18.978 2.595-.749 3.696 6.268 20.903-2.881l1.685.537c-26.49 20.182-24.678 4.488-33.986 12.11l-1.158-.454c10.466-8.762-6.896-9.445 17.284-30.894zm-19.633 15.376l.22 1.403c-14.93 14.328-8.312 18.94-10.56 22.756 4.386-1.346 4.333 8.714 26.437-1.643l2.444 1c-29.996 19.96-30.612 3.997-39.467 9.657l-.775-1.038c8.188-8.197-4.176-14.905 21.701-32.135zm-31.75 18.315l.723.944c-7.788 7.782-5.12 13.444-8.019 16.336 7.439 0 2.216 10.464 32.808 4.69l4.487 2.805c-40.592 15.097-34.883-3.912-50.49 1.308l-.48-1.076c13.046-6.804 2.003-13.732 20.97-25.007zM400.95 273.93l.752.933c-4.168 4.162 1.527 7.467-3.844 11.618 5.976-.298 3.477 6.535 20.79 4.757 3.151 1.24 5.867 3.756 5.867 3.756-30.637 9.678-29.62-4.534-38.377-1.92l-.414-1.095c9.042-3.73-.361-9.323 15.226-18.049zm-56.904 42.61s4.013 8.178 10.527 8.178c6.52 0 22.662-15.809 13.647-38.325 19.403 22.432.576 46.167-9.355 46.167-9.937 0-14.819-16.02-14.819-16.02zM566.828 474.351l-7.453 19.81 11.548 1.93zM617.022 262.293v65.75c29.208 23.728 47.904 59.918 47.904 100.396 0 56.043-35.81 103.845-85.75 121.774-21.126 34.482-15.23 54.78-12.612 60.69 87.348-14.78 154.09-90.973 154.09-182.464 0-72.836-42.307-135.971-103.632-166.146zm1.804 31.875s31.205 10.697 24.815 19.029c-6.397 8.34-24.814-19.03-24.814-19.03zm18.307 28.043c3.047-2.606 10.482 3.402 14.464 0 3.973-3.392-.794-11.677 2.253-14.282 17.385 20.365 3.485 21 10.909 29.692-7.424-8.692-10.236 4.943-27.626-15.41zm-69.43 260.919s26.68-19.384 29.824-9.362c3.148 10.032-29.825 9.362-29.825 9.362zm35.104.2c-1.912-3.529 5.502-9.543 3.004-14.138-2.495-4.6-11.586-1.66-13.487-5.18 23.525-12.767 21.257.966 31.308-4.496-10.051 5.462 2.696 11.041-20.825 23.815zm28.32-15.666c-2.555-3.094 3.576-10.433.25-14.462-3.32-4.023-11.684.59-14.233-2.507 20.653-17.019 21.058-3.103 29.88-10.378-8.822 7.275 4.752 10.322-15.897 27.347zm22.719-18.707c-3.048-2.603 1.72-10.881-2.259-14.283-3.972-3.39-11.407 2.618-14.454 0 17.39-20.35 20.193-6.725 27.626-15.414-7.433 8.689 6.471 9.34-10.913 29.697zm19.134-22.364c-3.457-2.044-.202-11.022-4.704-13.675-4.513-2.652-10.782 4.549-14.239 2.52 13.589-23.077 18.722-10.14 24.525-19.99-5.803 9.85 7.995 8.081-5.582 31.145zm14.953-25.352c-3.76-1.41-2.106-10.81-7.01-12.644-4.896-1.836-9.829 6.342-13.574 4.947 9.368-25.08 16.672-13.23 20.675-23.945-4.003 10.714 9.276 6.574-.091 31.642zm9.928-26.136c-3.941-.769-3.87-10.322-9.002-11.322-5.132-1-8.644 7.882-12.574 7.123 5.102-26.285 14.266-15.8 16.443-27.023-2.177 11.223 10.235 4.946 5.133 31.222zm4.515-46.666c0 5.304-4.287 9.593-9.58 9.593-5.296 0-9.596-4.288-9.596-9.593 0-5.283 4.3-9.584 9.596-9.584 5.293 0 9.58 4.301 9.58 9.584zm-5.356-49.472c5.571 26.185-6.955 20.112-4.576 31.308-2.38-11.196-11.36-.556-16.926-26.735 3.928-.834 7.59 7.978 12.707 6.9 5.117-1.087 4.876-10.636 8.795-11.473zM686.64 353c9.816 24.91-3.54 20.99.647 31.626-4.188-10.636-11.282 1.334-21.097-23.57 3.734-1.46 8.803 6.629 13.67 4.708 4.866-1.905 3.055-11.291 6.78-12.764zm-14.525-23.888c13.8 22.934-.03 21.273 5.86 31.076-5.89-9.803-10.91 3.18-24.691-19.757 3.43-2.075 9.767 5.072 14.246 2.383 4.483-2.698 1.155-11.65 4.585-13.702z"></path></g><g fill="#FFF"><path d="M530.49 434.135l12.237-5.93-13.348-52.008 5.339-15.932 36.704-14.107 10.653 4.576-1.494-16.704s-10.477-10.1-22.682-10.1c-11.853 0-16.628 8.535-32.825 28.227 0 0-9.345-24.586-47.512-24.586-32.284 0-70.999 15.03-70.999 15.03-6.785 9.306-5.896 29.11 40.628 25.602l-6.617 30.58 25.797 3.662s-32.842 72.46-14.837 89.88c17.114 16.435 34.746 34.142 40.77 34.142 24.033 0 39.116-6.265 42.057-9.208 1.365-1.352 2.265-4.34 2.265-8.095 0-13.4-13.308-14.925-23.796-14.925-22.617 0-30.742 7.916-30.742 7.916l4.276-14.617c2.855-10.686 48.483-5.085 48.483-5.085l-1.091-14.153-9.044 1.386-19.136-2.98-45.201 1.217-2.202-1.661 53.859-9.553 11.759 2.384 10.152-2.538-5.515-4.9-5.874 2.315-1.136-11.961-32.142-5.4 25.283-8.788 15.93 6.314zm-42.318-57.79l11.253-8.883-14.031-4.007c-9.268 13.023-22.583 4.9-24.317-3.68l-51.235-7.167 59.6-9.757 48.77 19.798-8.456 16.663-21.584-2.967z"></path><path d="M576.755 365.246l-10.197 1.92c-4.247 16.988-16.293 10.013-18.128 5.888l-4.846 17.568 8.05 26.44 6.775 14.53-11.619 9.744 9.007 10.164 3.117 7.305 13.108-43.108 10.522-17.26c1.871-2.942-8.595-23.583-8.595-23.583l2.806-9.608zM477.33 554.165l28.697 19.653 7.616-26.121-25.154-3.603z"></path></g></svg>