<svg width="100%" height="100%" version="1.1" xmlns="http://www.w3.org/2000/svg" id="team-14-20172018-dark"><g fill="#FFF"><path d="M698.57 515.888v11.824h-2.958v-11.824h-3.422v-2.937h9.802v2.937h-3.423zm16.022 11.824V519l-2.49 5.428h-2.612L707 519v8.713h-2.956V512.95H707l3.796 7.883 3.796-7.883h2.956v14.761h-2.956z"></path><path d="M822.984 289.44c0-69.568-43.248-138.144-120.003-180.283l-29.411 23.337c52.454 33.007 83.324 82.331 83.324 138.305 0 130.65-161.445 248.985-341.113 248.985-18.442 0-36.527-1.348-53.996-3.942l-60.629 44.867c38.283 12.952 81.005 19.827 125.651 19.827 213.284 0 396.177-143.996 396.177-291.096"></path><path d="M551.704 338.016L441.976 359.47l243.39-199.994-113.307 15.191L792.294 0 535.906 67.459c-3.38-.071-6.77-.123-10.199-.123-210.114 0-388.69 142.797-388.69 293.454 0 73.918 39.814 132.72 101.525 170.82L143.796 640l407.908-301.984zm-385.397.495c0-135.096 169.05-248.978 341.118-248.978 1.188 0 2.361.022 3.55.035L344.62 275.673l95.658-15.13-188.47 182.272 76.438-13.806-53.392 61.072c-64.873-30.721-108.548-83.7-108.548-151.57"></path></g></svg>
